<svg width="24" height="24" viewBox="0 0 24 24" fill="none" xmlns="http://www.w3.org/2000/svg">
  <path fill-rule="evenodd" clip-rule="evenodd"
    d="M12 2C12.3452 2 12.625 2.27982 12.625 2.625V3.875C12.625 4.22018 12.3452 4.5 12 4.5C11.6548 4.5 11.375 4.22018 11.375 3.875V2.625C11.375 2.27982 11.6548 2 12 2ZM3.43306 3.43306C3.67714 3.18898 4.07286 3.18898 4.31694 3.43306L5.56694 4.68306C5.81102 4.92714 5.81102 5.32286 5.56694 5.56694C5.32286 5.81102 4.92714 5.81102 4.68306 5.56694L3.43306 4.31694C3.18898 4.07286 3.18898 3.67714 3.43306 3.43306ZM19.6831 3.43306C19.9271 3.18898 20.3229 3.18898 20.5669 3.43306C20.811 3.67714 20.811 4.07286 20.5669 4.31694L19.3169 5.56694C19.0729 5.81102 18.6771 5.81102 18.4331 5.56694C18.189 5.32286 18.189 4.92714 18.4331 4.68306L19.6831 3.43306ZM14.1372 5.75C14.9067 5.74924 15.6495 6.03247 16.2232 6.54543C16.797 7.05846 17.1613 7.76521 17.2462 8.53021L18.1903 17.0515C18.809 17.1653 19.3837 17.4643 19.8347 17.9153C20.4208 18.5013 20.75 19.2962 20.75 20.125C20.75 20.6223 20.5525 21.0992 20.2008 21.4508C19.8492 21.8025 19.3723 22 18.875 22H5.125C4.62772 22 4.1508 21.8025 3.79917 21.4508C3.44754 21.0992 3.25 20.6223 3.25 20.125C3.25 19.2962 3.57924 18.5013 4.16529 17.9153C4.61636 17.4642 5.19112 17.1653 5.80985 17.0515L6.75632 8.53021C6.75631 8.53022 6.75632 8.5302 6.75632 8.53021C6.84119 7.76576 7.205 7.05943 7.77811 6.54647C8.35122 6.03352 9.09337 5.74994 9.8625 5.75C9.86248 5.75 9.86252 5.75 9.8625 5.75H14.1372ZM7.07326 17H16.9269L16.0038 8.66812C16.0038 8.66808 16.0038 8.66817 16.0038 8.66812C15.9528 8.20918 15.7343 7.78505 15.39 7.47725C15.0458 7.16943 14.6 6.99949 14.1382 7L9.8625 7C9.40101 6.99995 8.95564 7.1701 8.61176 7.47788C8.26789 7.78566 8.0496 8.20945 7.99868 8.66812L7.07326 17ZM2 10.125C2 9.77982 2.27982 9.5 2.625 9.5H3.875C4.22018 9.5 4.5 9.77982 4.5 10.125C4.5 10.4702 4.22018 10.75 3.875 10.75H2.625C2.27982 10.75 2 10.4702 2 10.125ZM22 10.125C22 10.4702 21.7202 10.75 21.375 10.75H20.125C19.7798 10.75 19.5 10.4702 19.5 10.125C19.5 9.77982 19.7798 9.5 20.125 9.5H21.375C21.7202 9.5 22 9.77982 22 10.125ZM6.375 18.25C5.87772 18.25 5.40081 18.4475 5.04917 18.7992C4.69754 19.1508 4.5 19.6277 4.5 20.125C4.5 20.2908 4.56585 20.4497 4.68306 20.5669C4.80027 20.6842 4.95924 20.75 5.125 20.75H18.875C19.0408 20.75 19.1997 20.6842 19.3169 20.5669C19.4342 20.4497 19.5 20.2908 19.5 20.125C19.5 19.6277 19.3025 19.1508 18.9508 18.7992C18.5992 18.4475 18.1223 18.25 17.625 18.25H6.375Z"
    fill="currentColor" />
</svg>