<svg xmlns="http://www.w3.org/2000/svg" width="20" height="20" viewBox="0 0 20 20" fill="none">
  <path fill-rule="evenodd" clip-rule="evenodd"
    d="M13.6665 1.7227C13.2825 1.56557 12.871 1.4865 12.456 1.49011C12.0411 1.49371 11.631 1.57992 11.2498 1.7437C10.8685 1.90747 10.5237 2.14554 10.2354 2.44401L10.2278 2.45185L2.71447 9.96424C2.71446 9.96425 2.71448 9.96424 2.71447 9.96424C1.7768 10.9019 1.25 12.1737 1.25 13.4998C1.25 14.8259 1.77678 16.0977 2.71447 17.0353C3.65216 17.973 4.92393 18.4998 6.25002 18.4998C7.5761 18.4998 8.84787 17.973 9.78555 17.0354C9.78555 17.0354 9.78556 17.0354 9.78555 17.0354L18.933 7.88705C19.1771 7.64296 19.5728 7.64295 19.8169 7.88701C20.061 8.13108 20.061 8.5268 19.817 8.77089L10.6695 17.9192C9.49737 19.0913 7.90763 19.7498 6.25002 19.7498C4.59241 19.7498 3.0027 19.0913 1.83059 17.9192C0.658482 16.7471 0 15.1574 0 13.4998C0 11.8422 0.658483 10.2525 1.83059 9.08036L9.34025 1.57154C9.74302 1.15559 10.2244 0.823723 10.7564 0.595182C11.2902 0.365893 11.8643 0.245203 12.4452 0.240155C13.0261 0.235107 13.6022 0.345802 14.1398 0.565781C14.6775 0.785759 15.166 1.11062 15.5768 1.5214C15.9875 1.93218 16.3124 2.42065 16.5324 2.95832C16.7524 3.49599 16.8631 4.07209 16.858 4.653C16.853 5.23391 16.7323 5.80799 16.503 6.34176C16.2744 6.87377 15.9426 7.35511 15.5267 7.75788L8.01019 15.2785C7.53875 15.734 6.90722 15.986 6.25173 15.9804C5.59624 15.9748 4.96917 15.712 4.50557 15.2485C4.04198 14.7851 3.77896 14.1581 3.77316 13.5026C3.76736 12.8471 4.01925 12.2156 4.47457 11.744L4.48211 11.7362L11.9955 4.22045C12.2395 3.97633 12.6353 3.97626 12.8794 4.2203C13.1235 4.46434 13.1236 4.86006 12.8795 5.10418L5.37042 12.6158C5.1449 12.8512 5.02023 13.1654 5.02311 13.4916C5.02601 13.8193 5.15752 14.1328 5.38932 14.3645C5.62111 14.5962 5.93465 14.7277 6.26239 14.7305C6.58851 14.7332 6.90272 14.6085 7.13805 14.3829L14.6541 6.86268C14.9526 6.57441 15.1907 6.22966 15.3545 5.84839C15.5182 5.46713 15.6044 5.05707 15.6081 4.64214C15.6117 4.2272 15.5326 3.8157 15.3755 3.43165C15.2183 3.0476 14.9863 2.69869 14.6929 2.40528C14.3995 2.11186 14.0506 1.87982 13.6665 1.7227Z"
    fill="currentColor" />
</svg>