<svg xmlns="http://www.w3.org/2000/svg" width="24" height="24" viewBox="0 0 24 24" fill="none">
  <path fill-rule="evenodd" clip-rule="evenodd"
    d="M8.25 2.625C8.25 2.27982 7.97018 2 7.625 2C7.27982 2 7 2.27982 7 2.625V4.5H3.875C2.83947 4.5 2 5.33947 2 6.375V20.125C2 21.1605 2.83947 22 3.875 22H20.125C21.1605 22 22 21.1605 22 20.125V6.375C22 5.33947 21.1605 4.5 20.125 4.5H17V2.625C17 2.27982 16.7202 2 16.375 2C16.0298 2 15.75 2.27982 15.75 2.625V4.5H8.25V2.625ZM3.25 10.75H20.75V20.125C20.75 20.4702 20.4702 20.75 20.125 20.75H3.875C3.52982 20.75 3.25 20.4702 3.25 20.125V10.75Z"
    fill="currentColor" />
</svg>