<svg width="24" height="24" viewBox="0 0 24 24" fill="none" xmlns="http://www.w3.org/2000/svg">
  <path fill-rule="evenodd" clip-rule="evenodd"
    d="M12.0058 3.25011C9.41682 3.25011 6.90709 4.14297 4.89985 5.77809C4.63221 5.99612 4.23849 5.95589 4.02047 5.68825C3.80244 5.4206 3.84266 5.02689 4.11031 4.80886C6.34057 2.99206 9.12916 2 12.0058 2C14.8824 2 17.671 2.99206 19.9012 4.80886C20.1689 5.02689 20.2091 5.4206 19.9911 5.68825C19.773 5.95589 19.3793 5.99612 19.1117 5.77809C17.1044 4.14297 14.5947 3.25011 12.0058 3.25011ZM17.0561 8.95497C15.6705 7.69247 13.8624 6.99456 11.9879 6.99869C10.1133 7.00282 8.30831 7.70869 6.92827 8.97728C6.67413 9.2109 6.27871 9.19426 6.04509 8.94011C5.81147 8.68597 5.82811 8.29055 6.08225 8.05693C7.6923 6.57691 9.79817 5.75339 11.9851 5.74858C14.172 5.74376 16.2815 6.55799 17.8981 8.0309C18.1532 8.2634 18.1716 8.65874 17.9391 8.91391C17.7066 9.16909 17.3113 9.18747 17.0561 8.95497ZM12.0078 10.7491C11.0145 10.7491 10.0618 11.1431 9.35868 11.8448C9.11433 12.0887 8.71856 12.0882 8.47472 11.8439C8.23087 11.5995 8.23127 11.2038 8.47562 10.9599C9.41309 10.0244 10.6834 9.49896 12.0078 9.49896C13.3323 9.49896 14.6026 10.0244 15.5401 10.9599C15.7844 11.2038 15.7848 11.5995 15.541 11.8439C15.2971 12.0882 14.9014 12.0887 14.657 11.8448C13.9539 11.1431 13.0012 10.7491 12.0078 10.7491ZM7.63037 13.8743C7.63037 13.529 7.91021 13.2492 8.25542 13.2492H17.0062C17.8351 13.2492 18.63 13.5785 19.2161 14.1646C19.8022 14.7507 20.1315 15.5456 20.1315 16.3745C20.1315 17.2034 19.8022 17.9983 19.2161 18.5844C18.63 19.1705 17.8351 19.4998 17.0062 19.4998H16.318C16.1964 20.0957 15.9023 20.6481 15.4658 21.0846C14.8797 21.6707 14.0848 22 13.2559 22H10.7557C9.92677 22 9.13185 21.6707 8.54574 21.0846C7.95964 20.4985 7.63037 19.7036 7.63037 18.8747V13.8743ZM16.3812 18.2497H17.0062C17.5035 18.2497 17.9805 18.0521 18.3322 17.7004C18.6838 17.3488 18.8814 16.8718 18.8814 16.3745C18.8814 15.8772 18.6838 15.4002 18.3322 15.0485C17.9805 14.6969 17.5035 14.4993 17.0062 14.4993H16.3812V18.2497ZM15.1311 14.4993H8.88048V18.8747C8.88048 19.372 9.07804 19.849 9.42971 20.2007C9.78137 20.5523 10.2583 20.7499 10.7557 20.7499H13.2559C13.7532 20.7499 14.2302 20.5523 14.5818 20.2007C14.9335 19.849 15.1311 19.372 15.1311 18.8747V14.4993Z"
    fill="currentColor" />
</svg>