<svg xmlns="http://www.w3.org/2000/svg" width="24" height="24" viewBox="0 0 24 24" fill="none">
  <path
    d="M2.625 22.0005C2.45909 22.0001 2.30005 21.9342 2.18248 21.8172C2.1061 21.7402 2.05092 21.6449 2.0223 21.5403C1.99368 21.4358 1.99259 21.3256 2.01915 21.2205L3.49418 15.4662C3.50408 15.4316 3.51662 15.3979 3.53168 15.3653C3.56174 15.2961 3.60441 15.2331 3.65752 15.1795L15.7628 3.0742C16.1007 2.73332 16.5029 2.46286 16.9461 2.27847C17.3892 2.09408 17.8646 1.99943 18.3446 2C19.3262 2 20.2421 2.37835 20.933 3.06586L20.9571 3.09003C21.2941 3.43316 21.5598 3.83969 21.7387 4.28612C21.9177 4.73255 22.0064 5.21002 21.9996 5.69093C21.9956 6.17118 21.8963 6.64585 21.7074 7.08745C21.5186 7.52904 21.244 7.92877 20.8996 8.26349L8.82098 20.3421C8.76555 20.3967 8.70022 20.4403 8.62848 20.4705C8.59857 20.4845 8.56765 20.4962 8.53598 20.5055L2.77917 21.9822C2.7287 21.9945 2.67694 22.0006 2.625 22.0005ZM3.49252 20.508L7.16761 19.5654L4.43337 16.8362L3.49252 20.508ZM8.38264 19.0121L19.2329 8.16182L15.8378 4.76674L4.98505 15.6203L8.38264 19.0121ZM20.1154 7.2768C20.5313 6.82306 20.7579 6.22743 20.7488 5.61199C20.7396 4.99655 20.4954 4.40791 20.0663 3.96672L20.0496 3.95005C19.8267 3.72737 19.5619 3.5509 19.2706 3.43077C18.9793 3.31065 18.6672 3.24923 18.3521 3.25003V2.93753L18.3512 3.25003C17.7478 3.24894 17.1662 3.47574 16.7228 3.88505L20.1154 7.2768Z"
    fill="currentColor" />
</svg>