<svg width="24" height="24" viewBox="0 0 24 24" fill="none" xmlns="http://www.w3.org/2000/svg">
  <path fill-rule="evenodd" clip-rule="evenodd"
    d="M7.625 2C7.97018 2 8.25 2.27982 8.25 2.625V4.5H15.75V2.625C15.75 2.27982 16.0298 2 16.375 2C16.7202 2 17 2.27982 17 2.625V4.5H20.125C21.1605 4.5 22 5.33947 22 6.375V20.125C22 21.1605 21.1605 22 20.125 22H3.875C2.83947 22 2 21.1605 2 20.125V6.375C2 5.33947 2.83947 4.5 3.875 4.5H7V2.625C7 2.27982 7.27982 2 7.625 2ZM7 5.75H3.875C3.52982 5.75 3.25 6.02982 3.25 6.375V9.5H20.75V6.375C20.75 6.02982 20.4702 5.75 20.125 5.75H17V7C17 7.34518 16.7202 7.625 16.375 7.625C16.0298 7.625 15.75 7.34518 15.75 7V5.75H8.25V7C8.25 7.34518 7.97018 7.625 7.625 7.625C7.27982 7.625 7 7.34518 7 7V5.75ZM20.75 10.75H3.25V20.125C3.25 20.4702 3.52982 20.75 3.875 20.75H20.125C20.4702 20.75 20.75 20.4702 20.75 20.125V10.75ZM12 12.625C12.3452 12.625 12.625 12.9048 12.625 13.25V15.125H14.5C14.8452 15.125 15.125 15.4048 15.125 15.75C15.125 16.0952 14.8452 16.375 14.5 16.375H12.625V18.25C12.625 18.5952 12.3452 18.875 12 18.875C11.6548 18.875 11.375 18.5952 11.375 18.25V16.375H9.5C9.15482 16.375 8.875 16.0952 8.875 15.75C8.875 15.4048 9.15482 15.125 9.5 15.125H11.375V13.25C11.375 12.9048 11.6548 12.625 12 12.625Z"
    fill="currentColor" />
</svg>