<svg width="24" height="24" viewBox="0 0 24 24" fill="none" xmlns="http://www.w3.org/2000/svg">
  <path
    d="M7 15.7C7.69036 15.7 8.25 15.1404 8.25 14.45C8.25 13.7596 7.69036 13.2 7 13.2C6.30964 13.2 5.75 13.7596 5.75 14.45C5.75 15.1404 6.30964 15.7 7 15.7Z"
    fill="currentColor" />
  <path
    d="M12 15.7C12.6904 15.7 13.25 15.1404 13.25 14.45C13.25 13.7596 12.6904 13.2 12 13.2C11.3096 13.2 10.75 13.7596 10.75 14.45C10.75 15.1404 11.3096 15.7 12 15.7Z"
    fill="currentColor" />
  <path
    d="M18.25 14.45C18.25 15.1404 17.6904 15.7 17 15.7C16.3096 15.7 15.75 15.1404 15.75 14.45C15.75 13.7596 16.3096 13.2 17 13.2C17.6904 13.2 18.25 13.7596 18.25 14.45Z"
    fill="currentColor" />
  <path fill-rule="evenodd" clip-rule="evenodd"
    d="M8.45834 2.625C8.45834 2.27982 8.17852 2 7.83334 2C7.48816 2 7.20834 2.27982 7.20834 2.625V4.29167H3.87501C2.83947 4.29167 2.00001 5.13113 2.00001 6.16667L2 20.125C2 21.1605 2.83947 22 3.875 22H20.125C21.1605 22 22 21.1605 22 20.125L22 6.16667C22 5.13113 21.1605 4.29167 20.125 4.29167H16.7917V2.625C16.7917 2.27982 16.5118 2 16.1667 2C15.8215 2 15.5417 2.27982 15.5417 2.625V4.29167H8.45834V2.625ZM3.25 20.125L3.25001 8.875H20.75L20.75 20.125C20.75 20.4702 20.4702 20.75 20.125 20.75H3.875C3.52982 20.75 3.25 20.4702 3.25 20.125ZM3.25001 7.625H20.75V6.16667C20.75 5.82149 20.4702 5.54167 20.125 5.54167H3.87501C3.52983 5.54167 3.25001 5.82149 3.25001 6.16667V7.625Z"
    fill="currentColor" />
</svg>