<svg xmlns="http://www.w3.org/2000/svg" width="24" height="24" viewBox="0 0 24 24" fill="none">
  <path fill-rule="evenodd" clip-rule="evenodd"
    d="M14.951 2.75C14.951 2.33579 15.2868 2 15.701 2H21.2514C21.3543 2 21.4523 2.02071 21.5416 2.05819C21.6221 2.09195 21.698 2.14039 21.7651 2.20351C21.7769 2.21465 21.7884 2.22618 21.7995 2.23806C21.8604 2.30323 21.9076 2.37661 21.9409 2.45449C21.9798 2.54517 22.0014 2.64507 22.0014 2.75V8.30042C22.0014 8.71463 21.6656 9.05042 21.2514 9.05042C20.8372 9.05042 20.5014 8.71463 20.5014 8.30042V4.56065L9.44746 15.6146C9.15456 15.9075 8.67969 15.9075 8.3868 15.6146C8.0939 15.3217 8.0939 14.8468 8.3868 14.5539L19.4407 3.5H15.701C15.2868 3.5 14.951 3.16421 14.951 2.75ZM3.98343 5.70028C3.45739 5.70028 2.9529 5.90925 2.58093 6.28121C2.20897 6.65318 2 7.15767 2 7.6837V20.018C2 20.544 2.20897 21.0485 2.58093 21.4205C2.9529 21.7924 3.45739 22.0014 3.98343 22.0014H16.3177C16.8437 22.0014 17.3482 21.7924 17.7202 21.4205C18.0921 21.0485 18.3011 20.544 18.3011 20.018V12.6174C18.3011 12.2032 17.9653 11.8674 17.5511 11.8674C17.1369 11.8674 16.8011 12.2032 16.8011 12.6174V20.018C16.8011 20.1462 16.7502 20.2691 16.6595 20.3598C16.5689 20.4505 16.4459 20.5014 16.3177 20.5014H3.98343C3.85521 20.5014 3.73225 20.4505 3.64159 20.3598C3.55093 20.2691 3.5 20.1462 3.5 20.018V7.6837C3.5 7.55549 3.55093 7.43253 3.64159 7.34187C3.73225 7.25121 3.85521 7.20028 3.98343 7.20028H11.384C11.7982 7.20028 12.134 6.86449 12.134 6.45028C12.134 6.03607 11.7982 5.70028 11.384 5.70028H3.98343Z"
    fill="currentColor" />
</svg>