<svg width="24" height="24" viewBox="0 0 24 24" fill="none" xmlns="http://www.w3.org/2000/svg">
    <path fill-rule="evenodd" clip-rule="evenodd" d="M15.125 6.625C15.125 6.27982 15.4048 6 15.75 6H21.375C21.7202 6 22 6.27982 22 6.625V12.25C22 12.5952 21.7202 12.875 21.375 12.875C21.0298 12.875 20.75 12.5952 20.75 12.25V7.25H15.75C15.4048 7.25 15.125 6.97018 15.125 6.625Z" fill="currentColor"/>
    <path fill-rule="evenodd" clip-rule="evenodd" d="M21.8169 6.18306C22.061 6.42714 22.061 6.82286 21.8169 7.06694L15.2013 13.6826C15.0271 13.8569 14.8204 13.9951 14.5928 14.0894C14.3652 14.1837 14.1213 14.2322 13.875 14.2322C13.6287 14.2322 13.3848 14.1837 13.1572 14.0894C12.9296 13.9951 12.7229 13.8569 12.5487 13.6826L9.94222 11.0761C9.88418 11.018 9.81512 10.9718 9.73927 10.9404C9.66341 10.9089 9.58211 10.8928 9.5 10.8928C9.41789 10.8928 9.33659 10.9089 9.26073 10.9404C9.18488 10.9718 9.11596 11.0179 9.05792 11.076L3.06694 17.0669C2.82286 17.311 2.42714 17.311 2.18306 17.0669C1.93898 16.8229 1.93898 16.4271 2.18306 16.1831L8.17375 10.1924C8.1737 10.1924 8.1738 10.1923 8.17375 10.1924C8.34785 10.0182 8.55469 9.87988 8.78219 9.78561C9.00975 9.6913 9.25367 9.64277 9.5 9.64277C9.74633 9.64277 9.99025 9.6913 10.2178 9.78561C10.4454 9.87991 10.6521 10.0181 10.8263 10.1924L13.4328 12.7989C13.4908 12.857 13.5599 12.9032 13.6357 12.9346C13.7116 12.9661 13.7929 12.9822 13.875 12.9822C13.9571 12.9822 14.0384 12.9661 14.1143 12.9346C14.1901 12.9032 14.259 12.8571 14.3171 12.799L20.9331 6.18306C21.1771 5.93898 21.5729 5.93898 21.8169 6.18306Z" fill="currentColor"/>
</svg>
