<svg width="24" height="24" viewBox="0 0 24 24" fill="none" xmlns="http://www.w3.org/2000/svg">
  <path fill-rule="evenodd" clip-rule="evenodd"
    d="M11.9932 2.00001L11.9968 2C13.8181 2.00533 15.5632 2.73117 16.851 4.01899C18.1388 5.30681 18.8647 7.05194 18.87 8.87318L18.87 8.87501L18.87 9.6067C19.0655 9.5376 19.2759 9.50001 19.495 9.50001C20.5305 9.50001 21.37 10.3395 21.37 11.375V13.875C21.37 14.9105 20.5305 15.75 19.495 15.75C18.4595 15.75 17.62 14.9105 17.62 13.875V8.87578C17.6154 7.38517 17.0212 5.95692 15.9671 4.90287C14.9133 3.84901 13.4853 3.25484 11.995 3.25001C10.5047 3.25484 9.07673 3.84901 8.02287 4.90287C6.96878 5.95696 6.37458 7.38529 6.37 8.87597V13.875C6.37 14.9105 5.53054 15.75 4.495 15.75C3.45947 15.75 2.62 14.9105 2.62 13.875V11.375C2.62 10.3395 3.45947 9.50001 4.495 9.50001C4.71415 9.50001 4.92452 9.5376 5.12 9.6067V8.87501L5.12 8.87318C5.12532 7.05194 5.85117 5.30681 7.13898 4.01899C8.4268 2.73117 10.1719 2.00533 11.9932 2.00001ZM5.12 11.375C5.12 11.0298 4.84018 10.75 4.495 10.75C4.14982 10.75 3.87 11.0298 3.87 11.375V13.875C3.87 14.2202 4.14982 14.5 4.495 14.5C4.84018 14.5 5.12 14.2202 5.12 13.875V11.375ZM18.87 13.875C18.87 14.2202 19.1498 14.5 19.495 14.5C19.8402 14.5 20.12 14.2202 20.12 13.875V11.375C20.12 11.0298 19.8402 10.75 19.495 10.75C19.1498 10.75 18.87 11.0298 18.87 11.375V13.875ZM11.995 8.25001C10.2691 8.25001 8.87 9.64912 8.87 11.375C8.87 13.1009 10.2691 14.5 11.995 14.5C13.7209 14.5 15.12 13.1009 15.12 11.375C15.12 9.64912 13.7209 8.25001 11.995 8.25001ZM7.62 11.375C7.62 8.95876 9.57875 7.00001 11.995 7.00001C14.4112 7.00001 16.37 8.95876 16.37 11.375C16.37 13.7912 14.4112 15.75 11.995 15.75C9.57875 15.75 7.62 13.7912 7.62 11.375ZM8.38597 18.1463C9.44143 17.4 10.7023 16.9992 11.995 16.9992C13.2877 16.9992 14.5486 17.4 15.604 18.1463C16.6595 18.8927 17.4576 19.9479 17.8884 21.1667C17.9561 21.358 17.9266 21.5702 17.8095 21.7359C17.6923 21.9015 17.5021 22 17.2992 22H6.69083C6.48794 22 6.29768 21.9015 6.18053 21.7359C6.06339 21.5702 6.03395 21.358 6.10157 21.1667C6.53241 19.9479 7.33052 18.8927 8.38597 18.1463ZM11.995 18.2492C10.9608 18.2492 9.95207 18.5698 9.10768 19.167C8.51477 19.5862 8.02338 20.1273 7.66394 20.75H16.3261C15.9666 20.1273 15.4752 19.5862 14.8823 19.167C14.0379 18.5698 13.0292 18.2492 11.995 18.2492Z"
    fill="currentColor" />
</svg>