<svg width="24" height="24" viewBox="0 0 24 24" fill="none" xmlns="http://www.w3.org/2000/svg">
  <path fill-rule="evenodd" clip-rule="evenodd"
    d="M7 2C5.27411 2 3.875 3.39911 3.875 5.125C3.875 6.85089 5.27411 8.25 7 8.25C8.72589 8.25 10.125 6.85089 10.125 5.125C10.125 3.39911 8.72589 2 7 2ZM5.125 5.125C5.125 4.08947 5.96447 3.25 7 3.25C8.03553 3.25 8.875 4.08947 8.875 5.125C8.875 6.16053 8.03553 7 7 7C5.96447 7 5.125 6.16053 5.125 5.125Z"
    fill="currentColor" />
  <path fill-rule="evenodd" clip-rule="evenodd"
    d="M15.75 2C14.1967 2 12.9375 3.2592 12.9375 4.8125C12.9375 5.84696 13.496 6.75098 14.3279 7.23949C14.2646 7.26129 14.2017 7.28457 14.1394 7.30932C13.4926 7.56594 12.9164 7.97312 12.4585 8.49707C12.2314 8.75699 12.258 9.15183 12.5179 9.37896C12.7778 9.60609 13.1727 9.57951 13.3998 9.31959C13.7268 8.94535 14.1384 8.6545 14.6004 8.4712C15.0624 8.2879 15.5614 8.21743 16.0561 8.26564C16.5507 8.31385 17.0267 8.47935 17.4446 8.7484C17.8625 9.01745 18.2102 9.3823 18.4588 9.81265C18.6315 10.1115 19.0138 10.2139 19.3126 10.0412C19.6115 9.86851 19.7139 9.48623 19.5412 9.18735C19.1931 8.58486 18.7063 8.07407 18.1213 7.6974C17.8242 7.50611 17.5061 7.35221 17.1743 7.23822C18.005 6.74941 18.5625 5.84606 18.5625 4.8125C18.5625 3.2592 17.3033 2 15.75 2ZM14.1875 4.8125C14.1875 3.94956 14.8871 3.25 15.75 3.25C16.6129 3.25 17.3125 3.94956 17.3125 4.8125C17.3125 5.67544 16.6129 6.375 15.75 6.375C14.8871 6.375 14.1875 5.67544 14.1875 4.8125Z"
    fill="currentColor" />
  <path
    d="M8.92365 8.63544C7.90661 8.21183 6.77814 8.13593 5.71353 8.41953C4.64892 8.70314 3.70777 9.33038 3.03626 10.2038C2.36474 11.0773 2.00046 12.1483 2 13.25V15.125C2 15.4702 2.27982 15.75 2.625 15.75H3.93438L4.5031 21.4372C4.53505 21.7567 4.80391 22 5.125 22H8.875C9.19604 22 9.46487 21.7568 9.49688 21.4373L9.76688 18.7432C9.80131 18.3997 9.55078 18.0934 9.20732 18.0589C8.86387 18.0245 8.55754 18.2751 8.52312 18.6185L8.3095 20.75H5.69062L5.1219 15.0628C5.08995 14.7433 4.82109 14.5 4.5 14.5H3.25V13.25C3.25041 12.4237 3.52363 11.6207 4.02723 10.9657C4.5309 10.3106 5.2368 9.84012 6.0353 9.62741C6.8338 9.41469 7.6802 9.47162 8.44303 9.78935C9.20585 10.1071 9.8424 10.6678 10.2538 11.3845C10.4256 11.6838 10.8076 11.7872 11.107 11.6154C11.4063 11.4435 11.5097 11.0615 11.3379 10.7622C10.7894 9.80668 9.94069 9.05906 8.92365 8.63544Z"
    fill="currentColor" />
  <path
    d="M16.0162 14.5714C16.1875 14.5004 16.376 14.4818 16.5579 14.518C16.7398 14.5542 16.9068 14.6435 17.0379 14.7746C17.169 14.9057 17.2583 15.0727 17.2945 15.2546C17.3307 15.4365 17.3121 15.625 17.2411 15.7963C17.1702 15.9676 17.05 16.114 16.8958 16.217C16.7417 16.32 16.5604 16.375 16.375 16.375C16.0298 16.375 15.75 16.6548 15.75 17C15.75 17.3452 16.0298 17.625 16.375 17.625C16.8076 17.625 17.2306 17.4967 17.5903 17.2563C17.95 17.016 18.2304 16.6743 18.396 16.2746C18.5616 15.8749 18.6049 15.4351 18.5205 15.0107C18.4361 14.5864 18.2277 14.1966 17.9218 13.8907C17.6159 13.5848 17.2261 13.3764 16.8018 13.292C16.3774 13.2076 15.9376 13.2509 15.5379 13.4165C15.1382 13.5821 14.7965 13.8625 14.5562 14.2222C14.3158 14.5819 14.1875 15.0049 14.1875 15.4375C14.1875 15.7827 14.4673 16.0625 14.8125 16.0625C15.1577 16.0625 15.4375 15.7827 15.4375 15.4375C15.4375 15.2521 15.4925 15.0708 15.5955 14.9167C15.6985 14.7625 15.8449 14.6423 16.0162 14.5714Z"
    fill="currentColor" />
  <path
    d="M16.5 19.8334C16.9602 19.8334 17.3333 19.4603 17.3333 19C17.3333 18.5398 16.9602 18.1667 16.5 18.1667C16.0398 18.1667 15.6667 18.5398 15.6667 19C15.6667 19.4603 16.0398 19.8334 16.5 19.8334Z"
    fill="currentColor" />
  <path fill-rule="evenodd" clip-rule="evenodd"
    d="M16.375 10.75C13.2684 10.75 10.75 13.2684 10.75 16.375C10.75 19.4816 13.2684 22 16.375 22C19.4816 22 22 19.4816 22 16.375C22 13.2684 19.4816 10.75 16.375 10.75ZM12 16.375C12 13.9588 13.9588 12 16.375 12C18.7912 12 20.75 13.9588 20.75 16.375C20.75 18.7912 18.7912 20.75 16.375 20.75C13.9588 20.75 12 18.7912 12 16.375Z"
    fill="currentColor" />
</svg>