<svg width="24" height="24" viewBox="0 0 24 24" fill="none" xmlns="http://www.w3.org/2000/svg">
  <path fill-rule="evenodd" clip-rule="evenodd"
    d="M11.9962 3.25C9.61249 3.25 7.65016 5.24285 7.65016 7.73863C7.65016 10.2344 9.61249 12.2273 11.9962 12.2273C14.3799 12.2273 16.3422 10.2344 16.3422 7.73863C16.3422 5.24285 14.3799 3.25 11.9962 3.25ZM6.40016 7.73863C6.40016 4.58606 8.88904 2 11.9962 2C15.1033 2 17.5922 4.58606 17.5922 7.73863C17.5922 10.8912 15.1033 13.4773 11.9962 13.4773C8.88904 13.4773 6.40016 10.8912 6.40016 7.73863ZM7.32278 17.1627C8.68773 16.1698 10.3205 15.6353 11.9962 15.6353C13.672 15.6353 15.3048 16.1698 16.6697 17.1627C18.0344 18.1554 19.0636 19.5568 19.6186 21.1719C19.6842 21.3628 19.6535 21.5737 19.5362 21.7381C19.4189 21.9024 19.2294 22 19.0275 22H4.965C4.76308 22 4.5736 21.9024 4.45629 21.7381C4.33898 21.5737 4.3083 21.3628 4.37393 21.1719C4.92894 19.5568 5.95809 18.1554 7.32278 17.1627ZM11.9962 16.8853C10.5875 16.8853 9.2116 17.3345 8.0581 18.1736C7.14283 18.8394 6.40285 19.7251 5.89988 20.75H18.0926C17.5896 19.7251 16.8497 18.8394 15.9344 18.1736C14.7809 17.3345 13.405 16.8853 11.9962 16.8853Z"
    fill="currentColor" />
</svg>