<svg xmlns="http://www.w3.org/2000/svg" width="20" height="20" viewBox="0 0 20 20" fill="none">
  <path
    d="M6.79811 20C6.2562 20 5.7143 19.8083 5.28078 19.4164C4.78056 18.9662 4.51377 18.3159 4.54712 17.6406L4.60548 16.4735C4.63049 15.9149 4.2053 15.448 3.65506 15.4147C3.62172 15.4147 3.58837 15.4147 3.55502 15.4147L2.38784 15.473C1.14563 15.5314 0.0701595 14.581 0.00346358 13.3387C-0.0298844 12.6551 0.236899 12.0048 0.745455 11.5463L1.6125 10.7626C2.02101 10.3875 2.05436 9.75384 1.68753 9.337C1.66252 9.31198 1.63751 9.28697 1.6125 9.26196L0.745455 8.46995C0.295258 8.06977 0.0368115 7.51953 0.00346358 6.91093C-0.0298844 6.31067 0.17854 5.72708 0.587053 5.28522C1.03725 4.785 1.69587 4.50154 2.37117 4.54323L3.53835 4.60159C4.08025 4.6266 4.57213 4.20141 4.59714 3.65117C4.59714 3.61782 4.59714 3.57614 4.59714 3.54279L4.53878 2.37561C4.48043 1.1334 5.44752 0.0746055 6.68973 0.00790966C7.35669 -0.0337753 8.00697 0.241345 8.4655 0.741564L9.24918 1.60861C9.62434 2.01712 10.258 2.05047 10.6665 1.68364C10.6915 1.65863 10.7165 1.63362 10.7415 1.60861L11.5335 0.741564C12.3672 -0.183841 13.7928 -0.250537 14.7182 0.583162C15.2268 1.0417 15.4936 1.69198 15.4602 2.37561L15.4019 3.54279C15.3769 4.09303 15.8021 4.56824 16.3606 4.60159C16.394 4.60159 16.4273 4.60159 16.4607 4.60159L17.6279 4.54323C18.2281 4.50988 18.8117 4.71831 19.2536 5.12682C19.7038 5.53533 19.9622 6.08557 19.9956 6.68583C20.0289 7.36947 19.7621 8.01975 19.2536 8.46995L18.3865 9.25363C17.978 9.62879 17.9447 10.2624 18.3115 10.6793C18.3365 10.7043 18.3615 10.7293 18.3865 10.7543L19.2536 11.538C19.7038 11.9465 19.9622 12.4967 19.9956 13.097C20.0289 13.6972 19.8205 14.2808 19.412 14.7227C18.9534 15.2312 18.3031 15.498 17.6195 15.4647L16.4523 15.4063C15.8938 15.373 15.4269 15.8065 15.3935 16.3567C15.3935 16.3901 15.3935 16.4234 15.3935 16.4568L15.4519 17.624C15.4769 18.2326 15.2685 18.8078 14.86 19.2497C14.4515 19.6915 13.8929 19.9583 13.2926 19.9833C12.6173 20.025 11.9754 19.7499 11.5252 19.2497L10.7415 18.3826C10.3663 17.9741 9.73273 17.9408 9.31588 18.3076C9.29087 18.3326 9.26585 18.3576 9.24084 18.3826L8.44883 19.2497C8.00697 19.7416 7.39003 19.9917 6.7731 19.9917L6.79811 20ZM3.5967 14.1641C3.5967 14.1641 3.67174 14.1641 3.71342 14.1641C4.31369 14.1975 4.87226 14.4559 5.27244 14.9061C5.67261 15.3563 5.88104 15.9316 5.84769 16.5318L5.78933 17.699C5.77266 17.9991 5.89771 18.2826 6.11447 18.491C6.52299 18.8662 7.16493 18.8328 7.5401 18.4243L8.32377 17.5573C8.3738 17.4989 8.43216 17.4489 8.48218 17.3989C9.40758 16.5652 10.8415 16.6402 11.6752 17.5656L12.4589 18.4326C12.659 18.6494 12.9341 18.7745 13.2426 18.7578C13.5094 18.7495 13.7595 18.6327 13.9429 18.4326C14.1263 18.2326 14.218 17.9741 14.2097 17.7073L14.1513 16.5402C14.1513 16.4651 14.1513 16.3817 14.1513 16.3067C14.218 15.0645 15.2768 14.1058 16.519 14.1641L17.6862 14.2225C17.9947 14.2391 18.2781 14.1141 18.4866 13.889C18.8617 13.4805 18.8284 12.8385 18.4115 12.4634L17.5445 11.6797C17.4861 11.6297 17.4361 11.5713 17.3777 11.5129C16.9776 11.0628 16.7691 10.4875 16.8025 9.88724C16.8358 9.28697 17.0943 8.7284 17.5445 8.32822L18.4115 7.54454C18.6366 7.34446 18.7533 7.05266 18.745 6.74419C18.7283 6.47741 18.6116 6.2273 18.4115 6.04389C18.2114 5.86047 17.953 5.76877 17.6862 5.78544L16.519 5.8438C16.444 5.8438 16.369 5.8438 16.2939 5.8438C15.0517 5.78544 14.093 4.71831 14.1513 3.4761L14.2097 2.30892C14.2264 2.00879 14.1013 1.71699 13.8762 1.50857C13.4677 1.1334 12.8257 1.16675 12.4506 1.5836L11.6586 2.45065C11.6085 2.50901 11.5502 2.56736 11.4918 2.61739C10.5664 3.45108 9.1408 3.37605 8.3071 2.45065L7.52342 1.5836C7.32334 1.3585 7.03154 1.24178 6.73141 1.25846C6.17283 1.28347 5.74765 1.75868 5.77266 2.30892L5.83102 3.4761C5.83102 3.55113 5.83102 3.6345 5.83102 3.70953C5.76432 4.95174 4.70552 5.9105 3.45498 5.8438L2.2878 5.78544C1.996 5.76877 1.69587 5.89382 1.49578 6.11892C1.12062 6.52743 1.15397 7.16938 1.56248 7.54454L2.42953 8.33656C2.48789 8.38658 2.53791 8.4366 2.58793 8.49496C3.42163 9.42037 3.35493 10.8543 2.42953 11.688L1.56248 12.4717C1.33738 12.6718 1.22066 12.9636 1.23734 13.2721C1.25401 13.5388 1.37073 13.7889 1.57082 13.964C1.7709 14.1474 2.02101 14.2391 2.29613 14.2225L3.46331 14.1641C3.46331 14.1641 3.53835 14.1641 3.58003 14.1641H3.5967Z"
    fill="currentColor" />
  <path
    d="M9.99951 14.3892C7.58178 14.3892 5.62259 12.43 5.62259 10.0123C5.62259 7.59457 7.58178 5.63537 9.99951 5.63537C12.4172 5.63537 14.3764 7.59457 14.3764 10.0123C14.3764 12.43 12.4172 14.3892 9.99951 14.3892ZM9.99951 6.88592C8.27375 6.88592 6.87314 8.28654 6.87314 10.0123C6.87314 11.738 8.27375 13.1387 9.99951 13.1387C11.7253 13.1387 13.1259 11.738 13.1259 10.0123C13.1259 8.28654 11.7253 6.88592 9.99951 6.88592Z"
    fill="currentColor" />
</svg>