<svg width="24" height="24" viewBox="0 0 24 24" fill="none" xmlns="http://www.w3.org/2000/svg">
  <path fill-rule="evenodd" clip-rule="evenodd"
    d="M11.375 3.25C10.5462 3.25 9.75134 3.57924 9.16529 4.16529C8.71875 4.61183 8.42131 5.1796 8.305 5.79123C9.54626 5.94237 10.7091 6.50419 11.6025 7.39752C12.6574 8.45242 13.25 9.88316 13.25 11.375V16.375C13.25 17.8668 12.6574 19.2976 11.6025 20.3525C10.5476 21.4074 9.11684 22 7.625 22C6.13316 22 4.70242 21.4074 3.64752 20.3525C2.59263 19.2976 2 17.8668 2 16.375V11.375C2 9.88316 2.59263 8.45242 3.64752 7.39752C4.56375 6.4813 5.76351 5.91379 7.04057 5.78043C7.1696 4.83971 7.60237 3.96044 8.28141 3.28141C9.10188 2.46094 10.2147 2 11.375 2C12.5353 2 13.6481 2.46094 14.4686 3.28141C15.2891 4.10188 15.75 5.21468 15.75 6.375V8.25C15.75 8.91304 16.0134 9.54893 16.4822 10.0178C16.9511 10.4866 17.587 10.75 18.25 10.75C18.913 10.75 19.5489 10.4866 20.0178 10.0178C20.4866 9.54893 20.75 8.91304 20.75 8.25V2.625C20.75 2.27982 21.0298 2 21.375 2C21.7202 2 22 2.27982 22 2.625V8.25C22 9.24456 21.6049 10.1984 20.9017 10.9016C20.1984 11.6049 19.2446 12 18.25 12C17.2554 12 16.3016 11.6049 15.5983 10.9016C14.8951 10.1984 14.5 9.24456 14.5 8.25V6.375C14.5 5.5462 14.1708 4.75134 13.5847 4.16529C12.9987 3.57924 12.2038 3.25 11.375 3.25ZM7 7.04485C6.07076 7.17897 5.20312 7.6097 4.53141 8.28141C3.71094 9.10188 3.25 10.2147 3.25 11.375V12H7V7.04485ZM3.25 13.25V16.375C3.25 17.5353 3.71094 18.6481 4.53141 19.4686C5.35188 20.2891 6.46468 20.75 7.625 20.75C8.78532 20.75 9.89812 20.2891 10.7186 19.4686C11.5391 18.6481 12 17.5353 12 16.375V13.25H3.25ZM12 12H8.25V7.04485C9.17924 7.17897 10.0469 7.6097 10.7186 8.28141C11.5391 9.10188 12 10.2147 12 11.375V12Z"
    fill="currentColor" />
</svg>