<svg xmlns="http://www.w3.org/2000/svg" width="20" height="15" viewBox="0 0 20 15" fill="none">
  <path fill-rule="evenodd" clip-rule="evenodd"
    d="M9.56843 0.178761C9.80678 -0.059587 10.1932 -0.059587 10.4316 0.178761L14.1874 3.93463C14.4258 4.17298 14.4258 4.55942 14.1874 4.79777C13.9491 5.03611 13.5626 5.03611 13.3243 4.79777L10.6103 2.08379V10.626C10.6103 10.9631 10.3371 11.2363 10 11.2363C9.66292 11.2363 9.38967 10.9631 9.38967 10.626V2.08379L6.6757 4.79777C6.43735 5.03611 6.05091 5.03611 5.81256 4.79777C5.57422 4.55942 5.57422 4.17298 5.81256 3.93463L9.56843 0.178761ZM0.610329 10.0156C0.947404 10.0156 1.22066 10.2889 1.22066 10.626V11.8779C1.22066 12.3801 1.42016 12.8618 1.77528 13.2169C2.13039 13.572 2.61203 13.7715 3.11424 13.7715H16.8858C17.388 13.7715 17.8696 13.572 18.2247 13.2169C18.5798 12.8618 18.7793 12.3801 18.7793 11.8779V10.626C18.7793 10.2889 19.0526 10.0156 19.3897 10.0156C19.7267 10.0156 20 10.2889 20 10.626V11.8779C20 12.7039 19.6719 13.496 19.0879 14.08C18.5038 14.6641 17.7117 14.9922 16.8858 14.9922H3.11424C2.28829 14.9922 1.49617 14.6641 0.91214 14.08C0.328107 13.496 0 12.7039 0 11.8779V10.626C0 10.2889 0.273253 10.0156 0.610329 10.0156Z"
    fill="currentColor" />
</svg>