<svg width="24" height="24" viewBox="0 0 24 24" fill="none" xmlns="http://www.w3.org/2000/svg">
<path d="M11.3185 14.5C11.1391 14.5 10.967 14.4342 10.8401 14.3169C10.7132 14.1997 10.6419 14.0408 10.6419 13.875C10.6419 13.7092 10.7132 13.5503 10.8401 13.4331C10.967 13.3158 11.1391 13.25 11.3185 13.25H16.0546C16.234 13.25 16.4061 13.3158 16.533 13.4331C16.6599 13.5503 16.7312 13.7092 16.7312 13.875C16.7312 14.0408 16.6599 14.1997 16.533 14.3169C16.4061 14.4342 16.234 14.5 16.0546 14.5H11.3185Z" fill="var(--cx-icon-color)"/>
<path d="M11.3185 18.25C11.1391 18.25 10.967 18.1842 10.8401 18.0669C10.7132 17.9497 10.6419 17.7908 10.6419 17.625C10.6419 17.4592 10.7132 17.3003 10.8401 17.1831C10.967 17.0658 11.1391 17 11.3185 17H16.0546C16.234 17 16.4061 17.0658 16.533 17.1831C16.6599 17.3003 16.7312 17.4592 16.7312 17.625C16.7312 17.7908 16.6599 17.9497 16.533 18.0669C16.4061 18.1842 16.234 18.25 16.0546 18.25H11.3185Z" fill="var(--cx-icon-color)"/>
<path d="M8.6124 14.8125C9.1729 14.8125 9.62728 14.3928 9.62728 13.875C9.62728 13.3572 9.1729 12.9375 8.6124 12.9375C8.0519 12.9375 7.59753 13.3572 7.59753 13.875C7.59753 14.3928 8.0519 14.8125 8.6124 14.8125Z" fill="var(--cx-icon-color)"/>
<path d="M11.3185 10.75C11.1391 10.75 10.967 10.6842 10.8401 10.5669C10.7132 10.4497 10.6419 10.2908 10.6419 10.125C10.6419 9.95924 10.7132 9.80027 10.8401 9.68306C10.967 9.56585 11.1391 9.5 11.3185 9.5H16.0546C16.234 9.5 16.4061 9.56585 16.533 9.68306C16.6599 9.80027 16.7312 9.95924 16.7312 10.125C16.7312 10.2908 16.6599 10.4497 16.533 10.5669C16.4061 10.6842 16.234 10.75 16.0546 10.75H11.3185Z" fill="var(--cx-icon-color)"/>
<path d="M8.6124 11.0625C9.1729 11.0625 9.62728 10.6428 9.62728 10.125C9.62728 9.60723 9.1729 9.1875 8.6124 9.1875C8.0519 9.1875 7.59753 9.60723 7.59753 10.125C7.59753 10.6428 8.0519 11.0625 8.6124 11.0625Z" fill="var(--cx-icon-color)"/>
<path d="M8.6124 18.5625C9.1729 18.5625 9.62728 18.1428 9.62728 17.625C9.62728 17.1072 9.1729 16.6875 8.6124 16.6875C8.0519 16.6875 7.59753 17.1072 7.59753 17.625C7.59753 18.1428 8.0519 18.5625 8.6124 18.5625Z" fill="var(--cx-icon-color)"/>
<path d="M5.22949 22C4.69131 21.9996 4.17531 21.8019 3.79476 21.4503C3.41422 21.0988 3.20022 20.6221 3.19974 20.125V7C3.20022 6.50285 3.41422 6.0262 3.79476 5.67466C4.17531 5.32313 4.69131 5.12544 5.22949 5.125H7.99265C8.31831 3.35167 10.0197 2 11.9953 2C13.9709 2 15.6723 3.35083 15.998 5.125H18.7611C19.2993 5.12544 19.8153 5.32313 20.1959 5.67466C20.5764 6.0262 20.7904 6.50285 20.7909 7V20.125C20.7904 20.6221 20.5764 21.0988 20.1959 21.4503C19.8153 21.8019 19.2993 21.9996 18.7611 22H5.22949ZM5.22949 6.375C5.05005 6.375 4.87795 6.44085 4.75107 6.55806C4.62419 6.67527 4.5529 6.83424 4.5529 7V20.125C4.5529 20.47 4.85601 20.75 5.22949 20.75H18.7611C18.9406 20.75 19.1127 20.6842 19.2396 20.5669C19.3664 20.4497 19.4377 20.2908 19.4377 20.125V7C19.4377 6.83424 19.3664 6.67527 19.2396 6.55806C19.1127 6.44085 18.9406 6.375 18.7611 6.375H15.3782C15.1988 6.375 15.0267 6.30915 14.8998 6.19194C14.7729 6.07473 14.7016 5.91576 14.7016 5.75C14.7016 4.37167 13.4874 3.25 11.9953 3.25C10.5032 3.25 9.28898 4.37167 9.28898 5.75C9.28898 5.91576 9.2177 6.07473 9.09082 6.19194C8.96393 6.30915 8.79184 6.375 8.6124 6.375H5.22949Z" fill="var(--cx-icon-color)"/>
<path d="M11.9951 6.375C12.5556 6.375 13.01 5.95527 13.01 5.4375C13.01 4.91973 12.5556 4.5 11.9951 4.5C11.4346 4.5 10.9802 4.91973 10.9802 5.4375C10.9802 5.95527 11.4346 6.375 11.9951 6.375Z" fill="var(--cx-icon-color)"/>
</svg>
