<svg xmlns="http://www.w3.org/2000/svg" width="19" height="20" viewBox="0 0 19 20" fill="none">
  <path
    d="M8.92026 12.5C8.74082 12.5 8.56873 12.4342 8.44184 12.3169C8.31496 12.1997 8.24367 12.0408 8.24367 11.875C8.24367 11.7092 8.31496 11.5503 8.44184 11.4331C8.56873 11.3158 8.74082 11.25 8.92026 11.25H13.6563C13.8358 11.25 14.0079 11.3158 14.1348 11.4331C14.2616 11.5503 14.3329 11.7092 14.3329 11.875C14.3329 12.0408 14.2616 12.1997 14.1348 12.3169C14.0079 12.4342 13.8358 12.5 13.6563 12.5H8.92026Z"
    fill="currentColor" />
  <path
    d="M8.92026 16.25C8.74082 16.25 8.56873 16.1842 8.44184 16.0669C8.31496 15.9497 8.24367 15.7908 8.24367 15.625C8.24367 15.4592 8.31496 15.3003 8.44184 15.1831C8.56873 15.0658 8.74082 15 8.92026 15H13.6563C13.8358 15 14.0079 15.0658 14.1348 15.1831C14.2616 15.3003 14.3329 15.4592 14.3329 15.625C14.3329 15.7908 14.2616 15.9497 14.1348 16.0669C14.0079 16.1842 13.8358 16.25 13.6563 16.25H8.92026Z"
    fill="currentColor" />
  <path
    d="M6.21415 12.8125C6.77465 12.8125 7.22902 12.3928 7.22902 11.875C7.22902 11.3572 6.77465 10.9375 6.21415 10.9375C5.65365 10.9375 5.19927 11.3572 5.19927 11.875C5.19927 12.3928 5.65365 12.8125 6.21415 12.8125Z"
    fill="currentColor" />
  <path
    d="M8.92026 8.75C8.74082 8.75 8.56873 8.68415 8.44184 8.56694C8.31496 8.44973 8.24367 8.29076 8.24367 8.125C8.24367 7.95924 8.31496 7.80027 8.44184 7.68306C8.56873 7.56585 8.74082 7.5 8.92026 7.5H13.6563C13.8358 7.5 14.0079 7.56585 14.1348 7.68306C14.2616 7.80027 14.3329 7.95924 14.3329 8.125C14.3329 8.29076 14.2616 8.44973 14.1348 8.56694C14.0079 8.68415 13.8358 8.75 13.6563 8.75H8.92026Z"
    fill="currentColor" />
  <path
    d="M6.21415 9.0625C6.77465 9.0625 7.22902 8.64277 7.22902 8.125C7.22902 7.60723 6.77465 7.1875 6.21415 7.1875C5.65365 7.1875 5.19927 7.60723 5.19927 8.125C5.19927 8.64277 5.65365 9.0625 6.21415 9.0625Z"
    fill="currentColor" />
  <path
    d="M6.21415 16.5625C6.77465 16.5625 7.22902 16.1428 7.22902 15.625C7.22902 15.1072 6.77465 14.6875 6.21415 14.6875C5.65365 14.6875 5.19927 15.1072 5.19927 15.625C5.19927 16.1428 5.65365 16.5625 6.21415 16.5625Z"
    fill="currentColor" />
  <path
    d="M2.83123 20C2.29306 19.9996 1.77706 19.8019 1.39651 19.4503C1.01596 19.0988 0.801961 18.6221 0.801483 18.125V5C0.801961 4.50285 1.01596 4.0262 1.39651 3.67466C1.77706 3.32313 2.29306 3.12544 2.83123 3.125H5.5944C5.92006 1.35167 7.62144 0 9.59706 0C11.5727 0 13.2741 1.35083 13.5997 3.125H16.3629C16.9011 3.12544 17.4171 3.32313 17.7976 3.67466C18.1782 4.0262 18.3922 4.50285 18.3926 5V18.125C18.3922 18.6221 18.1782 19.0988 17.7976 19.4503C17.4171 19.8019 16.9011 19.9996 16.3629 20H2.83123ZM2.83123 4.375C2.65179 4.375 2.4797 4.44085 2.35282 4.55806C2.22593 4.67527 2.15465 4.83424 2.15465 5V18.125C2.15465 18.47 2.45776 18.75 2.83123 18.75H16.3629C16.5423 18.75 16.7144 18.6842 16.8413 18.5669C16.9682 18.4497 17.0395 18.2908 17.0395 18.125V5C17.0395 4.83424 16.9682 4.67527 16.8413 4.55806C16.7144 4.44085 16.5423 4.375 16.3629 4.375H12.98C12.8005 4.375 12.6284 4.30915 12.5016 4.19194C12.3747 4.07473 12.3034 3.91576 12.3034 3.75C12.3034 2.37167 11.0892 1.25 9.59706 1.25C8.10497 1.25 6.89073 2.37167 6.89073 3.75C6.89073 3.91576 6.81945 4.07473 6.69256 4.19194C6.56568 4.30915 6.39359 4.375 6.21415 4.375H2.83123Z"
    fill="currentColor" />
  <path
    d="M9.59683 4.375C10.1573 4.375 10.6117 3.95527 10.6117 3.4375C10.6117 2.91973 10.1573 2.5 9.59683 2.5C9.03633 2.5 8.58195 2.91973 8.58195 3.4375C8.58195 3.95527 9.03633 4.375 9.59683 4.375Z"
    fill="currentColor" />
</svg>