<svg width="24" height="24" viewBox="0 0 24 24" fill="none" xmlns="http://www.w3.org/2000/svg">
<path fill-rule="evenodd" clip-rule="evenodd" d="M15.6665 3.7227C15.2825 3.56557 14.871 3.4865 14.456 3.49011C14.0411 3.49371 13.631 3.57992 13.2498 3.7437C12.8685 3.90747 12.5237 4.14554 12.2354 4.44401L12.2278 4.45185L4.71447 11.9642C4.71446 11.9643 4.71448 11.9642 4.71447 11.9642C3.7768 12.9019 3.25 14.1737 3.25 15.4998C3.25 16.8259 3.77678 18.0977 4.71447 19.0353C5.65216 19.973 6.92393 20.4998 8.25002 20.4998C9.5761 20.4998 10.8479 19.973 11.7856 19.0354C11.7855 19.0354 11.7856 19.0354 11.7856 19.0354L20.933 9.88705C21.1771 9.64296 21.5728 9.64295 21.8169 9.88701C22.061 10.1311 22.061 10.5268 21.817 10.7709L12.6695 19.9192C11.4974 21.0913 9.90763 21.7498 8.25002 21.7498C6.59241 21.7498 5.0027 21.0913 3.83059 19.9192C2.65848 18.7471 2 17.1574 2 15.4998C2 13.8422 2.65848 12.2525 3.83059 11.0804L11.3402 3.57154C11.743 3.15559 12.2244 2.82372 12.7564 2.59518C13.2902 2.36589 13.8643 2.2452 14.4452 2.24016C15.0261 2.23511 15.6022 2.3458 16.1398 2.56578C16.6775 2.78576 17.166 3.11062 17.5768 3.5214C17.9875 3.93218 18.3124 4.42065 18.5324 4.95832C18.7524 5.49599 18.8631 6.07209 18.858 6.653C18.853 7.23391 18.7323 7.80799 18.503 8.34176C18.2744 8.87377 17.9426 9.35511 17.5267 9.75788L10.0102 17.2785C9.53875 17.734 8.90722 17.986 8.25173 17.9804C7.59624 17.9748 6.96917 17.712 6.50557 17.2485C6.04198 16.7851 5.77896 16.1581 5.77316 15.5026C5.76736 14.8471 6.01925 14.2156 6.47457 13.744L6.48211 13.7362L13.9955 6.22045C14.2395 5.97633 14.6353 5.97626 14.8794 6.2203C15.1235 6.46434 15.1236 6.86006 14.8795 7.10418L7.37042 14.6158C7.1449 14.8512 7.02023 15.1654 7.02311 15.4916C7.02601 15.8193 7.15752 16.1328 7.38932 16.3645C7.62111 16.5962 7.93465 16.7277 8.26239 16.7305C8.58851 16.7332 8.90272 16.6085 9.13805 16.3829L16.6541 8.86268C16.9526 8.57441 17.1907 8.22966 17.3545 7.84839C17.5182 7.46713 17.6044 7.05707 17.6081 6.64214C17.6117 6.2272 17.5326 5.8157 17.3755 5.43165C17.2183 5.0476 16.9863 4.69869 16.6929 4.40528C16.3995 4.11186 16.0506 3.87982 15.6665 3.7227Z" fill="var(--cx-icon-color)"/>
</svg>
