<svg width="24" height="24" viewBox="0 0 24 24" fill="none" xmlns="http://www.w3.org/2000/svg">
  <path fill-rule="evenodd" clip-rule="evenodd"
    d="M4.26151 9.72616C4.8553 5.8464 8.51217 3.38 12 3.38C12.0001 3.38 12.0001 3.38 12.0002 3.38C15.488 3.38009 19.1447 5.84647 19.7385 9.72616C20.2792 9.83419 20.7806 10.0998 21.1762 10.4954C21.7037 11.0229 22 11.7383 22 12.4842C22 13.2301 21.7037 13.9455 21.1762 14.4729C20.7563 14.8929 20.2171 15.1663 19.6383 15.2603C19.0954 16.7577 18.1229 18.0657 16.8382 19.0179C15.4385 20.0554 13.7423 20.6155 12 20.6155C10.2577 20.6155 8.5615 20.0554 7.16177 19.0179C5.87712 18.0657 4.90463 16.7577 4.36168 15.2603C3.78286 15.1663 3.24374 14.8929 2.82376 14.4729C2.29632 13.9455 2 13.2301 2 12.4842C2 11.7383 2.29632 11.0229 2.82376 10.4954C3.21941 10.0998 3.7208 9.83419 4.26151 9.72616ZM14.3635 5.06679C16.5548 5.88944 18.352 7.81588 18.5528 10.3461C18.5786 10.6711 18.8498 10.9217 19.1758 10.9217H19.1875C19.6019 10.9217 19.9993 11.0863 20.2924 11.3793C20.5854 11.6723 20.75 12.0698 20.75 12.4842C20.75 12.8986 20.5854 13.296 20.2924 13.589C19.9993 13.8821 19.6019 14.0467 19.1875 14.0467H19.1758C18.9007 14.0467 18.6579 14.2266 18.5778 14.4899C18.1491 15.9005 17.2783 17.1358 16.0939 18.0137C14.9095 18.8916 13.4743 19.3655 12 19.3655C10.5257 19.3655 9.0905 18.8916 7.90611 18.0137C6.72172 17.1358 5.8509 15.9005 5.42215 14.4899C5.34213 14.2266 5.09933 14.0467 4.82417 14.0467H4.8125C4.3981 14.0467 4.00067 13.8821 3.70765 13.589C3.41462 13.296 3.25 12.8986 3.25 12.4842C3.25 12.0698 3.41462 11.6723 3.70765 11.3793C4.00067 11.0863 4.3981 10.9217 4.8125 10.9217H4.82417C5.15017 10.9217 5.42142 10.6711 5.44721 10.3461C5.71733 6.9415 8.87808 4.6301 11.9998 4.63M14.3635 5.06679C14.472 5.38222 14.5167 5.71739 14.4935 6.05262C14.4618 6.50982 14.3051 6.94953 14.0405 7.32369C13.7758 7.69785 13.4134 7.99206 12.9928 8.17417C12.5723 8.35627 12.1097 8.41927 11.6558 8.35627C11.2018 8.29328 10.7739 8.10671 10.4189 7.81696C10.0638 7.52721 9.79518 7.14542 9.64241 6.71334C9.52735 6.3879 9.6979 6.03081 10.0233 5.91575C10.3488 5.80069 10.7059 5.97123 10.8209 6.29667C10.8973 6.51272 11.0316 6.70361 11.2091 6.84848C11.3867 6.99336 11.6006 7.08664 11.8276 7.11814C12.0546 7.14964 12.2858 7.11814 12.4961 7.02709C12.7064 6.93603 12.8876 6.78893 13.0199 6.60185C13.1523 6.41477 13.2306 6.19491 13.2465 5.96631C13.2623 5.73771 13.2149 5.50916 13.1097 5.30563C13.0044 5.1021 12.8451 4.93144 12.6494 4.81229C12.4537 4.69316 12.2291 4.63011 12 4.63M7.625 10.6092C7.97018 10.6092 8.25 10.889 8.25 11.2342C8.25 11.3999 8.31585 11.5589 8.43306 11.6761C8.55027 11.7933 8.70924 11.8592 8.875 11.8592C9.04076 11.8592 9.19973 11.7933 9.31694 11.6761C9.43415 11.5589 9.5 11.3999 9.5 11.2342C9.5 10.889 9.77982 10.6092 10.125 10.6092C10.4702 10.6092 10.75 10.889 10.75 11.2342C10.75 11.7315 10.5525 12.2084 10.2008 12.56C9.84919 12.9116 9.37228 13.1092 8.875 13.1092C8.37772 13.1092 7.90081 12.9116 7.54917 12.56C7.19754 12.2084 7 11.7315 7 11.2342C7 10.889 7.27982 10.6092 7.625 10.6092ZM13.875 10.6092C14.2202 10.6092 14.5 10.889 14.5 11.2342C14.5 11.3999 14.5658 11.5589 14.6831 11.6761C14.8003 11.7933 14.9592 11.8592 15.125 11.8592C15.2908 11.8592 15.4497 11.7933 15.5669 11.6761C15.6842 11.5589 15.75 11.3999 15.75 11.2342C15.75 10.889 16.0298 10.6092 16.375 10.6092C16.7202 10.6092 17 10.889 17 11.2342C17 11.7315 16.8025 12.2084 16.4508 12.56C16.0992 12.9116 15.6223 13.1092 15.125 13.1092C14.6277 13.1092 14.1508 12.9116 13.7992 12.56C13.4475 12.2084 13.25 11.7315 13.25 11.2342C13.25 10.889 13.5298 10.6092 13.875 10.6092ZM9.87786 15.8208C10.1061 15.5619 10.5011 15.5371 10.76 15.7654C11.1025 16.0673 11.5434 16.2339 12 16.2339C12.4566 16.2339 12.8975 16.0673 13.24 15.7654C13.4989 15.5371 13.8939 15.5619 14.1221 15.8208C14.3504 16.0798 14.3256 16.4747 14.0667 16.703C13.4958 17.2063 12.761 17.4839 12 17.4839C11.239 17.4839 10.5042 17.2063 9.93333 16.703C9.67442 16.4747 9.64958 16.0798 9.87786 15.8208Z"
    fill="currentColor" />
</svg>