<svg width="24" height="24" viewBox="0 0 24 24" fill="none" xmlns="http://www.w3.org/2000/svg">
<path fill-rule="evenodd" clip-rule="evenodd" d="M10.4952 2.00555C11.3117 1.96249 12.1217 2.17081 12.8161 2.60244C13.3183 2.91454 13.7424 3.33255 14.0609 3.82412C14.3531 3.70331 14.6614 3.62243 14.9775 3.58456C15.5213 3.5194 16.0729 3.58341 16.5873 3.77139C17.1018 3.95937 17.5647 4.26602 17.9384 4.66645C18.3122 5.06687 18.5862 5.54979 18.7383 6.07599L18.7385 6.07679C18.8433 6.44101 18.8893 6.81959 18.8749 7.19829C18.8746 7.20646 18.8741 7.21462 18.8735 7.22277C18.825 7.85005 18.5388 8.43515 18.0735 8.85859C17.7666 9.1379 17.3969 9.33298 17.0003 9.43035V9.49962H18.1139C19.1033 9.46492 20.0666 9.8221 20.7943 10.4938C21.525 11.1684 21.9586 12.1051 21.9999 13.0987C22.0003 13.1074 22.0005 13.116 22.0005 13.1247V14.6247C22.0005 14.6293 22.0004 14.6339 22.0003 14.6384C22.0002 14.6425 22.0001 14.6466 21.9999 14.6507C21.9586 15.6444 21.525 16.5811 20.7943 17.2556C20.0666 17.9273 19.1033 18.2845 18.1139 18.2498H17.0003V20.2087C17.0033 20.439 16.9613 20.6678 16.8766 20.882C16.7911 21.098 16.664 21.2951 16.5024 21.4619C16.3408 21.6288 16.148 21.7621 15.9348 21.8544C15.7217 21.9467 15.4925 21.9961 15.2602 21.9998L15.2503 22L6.23966 21.9999C5.7711 21.9921 5.32477 21.7987 4.99864 21.4621C4.67368 21.1268 4.4945 20.6767 4.50003 20.2099V10.3852C4.15184 10.2827 3.8207 10.126 3.51908 9.92C3.06248 9.60814 2.68666 9.19208 2.42269 8.70622C2.15871 8.22035 2.01417 7.67864 2.00099 7.12586C1.98781 6.57307 2.10639 6.02509 2.34692 5.5272C2.58744 5.02932 2.94301 4.59582 3.38423 4.26256C3.82546 3.92929 4.33966 3.70582 4.88434 3.61062C5.42903 3.51541 5.98855 3.55121 6.51666 3.71505C6.76551 3.79225 7.00401 3.89684 7.228 4.02632C7.48611 3.57097 7.83256 3.16824 8.24997 2.84327C8.89511 2.34099 9.67875 2.04861 10.4952 2.00555ZM5.75006 12.4613C6.07058 12.7267 6.437 12.9318 6.83162 13.0663C7.2736 13.217 7.74167 13.2759 8.2072 13.2395C8.21374 13.239 8.22028 13.2383 8.22681 13.2376C8.79799 13.1748 9.34509 12.973 9.82028 12.6499C10.2926 12.3287 10.6796 11.8975 10.9479 11.3934C11.1795 10.9855 11.3214 10.533 11.3642 10.0659L11.3646 10.0614C11.3776 9.90801 11.448 9.76512 11.5616 9.66128C11.6753 9.55745 11.824 9.50031 11.978 9.50127L11.9819 9.50128C12.4627 9.50128 12.9645 9.50192 13.4683 9.50257C14.2473 9.50357 15.0313 9.50457 15.7503 9.50322V10.1232C15.7503 10.1237 15.7503 10.1242 15.7503 10.1246C15.7503 10.1251 15.7503 10.1256 15.7503 10.1261V17.6234C15.7503 17.6239 15.7503 17.6243 15.7503 17.6248C15.7503 17.6253 15.7503 17.6258 15.7503 17.6262V20.2132L15.7504 20.2233C15.7515 20.2914 15.7392 20.359 15.7141 20.4223C15.6891 20.4856 15.6518 20.5434 15.6045 20.5923C15.5571 20.6412 15.5006 20.6803 15.4381 20.7073C15.3768 20.7339 15.3111 20.7483 15.2444 20.7499H6.25631C6.12033 20.7465 5.99103 20.6899 5.89629 20.5922C5.80058 20.4934 5.74797 20.3607 5.74999 20.2232L5.75006 12.4613ZM17.0003 16.9998H18.1254C18.1334 16.9998 18.1413 17 18.1493 17.0003C18.8125 17.0257 19.4587 16.7873 19.9464 16.3371C20.431 15.8897 20.7198 15.2696 20.7504 14.611V13.1384C20.7198 12.4799 20.431 11.8597 19.9464 11.4123C19.4587 10.9622 18.8125 10.7237 18.1493 10.7492C18.1413 10.7495 18.1334 10.7496 18.1254 10.7496H17.0003V16.9998ZM5.18366 9.25674C5.49929 9.28274 5.74932 9.54344 5.75656 9.86558C5.76324 10.1624 5.8304 10.4548 5.95393 10.7249C6.07747 10.9949 6.25479 11.2369 6.47505 11.436C6.69531 11.6352 6.95388 11.7873 7.23494 11.8831C7.5129 11.9779 7.80709 12.0156 8.09989 11.994C8.4646 11.9523 8.81378 11.8226 9.11743 11.6162C9.42379 11.4079 9.67447 11.1277 9.84757 10.8001C9.85082 10.794 9.85418 10.7879 9.85764 10.7818C10.0031 10.5276 10.0923 10.2451 10.1193 9.9535C10.1593 9.48755 10.3733 9.0537 10.7187 8.73827C11.0641 8.42273 11.5158 8.24888 11.9836 8.25125C11.9843 8.25126 11.9851 8.25126 11.9858 8.25127L11.9819 8.87627V8.25125C11.9825 8.25125 11.983 8.25125 11.9836 8.25125C12.4676 8.25125 12.9709 8.2519 13.4752 8.25255C14.4875 8.25384 15.504 8.25515 16.3775 8.25126L16.3909 8.25134C16.7015 8.25662 17.0024 8.14313 17.2322 7.93405C17.4591 7.7276 17.5997 7.44333 17.6262 7.13802C17.6261 7.14229 17.626 7.14656 17.6258 7.15083L18.2504 7.17456L17.6272 7.12636C17.6269 7.13025 17.6266 7.13414 17.6262 7.13802C17.6341 6.89637 17.6041 6.65496 17.5373 6.42254C17.4397 6.08538 17.2641 5.77596 17.0246 5.51937C16.785 5.26263 16.4882 5.06602 16.1583 4.9455C15.8285 4.82498 15.4749 4.78394 15.1262 4.82571C14.7775 4.86749 14.4436 4.9909 14.1515 5.18594C13.9971 5.28905 13.8049 5.31818 13.6268 5.26542C13.4488 5.21267 13.3035 5.0835 13.2302 4.91291C13.0083 4.39661 12.6335 3.96074 12.1562 3.66409C11.679 3.36743 11.1222 3.22425 10.5611 3.25385C9.99989 3.28344 9.4613 3.4844 9.01789 3.82961C8.57448 4.17483 8.24759 4.6477 8.08128 5.18448C8.01683 5.39252 7.84872 5.552 7.63758 5.60543C7.42644 5.65885 7.20272 5.59851 7.04707 5.44617C6.79368 5.19815 6.48491 5.01401 6.14627 4.90895C5.80762 4.80388 5.44884 4.78093 5.09957 4.84198C4.7503 4.90303 4.42058 5.04632 4.13765 5.26003C3.85472 5.47373 3.62672 5.7517 3.47248 6.07096C3.31825 6.39022 3.24222 6.74161 3.25066 7.09607C3.25911 7.45054 3.3518 7.7979 3.52107 8.10945C3.69034 8.421 3.93133 8.68779 4.22412 8.88777C4.51102 9.08373 4.83958 9.21003 5.18366 9.25674ZM12.6252 12.0497C12.9704 12.0497 13.2502 12.3295 13.2502 12.6747V17.8973C13.2502 18.2425 12.9704 18.5223 12.6252 18.5223C12.28 18.5223 12.0002 18.2425 12.0002 17.8973V12.6747C12.0002 12.3295 12.28 12.0497 12.6252 12.0497ZM8.87513 13.7906C9.22032 13.7906 9.50015 14.0704 9.50015 14.4156V17.8973C9.50015 18.2425 9.22032 18.5223 8.87513 18.5223C8.52995 18.5223 8.25012 18.2425 8.25012 17.8973V14.4156C8.25012 14.0704 8.52995 13.7906 8.87513 13.7906Z" fill="currentColor"/>
</svg>
