<svg xmlns="http://www.w3.org/2000/svg" width="20" height="19" viewBox="0 0 20 19" fill="none">
  <path fill-rule="evenodd" clip-rule="evenodd"
    d="M6.38012 0.601864C6.76549 0.216497 7.28816 0 7.83315 0H12.1668C12.7118 0 13.2345 0.216497 13.6199 0.601864C14.0052 0.987232 14.2217 1.5099 14.2217 2.05489V2.88913H19.3897C19.7267 2.88913 20 3.16238 20 3.49946C20 3.83653 19.7267 4.10979 19.3897 4.10979H17.1109V16.5005C17.1109 17.0455 16.8944 17.5682 16.509 17.9536C16.1236 18.3389 15.601 18.5554 15.056 18.5554H4.94402C4.39903 18.5554 3.87636 18.3389 3.49099 17.9536C3.10563 17.5682 2.88913 17.0455 2.88913 16.5005V4.10979H0.610329C0.273253 4.10979 0 3.83653 0 3.49946C0 3.16238 0.273253 2.88913 0.610329 2.88913H5.77826V2.05489C5.77826 1.5099 5.99476 0.987232 6.38012 0.601864ZM6.99892 2.88913H13.0011V2.05489C13.0011 1.83364 12.9132 1.62145 12.7567 1.465C12.6003 1.30855 12.3881 1.22066 12.1668 1.22066H7.83315C7.6119 1.22066 7.39971 1.30855 7.24326 1.465C7.08681 1.62145 6.99892 1.83364 6.99892 2.05489V2.88913ZM4.10979 4.10979V16.5005C4.10979 16.7218 4.19768 16.934 4.35413 17.0904C4.51058 17.2469 4.72277 17.3348 4.94402 17.3348H15.056C15.2772 17.3348 15.4894 17.2469 15.6459 17.0904C15.8023 16.934 15.8902 16.7218 15.8902 16.5005V4.10979H4.10979ZM7.83315 7.22282C8.17023 7.22282 8.44348 7.49608 8.44348 7.83315V13.6114C8.44348 13.9485 8.17023 14.2217 7.83315 14.2217C7.49608 14.2217 7.22282 13.9485 7.22282 13.6114V7.83315C7.22282 7.49608 7.49608 7.22282 7.83315 7.22282ZM12.1668 7.22282C12.5039 7.22282 12.7772 7.49608 12.7772 7.83315V13.6114C12.7772 13.9485 12.5039 14.2217 12.1668 14.2217C11.8298 14.2217 11.5565 13.9485 11.5565 13.6114V7.83315C11.5565 7.49608 11.8298 7.22282 12.1668 7.22282Z"
    fill="currentColor" />
</svg>