<svg width="24" height="24" viewBox="0 0 24 24" fill="none" xmlns="http://www.w3.org/2000/svg">
<path fill-rule="evenodd" clip-rule="evenodd" d="M8.38012 3.60186C8.76549 3.2165 9.28816 3 9.83315 3H14.1668C14.7118 3 15.2345 3.2165 15.6199 3.60186C16.0052 3.98723 16.2217 4.5099 16.2217 5.05489V5.88913H21.3897C21.7267 5.88913 22 6.16238 22 6.49946C22 6.83653 21.7267 7.10979 21.3897 7.10979H19.1109V19.5005C19.1109 20.0455 18.8944 20.5682 18.509 20.9536C18.1236 21.3389 17.601 21.5554 17.056 21.5554H6.94402C6.39903 21.5554 5.87636 21.3389 5.49099 20.9536C5.10563 20.5682 4.88913 20.0455 4.88913 19.5005V7.10979H2.61033C2.27325 7.10979 2 6.83653 2 6.49946C2 6.16238 2.27325 5.88913 2.61033 5.88913H7.77826V5.05489C7.77826 4.5099 7.99476 3.98723 8.38012 3.60186ZM8.99892 5.88913H15.0011V5.05489C15.0011 4.83364 14.9132 4.62145 14.7567 4.465C14.6003 4.30855 14.3881 4.22066 14.1668 4.22066H9.83315C9.6119 4.22066 9.39971 4.30855 9.24326 4.465C9.08681 4.62145 8.99892 4.83364 8.99892 5.05489V5.88913ZM6.10979 7.10979V19.5005C6.10979 19.7218 6.19768 19.934 6.35413 20.0904C6.51058 20.2469 6.72277 20.3348 6.94402 20.3348H17.056C17.2772 20.3348 17.4894 20.2469 17.6459 20.0904C17.8023 19.934 17.8902 19.7218 17.8902 19.5005V7.10979H6.10979ZM9.83315 10.2228C10.1702 10.2228 10.4435 10.4961 10.4435 10.8332V16.6114C10.4435 16.9485 10.1702 17.2217 9.83315 17.2217C9.49608 17.2217 9.22282 16.9485 9.22282 16.6114V10.8332C9.22282 10.4961 9.49608 10.2228 9.83315 10.2228ZM14.1668 10.2228C14.5039 10.2228 14.7772 10.4961 14.7772 10.8332V16.6114C14.7772 16.9485 14.5039 17.2217 14.1668 17.2217C13.8298 17.2217 13.5565 16.9485 13.5565 16.6114V10.8332C13.5565 10.4961 13.8298 10.2228 14.1668 10.2228Z" fill="var(--cx-icon-color)"/>
</svg>
