<svg width="24" height="24" viewBox="0 0 24 24" fill="none" xmlns="http://www.w3.org/2000/svg">
<g clip-path="url(#clip0_4736_6020)">
<path d="M17.6556 20.4844C17.402 20.738 17.0648 20.8774 16.7066 20.878C16.3523 20.8787 16.0043 20.7348 15.7533 20.4838L11.9981 17.0785L8.21756 20.5066C7.98619 20.738 7.64452 20.8768 7.29081 20.8768C6.93202 20.8768 6.59416 20.7367 6.34124 20.4825C6.08768 20.2289 5.94822 19.8917 5.94759 19.5336L5.94822 4.74169C5.94886 4.20478 6.15931 3.69894 6.54028 3.31797C6.91998 2.93827 7.42456 2.72781 7.95956 2.72655C7.9621 2.72655 16.036 2.72718 16.036 2.72718C16.5735 2.72718 17.08 2.937 17.4616 3.3186C17.8432 3.7002 18.053 4.20668 18.053 4.74422L18.0492 19.5329C18.0499 19.8911 17.9104 20.2296 17.6562 20.4838L17.6556 20.4844ZM7.48985 4.26881C7.36307 4.39558 7.29207 4.5642 7.29208 4.74296L7.29208 19.5329L11.5468 15.6738C11.8041 15.4405 12.1921 15.4405 12.4494 15.6738L16.68 19.5114L16.7073 19.5348L16.7079 4.74422C16.7085 4.56483 16.6375 4.39622 16.5108 4.26944C16.384 4.14266 16.2147 4.0723 16.036 4.0723L7.964 4.07103C7.78588 4.07166 7.61663 4.14203 7.48985 4.26881Z" fill="currentColor"/>
</g>
<defs>
<clipPath id="clip0_4736_6020">
<rect width="24" height="24" fill="white"/>
</clipPath>
</defs>
</svg>
