<svg width="24" height="24" viewBox="0 0 24 24" fill="none" xmlns="http://www.w3.org/2000/svg">
<path d="M12 21.989C11.575 21.989 11.1417 21.8475 10.7833 21.5726C8.75833 19.8568 6.31667 18.7824 3.70833 18.4576C2.73333 18.3326 2 17.4914 2 16.5169V7.17184C2 7.08023 2 6.98861 2.01667 6.89699C2.16667 5.82256 3.16667 5.06462 4.24167 5.22287C6.95 5.63932 9.48333 6.78871 11.5667 8.55445C11.8167 8.74602 12.1833 8.74602 12.45 8.53779C14.5167 6.78871 17.05 5.63932 19.75 5.22287C19.85 5.20621 19.9417 5.20621 20.0333 5.20621C20.5583 5.20621 21.0583 5.41444 21.425 5.78924C21.7917 6.16404 22 6.65545 22 7.18017V16.5253C22 17.5081 21.2667 18.341 20.3 18.4659C17.6917 18.7907 15.25 19.8652 13.2417 21.5643C13.2417 21.5643 13.225 21.5726 13.2167 21.5809C12.8583 21.8558 12.4333 21.9974 12 21.9974V21.989ZM3.96667 6.45555C3.61667 6.45555 3.30833 6.71375 3.25833 7.0719C3.25833 7.10521 3.25833 7.13853 3.25833 7.17184V16.5169C3.25833 16.8751 3.525 17.1749 3.875 17.2166C6.725 17.5747 9.39167 18.7408 11.5833 20.5981C11.825 20.7813 12.1917 20.7897 12.45 20.5898C14.6417 18.7408 17.3 17.5747 20.1417 17.2166C20.4917 17.1749 20.75 16.8667 20.75 16.5169V7.17184C20.75 6.98028 20.675 6.79704 20.5417 6.66378C20.3833 6.50553 20.1667 6.42224 19.9333 6.45555C17.4667 6.83869 15.15 7.88813 13.2417 9.50395C12.5083 10.0786 11.5 10.0786 10.7833 9.52061C8.85 7.88813 6.53333 6.83869 4.06667 6.45555C4.03333 6.45555 4 6.45555 3.96667 6.45555Z" fill="currentColor"/>
<path d="M11.9917 6.50553C11.5583 6.50553 11.1333 6.36394 10.775 6.08908C9.14167 4.73146 7.20833 3.74865 5.16667 3.23225C4.83333 3.14896 4.625 2.80748 4.71667 2.47432C4.8 2.14116 5.14167 1.94126 5.475 2.02455C7.7 2.58259 9.80833 3.65703 11.5667 5.12292C11.8167 5.31449 12.1917 5.31449 12.4583 5.10627C14.2 3.6487 16.3083 2.57426 18.5333 2.01623C18.8667 1.93294 19.2083 2.13283 19.2917 2.47432C19.375 2.80748 19.175 3.14896 18.8333 3.23225C16.7917 3.74032 14.85 4.72313 13.2333 6.07242C12.8667 6.35561 12.425 6.50553 11.9917 6.50553Z" fill="currentColor"/>
<path d="M12 21.989C11.6583 21.989 11.375 21.7059 11.375 21.3644V9.32071C11.375 8.97923 11.6583 8.69604 12 8.69604C12.3417 8.69604 12.625 8.97923 12.625 9.32071V21.3644C12.625 21.7059 12.3417 21.989 12 21.989Z" fill="currentColor"/>
</svg>
