<svg width="24" height="24" viewBox="0 0 24 24" fill="none" xmlns="http://www.w3.org/2000/svg">
<path d="M17.9003 21.5663C17.6209 21.8456 17.2493 21.9993 16.8547 22C16.4643 22.0007 16.0808 21.8421 15.8043 21.5656L11.6667 17.8135L7.50114 21.5907C7.2462 21.8456 6.86974 21.9986 6.48001 21.9986C6.08469 21.9986 5.71241 21.8442 5.43373 21.5642C5.15436 21.2848 5.0007 20.9132 5 20.5186L5.0007 4.22036C5.0014 3.62878 5.23328 3.07142 5.65305 2.65165C6.07142 2.23328 6.62738 2.0014 7.21687 2C7.21966 2 16.1158 2.0007 16.1158 2.0007C16.708 2.0007 17.2661 2.23189 17.6866 2.65235C18.107 3.07281 18.3382 3.63087 18.3382 4.22315L18.334 20.5179C18.3347 20.9125 18.1804 21.2862 17.9003 21.5663Z" fill="var(--cx-icon-color)"/>
</svg>
