<svg xmlns="http://www.w3.org/2000/svg" width="14" height="19" viewBox="0 0 14 19" fill="none">
  <path
    d="M12.6556 18.4844C12.402 18.7379 12.0648 18.8774 11.7067 18.878C11.3523 18.8787 11.0043 18.7348 10.7533 18.4837L6.9981 15.0785L3.21757 18.5066C2.9862 18.7379 2.64453 18.8768 2.29082 18.8768C1.93204 18.8768 1.59417 18.7367 1.34125 18.4825C1.08769 18.2289 0.948235 17.8917 0.947601 17.5335L0.948235 2.74167C0.948869 2.20477 1.15932 1.69892 1.54029 1.31795C1.91999 0.93825 2.42457 0.727798 2.95958 0.72653C2.96211 0.72653 11.036 0.727165 11.036 0.727165C11.5735 0.727165 12.08 0.936983 12.4616 1.31859C12.8432 1.70019 13.053 2.20667 13.053 2.74421L13.0492 17.5329C13.0499 17.8911 12.9104 18.2296 12.6562 18.4837L12.6556 18.4844ZM2.48986 2.26879C2.36308 2.39557 2.29209 2.56418 2.29209 2.74294L2.29209 17.5329L6.54677 13.6738C6.80413 13.4405 7.19207 13.4405 7.44943 13.6738L11.68 17.5114L11.7073 17.5348L11.7079 2.74421C11.7086 2.56482 11.6376 2.3962 11.5108 2.26942C11.384 2.14265 11.2148 2.07228 11.036 2.07228L2.96401 2.07102C2.78589 2.07165 2.61664 2.14201 2.48986 2.26879Z"
    fill="currentColor" />
</svg>