<svg width="24" height="24" viewBox="0 0 24 24" fill="none" xmlns="http://www.w3.org/2000/svg">
<path fill-rule="evenodd" clip-rule="evenodd" d="M3.875 3.25C3.70924 3.25 3.55027 3.31585 3.43306 3.43306C3.31585 3.55027 3.25 3.70924 3.25 3.875V16.375C3.25 16.5408 3.31585 16.6997 3.43306 16.8169C3.55027 16.9341 3.70924 17 3.875 17H6.375C6.72018 17 7 17.2798 7 17.625V20.125L11 17.125C11.1082 17.0439 11.2398 17 11.375 17H20.125C20.2908 17 20.4497 16.9341 20.5669 16.8169C20.6841 16.6997 20.75 16.5408 20.75 16.375V3.875C20.75 3.70924 20.6841 3.55027 20.5669 3.43306C20.4497 3.31585 20.2908 3.25 20.125 3.25H3.875ZM2.54917 2.54917C2.90081 2.19754 3.37772 2 3.875 2H20.125C20.6223 2 21.0992 2.19754 21.4508 2.54917C21.8025 2.9008 22 3.37772 22 3.875V16.375C22 16.8723 21.8025 17.3492 21.4508 17.7008C21.0992 18.0525 20.6223 18.25 20.125 18.25H11.5833L6.75 21.875C6.56061 22.017 6.30723 22.0399 6.09549 21.934C5.88375 21.8281 5.75 21.6117 5.75 21.375V18.25H3.875C3.37772 18.25 2.9008 18.0525 2.54917 17.7008C2.19754 17.3492 2 16.8723 2 16.375V3.875C2 3.37772 2.19754 2.90081 2.54917 2.54917Z" fill="var(--cx-icon-color)"/>
<path fill-rule="evenodd" clip-rule="evenodd" d="M12.125 7C12.4702 7 12.75 7.27982 12.75 7.625V9.5H14.625C14.9702 9.5 15.25 9.77982 15.25 10.125C15.25 10.4702 14.9702 10.75 14.625 10.75H12.75V12.625C12.75 12.9702 12.4702 13.25 12.125 13.25C11.7798 13.25 11.5 12.9702 11.5 12.625V10.75H9.625C9.27982 10.75 9 10.4702 9 10.125C9 9.77982 9.27982 9.5 9.625 9.5H11.5V7.625C11.5 7.27982 11.7798 7 12.125 7Z" fill="var(--cx-icon-color)"/>
</svg>
