<svg xmlns="http://www.w3.org/2000/svg" width="20" height="20" viewBox="0 0 20 20" fill="none">
  <path fill-rule="evenodd" clip-rule="evenodd"
    d="M10 1.25C5.16751 1.25 1.25 5.16751 1.25 10C1.25 14.8325 5.16751 18.75 10 18.75C14.8325 18.75 18.75 14.8325 18.75 10C18.75 5.16751 14.8325 1.25 10 1.25ZM0 10C0 4.47715 4.47715 0 10 0C15.5228 0 20 4.47715 20 10C20 15.5228 15.5228 20 10 20C4.47715 20 0 15.5228 0 10Z"
    fill="currentColor" />
  <path fill-rule="evenodd" clip-rule="evenodd"
    d="M15.7082 6.1563C16.0361 6.40937 16.0968 6.88036 15.8437 7.20827L10.5022 14.1293C10.3292 14.3562 10.1046 14.5388 9.84711 14.6618C9.59765 14.7809 9.33987 14.8463 9.01797 14.8367C8.80458 14.8303 8.59731 14.7662 8.49079 14.7304C8.42733 14.7091 8.37264 14.6883 8.33351 14.6727C8.31373 14.6648 8.29737 14.658 8.28522 14.6529L8.2701 14.6464L8.26499 14.6442L8.26308 14.6434L8.26193 14.6429C8.26193 14.6429 8.26161 14.6427 8.56385 13.9563L8.26193 14.6429C8.18664 14.6097 8.11699 14.5643 8.05641 14.5086L7.69256 14.1743C7.68688 14.1691 7.68128 14.1638 7.67577 14.1584L4.22577 10.7864C3.92955 10.4969 3.92412 10.022 4.21364 9.7258C4.50317 9.42958 4.97801 9.42415 5.27423 9.71368L8.71596 13.0776L8.96659 13.3079L8.96877 13.3086C9.01793 13.3251 9.04889 13.3324 9.06186 13.3354C9.07093 13.3375 9.07121 13.3376 9.06277 13.3373C9.10559 13.3386 9.12621 13.335 9.13611 13.3328C9.14636 13.3306 9.16444 13.3255 9.20057 13.3083C9.24354 13.2877 9.28098 13.2573 9.30979 13.2193L9.31325 13.2148L14.6563 6.2918C14.9093 5.96389 15.3803 5.90323 15.7082 6.1563Z"
    fill="currentColor" />
</svg>