<svg width="24" height="24" viewBox="0 0 24 24" fill="none" xmlns="http://www.w3.org/2000/svg">
<path fill-rule="evenodd" clip-rule="evenodd" d="M12 3.25C7.16751 3.25 3.25 7.16751 3.25 12C3.25 16.8325 7.16751 20.75 12 20.75C16.8325 20.75 20.75 16.8325 20.75 12C20.75 7.16751 16.8325 3.25 12 3.25ZM2 12C2 6.47715 6.47715 2 12 2C17.5228 2 22 6.47715 22 12C22 17.5228 17.5228 22 12 22C6.47715 22 2 17.5228 2 12Z" fill="currentColor"/>
<path fill-rule="evenodd" clip-rule="evenodd" d="M17.7082 8.1563C18.0361 8.40937 18.0968 8.88036 17.8437 9.20827L12.5022 16.1293C12.3292 16.3562 12.1046 16.5388 11.8471 16.6618C11.5977 16.7809 11.3399 16.8463 11.018 16.8367C10.8046 16.8303 10.5973 16.7662 10.4908 16.7304C10.4273 16.7091 10.3726 16.6883 10.3335 16.6727C10.3137 16.6648 10.2974 16.658 10.2852 16.6529L10.2701 16.6464L10.265 16.6442L10.2631 16.6434L10.2619 16.6429C10.2619 16.6429 10.2616 16.6427 10.5638 15.9563L10.2619 16.6429C10.1866 16.6097 10.117 16.5643 10.0564 16.5086L9.69256 16.1743C9.68688 16.1691 9.68128 16.1638 9.67577 16.1584L6.22577 12.7864C5.92955 12.4969 5.92412 12.022 6.21364 11.7258C6.50317 11.4296 6.97801 11.4242 7.27423 11.7137L10.716 15.0776L10.9666 15.3079L10.9688 15.3086C11.0179 15.3251 11.0489 15.3324 11.0619 15.3354C11.0709 15.3375 11.0712 15.3376 11.0628 15.3373C11.1056 15.3386 11.1262 15.335 11.1361 15.3328C11.1464 15.3306 11.1644 15.3255 11.2006 15.3083C11.2435 15.2877 11.281 15.2573 11.3098 15.2193L11.3132 15.2148L16.6563 8.2918C16.9093 7.96389 17.3803 7.90323 17.7082 8.1563Z" fill="currentColor"/>
</svg>
