<svg width="24" height="24" viewBox="0 0 24 24" fill="none" xmlns="http://www.w3.org/2000/svg">
<path d="M8.60682 16.9938C8.2653 16.9938 7.98208 16.7105 7.98208 16.369V14.4948C7.98208 13.2786 8.59849 12.1624 9.14826 11.1795C9.49812 10.5464 9.8563 9.89671 9.8563 9.49688C9.8563 9.15535 10.1395 8.87214 10.481 8.87214C10.8226 8.87214 11.1058 9.15535 11.1058 9.49688C11.1058 10.2132 10.681 10.9796 10.2395 11.7876C9.76467 12.6372 9.23156 13.6035 9.23156 14.4948V16.369C9.23156 16.7105 8.94835 16.9938 8.60682 16.9938Z" fill="currentColor"/>
<path d="M16.1037 16.9938C15.7622 16.9938 15.479 16.7105 15.479 16.369V9.49688C15.479 7.43107 13.7963 5.74844 11.7305 5.74844C11.389 5.74844 11.1058 5.46522 11.1058 5.1237C11.1058 4.69888 11.1058 3.49938 9.23156 3.2828V5.1237C9.23156 5.32362 9.1316 5.5152 8.97334 5.63182L5.64139 8.01416C5.35818 8.21408 5.29987 8.60558 5.49978 8.8888L6.07454 9.65514C6.23281 9.87172 6.51603 9.95502 6.77425 9.87172L9.66472 8.90546C9.73135 8.88047 9.79799 8.87214 9.86463 8.87214H11.7389C12.0804 8.87214 12.3636 9.15535 12.3636 9.49688C12.3636 9.8384 12.0804 10.1216 11.7389 10.1216H9.96459L7.16576 11.0546C6.39941 11.3128 5.55809 11.0546 5.07496 10.4048L4.50853 9.64681C3.88379 8.77218 4.07538 7.59767 4.91669 6.99792L7.99041 4.80716V2.62474C7.99041 2.28322 8.27363 2 8.61515 2C10.7143 2 12.0554 2.93294 12.3136 4.53228C14.7959 4.82382 16.7284 6.93961 16.7368 9.49688V16.369C16.7368 16.7105 16.4536 16.9938 16.112 16.9938H16.1037Z" fill="currentColor"/>
<path d="M18.1445 21.9917H6.56601C5.62473 21.9917 4.85838 21.2253 4.85838 20.284C4.85838 20.0925 4.8917 19.9009 4.96667 19.7176C5.23323 19.0179 6.2578 16.6689 8.37359 15.7943C8.44856 15.7609 8.53185 15.7443 8.61515 15.7443H16.112C16.1953 15.7443 16.2786 15.7609 16.3536 15.7943C18.4694 16.6689 19.494 19.0179 19.7605 19.7176C19.8271 19.9009 19.8688 20.0925 19.8605 20.2924C19.8605 21.2337 19.0941 22 18.1528 22L18.1445 21.9917ZM8.7401 16.9938C7.15743 17.7185 6.34943 19.5927 6.13285 20.1591C6.11619 20.2007 6.10786 20.2424 6.10786 20.284C6.10786 20.5339 6.31611 20.7422 6.56601 20.7422H18.1445C18.3944 20.7422 18.6027 20.5339 18.6027 20.284C18.6027 20.2424 18.6027 20.2007 18.5777 20.1591C18.3611 19.5927 17.5531 17.7185 15.9704 16.9938H8.7401Z" fill="currentColor"/>
</svg>
