<svg width="24" height="24" viewBox="0 0 24 24" fill="none" xmlns="http://www.w3.org/2000/svg">
<path fill-rule="evenodd" clip-rule="evenodd" d="M3.16475 3.16475C3.38442 2.94508 3.74058 2.94508 3.96025 3.16475L12 11.2045L20.0398 3.16475C20.2594 2.94508 20.6156 2.94508 20.8352 3.16475C21.0549 3.38442 21.0549 3.74058 20.8352 3.96025L12.7955 12L20.8352 20.0398C21.0549 20.2594 21.0549 20.6156 20.8352 20.8352C20.6156 21.0549 20.2594 21.0549 20.0398 20.8352L12 12.7955L3.96025 20.8352C3.74058 21.0549 3.38442 21.0549 3.16475 20.8352C2.94508 20.6156 2.94508 20.2594 3.16475 20.0398L11.2045 12L3.16475 3.96025C2.94508 3.74058 2.94508 3.38442 3.16475 3.16475Z" fill="var(--cx-icon-color)"/>
</svg>
