<svg width="24" height="24" viewBox="0 0 24 24" fill="none" xmlns="http://www.w3.org/2000/svg">
  <path
    d="M20.6464 6.97857C19.4434 4.90663 17.5366 3.33551 15.2729 2.55111C13.0092 1.76671 10.5392 1.82119 8.31225 2.70463C6.08535 3.58806 4.24961 5.24172 3.13912 7.36468C2.02863 9.48764 1.71721 11.9387 2.26152 14.272C2.80584 16.6052 4.16971 18.6655 6.10493 20.0778C8.04016 21.4902 10.4181 22.1607 12.806 21.9674C15.1939 21.7741 17.4331 20.7298 19.116 19.0246C20.7988 17.3193 21.8137 15.0666 21.9756 12.6762C21.9902 12.4517 22 12.2273 22 11.9981C22 11.7273 22 11.4566 21.9658 11.1907C21.8479 9.70543 21.3969 8.26574 20.6464 6.97857ZM20.5196 13.0322C20.2575 15.1852 19.1858 17.1576 17.5222 18.549C15.8586 19.9403 13.7278 20.6462 11.5627 20.5233C9.39743 20.4005 7.36018 19.458 5.86466 17.8873C4.36912 16.3167 3.52745 14.2357 3.51058 12.0669C3.49372 9.89812 4.30291 7.80423 5.77384 6.21051C7.24475 4.61679 9.2671 3.64274 11.4302 3.4862C13.5932 3.32965 15.7347 4.00233 17.4197 5.36764C19.1047 6.73295 20.207 8.68849 20.5026 10.8371C20.5085 10.8816 20.5048 10.9267 20.4918 10.9697C20.4788 11.0126 20.4568 11.0522 20.4272 11.086C20.3977 11.1197 20.3612 11.1467 20.3204 11.1652C20.2796 11.1837 20.2352 11.1932 20.1904 11.1932H16.537C16.4662 11.1928 16.3975 11.1685 16.3422 11.1242C16.2868 11.08 16.2481 11.0183 16.2322 10.9493C15.9747 9.92423 15.3496 9.02952 14.4756 8.43526C13.6017 7.841 12.5398 7.58862 11.492 7.7261C10.4441 7.8636 9.48331 8.38136 8.79223 9.18098C8.10114 9.98059 7.72795 11.0063 7.7436 12.0631C7.75925 13.1199 8.16266 14.1341 8.87713 14.9128C9.5916 15.6917 10.5673 16.1807 11.6187 16.2871C12.6702 16.3935 13.7242 16.1097 14.5801 15.4899C15.4361 14.87 16.0344 13.9572 16.2614 12.9249C16.277 12.8552 16.3161 12.793 16.372 12.7487C16.4279 12.7042 16.4973 12.6804 16.5687 12.681H20.2147C20.2585 12.6821 20.3016 12.6922 20.3412 12.7109C20.3807 12.7295 20.4161 12.7562 20.4447 12.7893C20.4734 12.8223 20.4949 12.861 20.5078 12.9028C20.5207 12.9447 20.5247 12.9887 20.5196 13.0322Z"
    fill="currentColor" />
</svg>