<svg width="24" height="24" viewBox="0 0 24 24" fill="none" xmlns="http://www.w3.org/2000/svg">
<path fill-rule="evenodd" clip-rule="evenodd" d="M2.18303 7.18308C2.4271 6.93899 2.82282 6.93897 3.06691 7.18304L12 16.1153L20.9331 7.18304C21.1772 6.93897 21.5729 6.93899 21.817 7.18308C22.061 7.42717 22.061 7.8229 21.8169 8.06696L12.8839 16.9991C12.8839 16.9991 12.8839 16.9991 12.8839 16.9991C12.7679 17.1153 12.6301 17.2075 12.4784 17.2704C12.3268 17.3333 12.1642 17.3656 12 17.3656C11.8358 17.3656 11.6732 17.3333 11.5215 17.2704C11.3699 17.2075 11.2321 17.1153 11.1161 16.9991C11.1161 16.9991 11.1161 16.9991 11.1161 16.9991L2.18307 8.06696C1.93898 7.8229 1.93896 7.42717 2.18303 7.18308Z" fill="currentColor"/>
</svg>
