<svg width="24" height="24" viewBox="0 0 24 24" fill="none" xmlns="http://www.w3.org/2000/svg">
  <path fill-rule="evenodd" clip-rule="evenodd"
    d="M12.2131 3C12.5582 3 12.8381 3.27982 12.8381 3.625V13.1957L15.6064 10.4274C15.8504 10.1833 16.2462 10.1833 16.4902 10.4274C16.7343 10.6715 16.7343 11.0672 16.4902 11.3113L12.655 15.1465C12.4109 15.3906 12.0152 15.3906 11.7711 15.1465L7.9359 11.3113C7.69182 11.0672 7.69182 10.6715 7.9359 10.4274C8.17998 10.1833 8.5757 10.1833 8.81978 10.4274L11.5881 13.1957V3.625C11.5881 3.27982 11.8679 3 12.2131 3ZM2.625 14.9129C2.97018 14.9129 3.25 15.1927 3.25 15.5379V16.9583C3.25 17.57 3.46454 18.143 3.82643 18.5543C4.18605 18.9629 4.65538 19.1742 5.125 19.1742H18.875C19.3446 19.1742 19.8139 18.9629 20.1736 18.5543C20.5355 18.143 20.75 17.57 20.75 16.9583V15.5379C20.75 15.1927 21.0298 14.9129 21.375 14.9129C21.7202 14.9129 22 15.1927 22 15.5379V16.9583C22 17.8536 21.6878 18.7257 21.112 19.3801C20.5339 20.0369 19.7315 20.4242 18.875 20.4242H5.125C4.26854 20.4242 3.4661 20.0369 2.88804 19.3801C2.31224 18.7257 2 17.8536 2 16.9583V15.5379C2 15.1927 2.27982 14.9129 2.625 14.9129Z"
    fill="currentColor" />
</svg>