<svg width="24" height="24" viewBox="0 0 24 24" fill="none" xmlns="http://www.w3.org/2000/svg">
<path d="M2.62503 22.0005C2.45912 22.0001 2.30008 21.9342 2.18251 21.8172C2.10613 21.7402 2.05095 21.6449 2.02233 21.5403C1.99371 21.4358 1.99262 21.3256 2.01918 21.2205L3.49421 15.4662C3.50411 15.4316 3.51665 15.3979 3.53171 15.3653C3.56177 15.2961 3.60444 15.2331 3.65755 15.1795L15.7629 3.0742C16.1008 2.73332 16.503 2.46286 16.9461 2.27847C17.3893 2.09408 17.8646 1.99943 18.3446 2C19.3263 2 20.2421 2.37835 20.933 3.06586L20.9571 3.09003C21.2942 3.43316 21.5598 3.83969 21.7388 4.28612C21.9177 4.73255 22.0064 5.21002 21.9997 5.69093C21.9956 6.17118 21.8963 6.64585 21.7075 7.08745C21.5186 7.52904 21.2441 7.92877 20.8996 8.26349L8.82101 20.3421C8.76558 20.3967 8.70025 20.4403 8.62851 20.4705C8.5986 20.4845 8.56768 20.4962 8.53601 20.5055L2.7792 21.9822C2.72873 21.9945 2.67697 22.0006 2.62503 22.0005ZM3.49255 20.508L7.16764 19.5654L4.4334 16.8362L3.49255 20.508ZM8.38267 19.0121L19.2329 8.16182L15.8379 4.76674L4.98508 15.6203L8.38267 19.0121ZM20.1155 7.2768C20.5314 6.82306 20.7579 6.22743 20.7488 5.61199C20.7397 4.99655 20.4955 4.40791 20.0663 3.96672L20.0496 3.95005C19.8267 3.72737 19.562 3.5509 19.2707 3.43077C18.9793 3.31065 18.6672 3.24923 18.3521 3.25003V2.93753L18.3513 3.25003C17.7478 3.24894 17.1663 3.47574 16.7229 3.88505L20.1155 7.2768Z" fill="currentColor"/>
</svg>
