<svg width="24" height="24" viewBox="0 0 24 24" fill="none" xmlns="http://www.w3.org/2000/svg">
<path fill-rule="evenodd" clip-rule="evenodd" d="M7.76167 2.94261C9.80199 1.98786 12.1049 1.74996 14.2973 2.26747C16.4897 2.78497 18.4432 4.02756 19.8412 5.79391C21.2392 7.56026 21.9999 9.7469 22 11.9996V13.8747C22 14.7036 21.6707 15.4985 21.0846 16.0846C20.4985 16.6707 19.7036 17 18.8747 17C18.0459 17 17.2509 16.6707 16.6648 16.0846C16.3625 15.7823 16.1286 15.4245 15.9729 15.035C15.4389 15.734 14.7288 16.2813 13.9127 16.6194C12.999 16.9978 11.9936 17.0969 11.0236 16.9039C10.0537 16.711 9.16267 16.2347 8.46335 15.5354C7.76403 14.8361 7.28778 13.9451 7.09484 12.9751C6.9019 12.0051 7.00092 10.9997 7.37939 10.086C7.75786 9.1723 8.39878 8.39135 9.22109 7.84189C10.0434 7.29244 11.0102 6.99917 11.9992 6.99917C13.3254 6.99917 14.5972 7.526 15.535 8.46376C16.4728 9.40152 16.9996 10.6734 16.9996 11.9996V13.8747C16.9996 14.3721 17.1971 14.849 17.5488 15.2007C17.9005 15.5523 18.3774 15.7499 18.8747 15.7499C19.3721 15.7499 19.849 15.5523 20.2007 15.2007C20.5523 14.849 20.7499 14.3721 20.7499 13.8747V11.9996C20.7499 11.9996 20.7499 11.9996 20.7499 11.9996C20.7498 10.0286 20.0842 8.11527 18.861 6.56974C17.6377 5.0242 15.9285 3.93695 14.0101 3.48414C12.0918 3.03132 10.0768 3.23948 8.29151 4.07488C6.50625 4.91027 5.05535 6.32397 4.17387 8.08693C3.29239 9.84989 3.03197 11.8588 3.43481 13.7883C3.83764 15.7177 4.88014 17.4546 6.39339 18.7176C7.90664 19.9806 9.80199 20.6957 11.7724 20.7469C13.7428 20.7982 15.6727 20.1827 17.2496 19.0001C17.5258 18.793 17.9176 18.849 18.1247 19.1252C18.3318 19.4014 18.2758 19.7932 17.9996 20.0003C16.1975 21.3518 13.9917 22.0552 11.7399 21.9966C9.48796 21.938 7.32181 21.1208 5.59236 19.6774C3.86292 18.234 2.67148 16.2489 2.21109 14.0438C1.7507 11.8387 2.04832 9.54271 3.05574 7.52787C4.06316 5.51303 5.72135 3.89736 7.76167 2.94261ZM15.7495 11.9996C15.7495 11.0049 15.3544 10.051 14.651 9.34772C13.9477 8.6444 12.9938 8.24928 11.9992 8.24928C11.2574 8.24928 10.5323 8.46923 9.91561 8.88132C9.29888 9.29341 8.81819 9.87913 8.53434 10.5644C8.25049 11.2497 8.17622 12.0037 8.32092 12.7312C8.46563 13.4587 8.82281 14.127 9.3473 14.6515C9.87179 15.1759 10.54 15.5331 11.2675 15.6778C11.995 15.8225 12.7491 15.7483 13.4344 15.4644C14.1196 15.1806 14.7054 14.6999 15.1174 14.0831C15.5295 13.4664 15.7495 12.7413 15.7495 11.9996Z" fill="currentColor"/>
</svg>
