<svg width="24" height="24" viewBox="0 0 24 24" fill="none" xmlns="http://www.w3.org/2000/svg">
<path fill-rule="evenodd" clip-rule="evenodd" d="M11.4792 15.283C11.6333 15.18 11.8146 15.125 12 15.125C12.2486 15.125 12.4871 15.2238 12.6629 15.3996C12.8387 15.5754 12.9375 15.8139 12.9375 16.0625C12.9375 16.2479 12.8825 16.4292 12.7795 16.5833C12.6765 16.7375 12.5301 16.8577 12.3588 16.9286C12.1875 16.9996 11.999 17.0182 11.8171 16.982C11.6352 16.9458 11.4682 16.8565 11.3371 16.7254C11.206 16.5943 11.1167 16.4272 11.0805 16.2454C11.0443 16.0635 11.0629 15.875 11.1339 15.7037C11.2048 15.5324 11.325 15.386 11.4792 15.283ZM12.1196 16.3512C12.1384 16.3434 12.1565 16.3338 12.1736 16.3223C12.2079 16.2994 12.2371 16.2701 12.2598 16.2361C12.2712 16.2192 12.2808 16.2011 12.2887 16.1821C12.3045 16.144 12.3125 16.1033 12.3125 16.0625C12.3125 16.0421 12.3105 16.0217 12.3065 16.0015C12.2944 15.9409 12.2647 15.8852 12.221 15.8415C12.1773 15.7978 12.1216 15.7681 12.061 15.756C12.0408 15.752 12.0204 15.75 12 15.75C11.9592 15.75 11.9185 15.758 11.8804 15.7738C11.8614 15.7817 11.8433 15.7913 11.8264 15.8027C11.7924 15.8254 11.7631 15.8546 11.7402 15.8889C11.7287 15.906 11.7191 15.9241 11.7113 15.9429C11.6957 15.9806 11.6875 16.0213 11.6875 16.0625C11.6875 16.0831 11.6895 16.1035 11.6935 16.1235C11.7055 16.1836 11.735 16.2394 11.779 16.2835C11.8231 16.3275 11.8789 16.357 11.939 16.369C11.959 16.373 11.9794 16.375 12 16.375C12.0412 16.375 12.0819 16.3668 12.1196 16.3512Z" fill="currentColor"/>
<path d="M12.1736 16.3223C12.1565 16.3338 12.1384 16.3434 12.1196 16.3512C12.0819 16.3668 12.0412 16.375 12 16.375C11.9794 16.375 11.959 16.373 11.939 16.369C11.8789 16.357 11.8231 16.3275 11.779 16.2835C11.735 16.2394 11.7055 16.1836 11.6935 16.1235C11.6895 16.1035 11.6875 16.0831 11.6875 16.0625C11.6875 16.0213 11.6957 15.9806 11.7113 15.9429C11.7191 15.9241 11.7287 15.906 11.7402 15.8889C11.7631 15.8546 11.7924 15.8254 11.8264 15.8027C11.8433 15.7913 11.8614 15.7817 11.8804 15.7738C11.9185 15.758 11.9592 15.75 12 15.75C12.0204 15.75 12.0408 15.752 12.061 15.756C12.1216 15.7681 12.1773 15.7978 12.221 15.8415C12.2647 15.8852 12.2944 15.9409 12.3065 16.0015C12.3105 16.0217 12.3125 16.0421 12.3125 16.0625C12.3125 16.1033 12.3045 16.144 12.2887 16.1821C12.2808 16.2011 12.2712 16.2192 12.2598 16.2361C12.2371 16.2701 12.2079 16.2994 12.1736 16.3223Z" fill="currentColor"/>
<path fill-rule="evenodd" clip-rule="evenodd" d="M12 5.75C12.3452 5.75 12.625 6.02982 12.625 6.375V13.25C12.625 13.5952 12.3452 13.875 12 13.875C11.6548 13.875 11.375 13.5952 11.375 13.25V6.375C11.375 6.02982 11.6548 5.75 12 5.75Z" fill="currentColor"/>
<path fill-rule="evenodd" clip-rule="evenodd" d="M12 3.25C7.16751 3.25 3.25 7.16751 3.25 12C3.25 16.8325 7.16751 20.75 12 20.75C16.8325 20.75 20.75 16.8325 20.75 12C20.75 7.16751 16.8325 3.25 12 3.25ZM2 12C2 6.47715 6.47715 2 12 2C17.5228 2 22 6.47715 22 12C22 17.5228 17.5228 22 12 22C6.47715 22 2 17.5228 2 12Z" fill="currentColor"/>
</svg>
