<svg xmlns="http://www.w3.org/2000/svg" width="20" height="20" viewBox="0 0 20 20" fill="none">
  <path fill-rule="evenodd" clip-rule="evenodd"
    d="M9.47915 13.283C9.63333 13.18 9.81458 13.125 10 13.125C10.2486 13.125 10.4871 13.2238 10.6629 13.3996C10.8387 13.5754 10.9375 13.8139 10.9375 14.0625C10.9375 14.2479 10.8825 14.4292 10.7795 14.5833C10.6765 14.7375 10.5301 14.8577 10.3588 14.9286C10.1875 14.9996 9.99896 15.0182 9.8171 14.982C9.63525 14.9458 9.4682 14.8565 9.33709 14.7254C9.20597 14.5943 9.11669 14.4272 9.08051 14.2454C9.04434 14.0635 9.06291 13.875 9.13386 13.7037C9.20482 13.5324 9.32498 13.386 9.47915 13.283ZM10.1196 14.3512C10.1384 14.3434 10.1565 14.3338 10.1736 14.3223C10.2079 14.2994 10.2371 14.2701 10.2598 14.2361C10.2712 14.2192 10.2808 14.2011 10.2887 14.1821C10.3045 14.144 10.3125 14.1033 10.3125 14.0625C10.3125 14.0421 10.3105 14.0217 10.3065 14.0015C10.2944 13.9409 10.2647 13.8852 10.221 13.8415C10.1773 13.7978 10.1216 13.7681 10.061 13.756C10.0408 13.752 10.0204 13.75 10 13.75C9.95916 13.75 9.91851 13.758 9.88041 13.7738C9.86141 13.7817 9.84332 13.7913 9.82638 13.8027C9.79243 13.8254 9.76308 13.8546 9.74017 13.8889C9.72874 13.906 9.71908 13.9241 9.71129 13.9429C9.69566 13.9806 9.6875 14.0213 9.6875 14.0625C9.6875 14.0831 9.68954 14.1035 9.6935 14.1235C9.70547 14.1836 9.73501 14.2394 9.77903 14.2835C9.82305 14.3275 9.87886 14.357 9.93903 14.369C9.95897 14.373 9.97938 14.375 10 14.375C10.0412 14.375 10.0819 14.3668 10.1196 14.3512Z"
    fill="currentColor" />
  <path
    d="M10.1736 14.3223C10.1565 14.3338 10.1384 14.3434 10.1196 14.3512C10.0819 14.3668 10.0412 14.375 10 14.375C9.97938 14.375 9.95897 14.373 9.93903 14.369C9.87886 14.357 9.82305 14.3275 9.77903 14.2835C9.73501 14.2394 9.70547 14.1836 9.6935 14.1235C9.68954 14.1035 9.6875 14.0831 9.6875 14.0625C9.6875 14.0213 9.69566 13.9806 9.71129 13.9429C9.71908 13.9241 9.72874 13.906 9.74017 13.8889C9.76308 13.8546 9.79243 13.8254 9.82638 13.8027C9.84332 13.7913 9.86141 13.7817 9.88041 13.7738C9.91851 13.758 9.95916 13.75 10 13.75C10.0204 13.75 10.0408 13.752 10.061 13.756C10.1216 13.7681 10.1773 13.7978 10.221 13.8415C10.2647 13.8852 10.2944 13.9409 10.3065 14.0015C10.3105 14.0217 10.3125 14.0421 10.3125 14.0625C10.3125 14.1033 10.3045 14.144 10.2887 14.1821C10.2808 14.2011 10.2712 14.2192 10.2598 14.2361C10.2371 14.2701 10.2079 14.2994 10.1736 14.3223Z"
    fill="currentColor" />
  <path fill-rule="evenodd" clip-rule="evenodd"
    d="M10 3.75C10.3452 3.75 10.625 4.02982 10.625 4.375V11.25C10.625 11.5952 10.3452 11.875 10 11.875C9.65482 11.875 9.375 11.5952 9.375 11.25V4.375C9.375 4.02982 9.65482 3.75 10 3.75Z"
    fill="currentColor" />
  <path fill-rule="evenodd" clip-rule="evenodd"
    d="M10 1.25C5.16751 1.25 1.25 5.16751 1.25 10C1.25 14.8325 5.16751 18.75 10 18.75C14.8325 18.75 18.75 14.8325 18.75 10C18.75 5.16751 14.8325 1.25 10 1.25ZM0 10C0 4.47715 4.47715 0 10 0C15.5228 0 20 4.47715 20 10C20 15.5228 15.5228 20 10 20C4.47715 20 0 15.5228 0 10Z"
    fill="currentColor" />
</svg>