<svg width="24" height="24" viewBox="0 0 24 24" fill="none" xmlns="http://www.w3.org/2000/svg">
<path fill-rule="evenodd" clip-rule="evenodd" d="M14.951 2.75C14.951 2.33579 15.2868 2 15.701 2H21.2514C21.6656 2 22.0014 2.33579 22.0014 2.75V8.30042C22.0014 8.71463 21.6656 9.05042 21.2514 9.05042C20.8372 9.05042 20.5014 8.71463 20.5014 8.30042V3.5H15.701C15.2868 3.5 14.951 3.16421 14.951 2.75Z" fill="var(--cx-icon-color)"/>
<path fill-rule="evenodd" clip-rule="evenodd" d="M21.7817 2.21967C22.0746 2.51256 22.0746 2.98744 21.7817 3.28033L9.44746 15.6146C9.15456 15.9075 8.67969 15.9075 8.3868 15.6146C8.0939 15.3217 8.0939 14.8468 8.3868 14.5539L20.7211 2.21967C21.0139 1.92678 21.4888 1.92678 21.7817 2.21967Z" fill="var(--cx-icon-color)"/>
<path fill-rule="evenodd" clip-rule="evenodd" d="M2.58093 6.28121C2.9529 5.90925 3.45739 5.70028 3.98343 5.70028H11.384C11.7982 5.70028 12.134 6.03607 12.134 6.45028C12.134 6.86449 11.7982 7.20028 11.384 7.20028H3.98343C3.85521 7.20028 3.73225 7.25121 3.64159 7.34187C3.55093 7.43253 3.5 7.55549 3.5 7.6837V20.018C3.5 20.1462 3.55093 20.2691 3.64159 20.3598C3.73225 20.4505 3.85521 20.5014 3.98343 20.5014H16.3177C16.4459 20.5014 16.5689 20.4505 16.6595 20.3598C16.7502 20.2691 16.8011 20.1462 16.8011 20.018V12.6174C16.8011 12.2032 17.1369 11.8674 17.5511 11.8674C17.9653 11.8674 18.3011 12.2032 18.3011 12.6174V20.018C18.3011 20.544 18.0921 21.0485 17.7202 21.4205C17.3482 21.7924 16.8437 22.0014 16.3177 22.0014H3.98343C3.45739 22.0014 2.9529 21.7924 2.58093 21.4205C2.20897 21.0485 2 20.544 2 20.018V7.6837C2 7.15767 2.20897 6.65317 2.58093 6.28121Z" fill="var(--cx-icon-color)"/>
</svg>
