<svg width="24" height="24" viewBox="0 0 24 24" fill="none" xmlns="http://www.w3.org/2000/svg">
<path fill-rule="evenodd" clip-rule="evenodd" d="M2.3292 2.38166C2.56017 2.1276 2.87838 2 3.20833 2H20.7083C21.096 2 21.407 2.19545 21.6051 2.43322C21.8006 2.66775 21.9167 2.9752 21.9167 3.29167C21.9167 3.3083 21.916 3.32493 21.9147 3.34151C21.573 7.61213 18.524 11.2254 14.4167 12.2884V20.7083C14.4167 21.5203 13.7512 22 13.125 22H10.625C10.5739 22 10.523 21.9937 10.4734 21.9813C9.9423 21.8486 9.41667 21.4038 9.41667 20.7083V12.2884C5.31048 11.2255 2.25801 7.61053 2.00112 3.3291C2.00037 3.31664 2 3.30415 2 3.29167C2 2.95853 2.1015 2.63214 2.3292 2.38166ZM3.25027 3.27694C3.49289 7.14683 6.36378 10.4032 10.1666 11.1793C10.4576 11.2387 10.6667 11.4947 10.6667 11.7917V20.7083M3.25027 3.27694C3.25066 3.2666 3.25144 3.25765 3.25241 3.25H20.6554C20.6572 3.25362 20.659 3.25764 20.6606 3.26203C20.6631 3.26879 20.6646 3.27489 20.6655 3.28002C20.3385 7.15435 17.4628 10.4046 13.6667 11.1793C13.3757 11.2387 13.1667 11.4947 13.1667 11.7917V20.7083C13.1667 20.7186 13.1657 20.7252 13.1649 20.7287L13.1638 20.733L13.1632 20.7344C13.1632 20.7344 13.1629 20.7355 13.161 20.7372C13.1586 20.7394 13.1538 20.7429 13.1461 20.7458C13.1383 20.7488 13.1307 20.75 13.125 20.75H10.7228C10.6945 20.7369 10.6781 20.723 10.6708 20.715C10.6693 20.7134 10.6675 20.711 10.6675 20.711L10.6667 20.7099" fill="currentColor"/>
</svg>
