<svg width="24" height="24" viewBox="0 0 24 24" fill="none" xmlns="http://www.w3.org/2000/svg">
<path d="M4.49984 21.9992C4.189 21.9992 3.92233 21.7667 3.88066 21.4592L2.00564 7.70917C1.98148 7.53 2.03565 7.34917 2.15398 7.21333C2.27231 7.07667 2.44398 6.99917 2.62482 6.99917H7.64737L8.2557 2.54C8.2782 2.37333 8.36904 2.22083 8.50404 2.12167C8.61154 2.04167 8.73988 2 8.87404 2C8.90821 2 8.94321 2.00333 8.97738 2.00833L12.7274 2.63333C12.8924 2.66083 13.0357 2.75083 13.1333 2.88667C13.2299 3.0225 13.2683 3.18833 13.2408 3.3525C13.1908 3.655 12.9316 3.875 12.6249 3.875C12.5907 3.875 12.5557 3.8725 12.5207 3.86667L9.40738 3.34583L8.90904 6.99917H13.2499C13.4299 6.99917 13.6016 7.0775 13.7208 7.21333C13.8399 7.34917 13.8941 7.53 13.8691 7.70917L13.5641 9.945C13.5224 10.2533 13.2566 10.4858 12.9457 10.4858C12.9174 10.4858 12.8891 10.4842 12.8607 10.48C12.6949 10.4575 12.5482 10.3717 12.4474 10.2392C12.3466 10.1067 12.3032 9.94167 12.3257 9.77667L12.5341 8.25H8.73821L7.61903 16.46C7.57736 16.7683 7.3107 17 6.99986 17C6.97153 17 6.94236 16.9983 6.91319 16.9942C6.57319 16.9475 6.33319 16.6317 6.37985 16.2908L7.47653 8.25H3.34066L5.04567 20.75H7.62487C7.96987 20.75 8.24987 21.03 8.24987 21.375C8.24987 21.72 7.96987 22 7.62487 22H4.49984V21.9992Z" fill="currentColor"/>
<path d="M12.6249 21.9992C11.5907 21.9992 10.7499 21.1583 10.7499 20.1242V19.3917C10.0124 19.1308 9.49988 18.4242 9.49988 17.6242C9.49988 16.8242 10.0124 16.1175 10.7499 15.8567V15.1242C10.7499 13.4008 12.1516 11.9992 13.8749 11.9992H17.625C19.3483 11.9992 20.75 13.4008 20.75 15.1242V15.8567C21.4875 16.1183 22 16.825 22 17.6242C22 18.4233 21.4875 19.1308 20.75 19.3917V20.1242C20.75 21.1583 19.9091 21.9992 18.875 21.9992H12.6249ZM11.9999 20.1242C11.9999 20.4692 12.2799 20.7492 12.6249 20.7492H18.875C19.22 20.7492 19.5 20.4692 19.5 20.1242V19.4992H11.9999V20.1242ZM11.3749 16.9992C11.0299 16.9992 10.7499 17.2792 10.7499 17.6242C10.7499 17.9692 11.0299 18.2492 11.3749 18.2492H20.125C20.47 18.2492 20.75 17.9692 20.75 17.6242C20.75 17.2792 20.47 16.9992 20.125 16.9992H11.3749ZM19.5 15.7492V15.1242C19.5 14.09 18.6591 13.2492 17.625 13.2492H13.8749C12.8407 13.2492 11.9999 14.09 11.9999 15.1242V15.7492H19.5Z" fill="currentColor"/>
</svg>
