<svg width="24" height="24" viewBox="0 0 24 24" fill="none" xmlns="http://www.w3.org/2000/svg">
<path fill-rule="evenodd" clip-rule="evenodd" d="M4.54037 11.154C4.96592 6.71845 8.70291 3.25 13.25 3.25C18.0825 3.25 22 7.16751 22 12C22 16.8325 18.0825 20.75 13.25 20.75C12.9048 20.75 12.625 20.4702 12.625 20.125C12.625 19.7798 12.9048 19.5 13.25 19.5C17.3921 19.5 20.75 16.1421 20.75 12C20.75 7.85786 17.3921 4.5 13.25 4.5C9.42808 4.5 6.27386 7.35876 5.80901 11.0546L7.18306 9.68056C7.42714 9.43648 7.82286 9.43648 8.06694 9.68056C8.31102 9.92464 8.31102 10.3204 8.06694 10.5644L5.59901 13.0324C5.48439 13.1656 5.31455 13.25 5.125 13.25C4.93545 13.25 4.76561 13.1656 4.65099 13.0324L2.18306 10.5644C1.93898 10.3204 1.93898 9.92464 2.18306 9.68056C2.42714 9.43648 2.82286 9.43648 3.06694 9.68056L4.54037 11.154ZM12.625 6.3725C12.9702 6.3725 13.25 6.65232 13.25 6.9975V11.9975H17C17.3452 11.9975 17.625 12.2773 17.625 12.6225C17.625 12.9677 17.3452 13.2475 17 13.2475H12.625C12.2798 13.2475 12 12.9677 12 12.6225V6.9975C12 6.65232 12.2798 6.3725 12.625 6.3725Z" fill="var(--cx-icon-color)"/>
</svg>
