<svg width="24" height="24" viewBox="0 0 24 24" fill="none" xmlns="http://www.w3.org/2000/svg">
<path fill-rule="evenodd" clip-rule="evenodd" d="M14.4523 3.2937C15.2807 2.46536 16.4041 2 17.5756 2C18.747 2 19.8705 2.46536 20.6989 3.2937C21.5272 4.12205 21.9926 5.24552 21.9926 6.41698C21.9926 7.58843 21.5272 8.7119 20.6989 9.54025L18.8391 11.4C18.401 11.8373 17.8751 12.1776 17.2965 12.3977C16.718 12.6178 16.0995 12.7132 15.4815 12.6777C15.097 12.6556 14.8032 12.3259 14.8253 11.9414C14.8474 11.5568 15.1771 11.263 15.5616 11.2851C15.9835 11.3094 16.4057 11.2443 16.8006 11.094C17.1953 10.9439 17.5538 10.712 17.8528 10.4137M17.8528 10.4137L19.7126 8.55395C20.2793 7.98719 20.5977 7.2185 20.5977 6.41698C20.5977 5.61545 20.2793 4.84676 19.7126 4.28C19.1458 3.71323 18.3771 3.39483 17.5756 3.39483C16.7741 3.39483 16.0054 3.71323 15.4386 4.28L13.5801 6.1385C13.5799 6.13869 13.5803 6.13831 13.5801 6.1385C13.2825 6.43779 13.0508 6.79705 12.9012 7.19172C12.7515 7.58665 12.6869 8.00872 12.7115 8.43034C12.734 8.81486 12.4405 9.14477 12.0559 9.16722C11.6714 9.18966 11.3415 8.89615 11.3191 8.51163C11.283 7.89408 11.3777 7.27587 11.5969 6.69741C11.8161 6.11895 12.155 5.59327 12.5913 5.15473L12.5925 5.15347L14.4523 3.2937M16.8289 7.16781C17.1012 7.44016 17.1012 7.88174 16.8289 8.1541L8.14997 16.833C7.87761 17.1054 7.43603 17.1054 7.16367 16.833C6.89132 16.5607 6.89132 16.1191 7.16367 15.8467L15.8426 7.16781C16.1149 6.89545 16.5565 6.89545 16.8289 7.16781ZM6.69599 11.6022C7.27456 11.3821 7.8931 11.2867 8.5111 11.3223C8.89564 11.3445 9.1894 11.6742 9.16725 12.0587C9.14509 12.4432 8.8154 12.737 8.43087 12.7149C8.00906 12.6906 7.58687 12.7557 7.19197 12.9059C6.79707 13.0561 6.43838 13.2881 6.13939 13.5867L4.28 15.446C3.71323 16.0128 3.39483 16.7815 3.39483 17.583C3.39483 17.9799 3.473 18.3729 3.62488 18.7396C3.77675 19.1062 3.99936 19.4394 4.28 19.72C4.56063 20.0006 4.89379 20.2232 5.26045 20.3751C5.62711 20.527 6.0201 20.6052 6.41697 20.6052C7.2185 20.6052 7.98719 20.2868 8.55395 19.72L10.4133 17.8606C10.7119 17.5616 10.9439 17.2029 11.0941 16.808C11.2443 16.4131 11.3094 15.9909 11.2851 15.5691C11.263 15.1846 11.5568 14.8549 11.9413 14.8328C12.3258 14.8106 12.6555 15.1044 12.6777 15.4889C12.7133 16.1069 12.6179 16.7254 12.3978 17.304C12.1777 17.8826 11.8378 18.4081 11.4004 18.8462L9.54025 20.7063C8.7119 21.5346 7.58843 22 6.41697 22C5.83693 22 5.26256 21.8858 4.72667 21.6638C4.19078 21.4418 3.70386 21.1165 3.2937 20.7063C2.88355 20.2961 2.5582 19.8092 2.33622 19.2733C2.11425 18.7374 2 18.1631 2 17.583C2 16.4116 2.46536 15.2881 3.2937 14.4598L5.15347 12.6C5.59152 12.1626 6.11742 11.8223 6.69599 11.6022Z" fill="currentColor"/>
</svg>
