<svg xmlns="http://www.w3.org/2000/svg" width="20" height="20" viewBox="0 0 20 20" fill="none">
  <path fill-rule="evenodd" clip-rule="evenodd"
    d="M12.4523 1.2937C13.2807 0.465358 14.4041 0 15.5756 0C16.747 0 17.8705 0.465359 18.6989 1.2937C19.5272 2.12205 19.9926 3.24552 19.9926 4.41698C19.9926 5.58843 19.5272 6.7119 18.6989 7.54025L16.8391 9.40002C16.401 9.83733 15.8751 10.1776 15.2965 10.3977C14.718 10.6178 14.0995 10.7132 13.4815 10.6777C13.097 10.6556 12.8032 10.3259 12.8253 9.94136C12.8474 9.55682 13.1771 9.26302 13.5616 9.28514C13.9835 9.3094 14.4057 9.24428 14.8006 9.09403C15.1953 8.94386 15.5538 8.71203 15.8528 8.41372M15.8528 8.41372L17.7126 6.55395C18.2793 5.98719 18.5977 5.2185 18.5977 4.41698C18.5977 3.61545 18.2793 2.84676 17.7126 2.28C17.1458 1.71323 16.3771 1.39483 15.5756 1.39483C14.7741 1.39483 14.0054 1.71323 13.4386 2.28L11.5801 4.1385C11.5799 4.13869 11.5803 4.13831 11.5801 4.1385C11.2825 4.43779 11.0508 4.79705 10.9012 5.19172C10.7515 5.58665 10.6869 6.00872 10.7115 6.43034C10.734 6.81486 10.4405 7.14477 10.0559 7.16722C9.67142 7.18966 9.34151 6.89615 9.31906 6.51163C9.28301 5.89408 9.37769 5.27587 9.59692 4.69741C9.81615 4.11895 10.155 3.59327 10.5913 3.15473L10.5925 3.15347L12.4523 1.2937M14.8289 5.16781C15.1012 5.44016 15.1012 5.88174 14.8289 6.1541L6.14997 14.833C5.87761 15.1054 5.43603 15.1054 5.16367 14.833C4.89132 14.5607 4.89132 14.1191 5.16367 13.8467L13.8426 5.16781C14.1149 4.89545 14.5565 4.89545 14.8289 5.16781ZM4.69599 9.60223C5.27456 9.38211 5.8931 9.28673 6.5111 9.32234C6.89564 9.34449 7.1894 9.67418 7.16725 10.0587C7.14509 10.4432 6.8154 10.737 6.43087 10.7149C6.00906 10.6906 5.58687 10.7557 5.19197 10.9059C4.79707 11.0561 4.43838 11.2881 4.13939 11.5867L2.28 13.446C1.71323 14.0128 1.39483 14.7815 1.39483 15.583C1.39483 15.9799 1.473 16.3729 1.62488 16.7396C1.77675 17.1062 1.99936 17.4394 2.28 17.72C2.56063 18.0006 2.89379 18.2232 3.26045 18.3751C3.62711 18.527 4.0201 18.6052 4.41697 18.6052C5.2185 18.6052 5.98719 18.2868 6.55395 17.72L8.41335 15.8606C8.71188 15.5616 8.94387 15.2029 9.0941 14.808C9.24434 14.4131 9.30945 13.9909 9.28514 13.5691C9.26299 13.1846 9.55675 12.8549 9.94129 12.8328C10.3258 12.8106 10.6555 13.1044 10.6777 13.4889C10.7133 14.1069 10.6179 14.7254 10.3978 15.304C10.1777 15.8826 9.83777 16.4081 9.40039 16.8462L7.54025 18.7063C6.7119 19.5346 5.58843 20 4.41697 20C3.83693 20 3.26256 19.8858 2.72667 19.6638C2.19078 19.4418 1.70386 19.1165 1.2937 18.7063C0.883548 18.2961 0.558196 17.8092 0.336222 17.2733C0.114248 16.7374 0 16.1631 0 15.583C0 14.4116 0.465359 13.2881 1.2937 12.4598L3.15347 10.6C3.59152 10.1626 4.11742 9.82234 4.69599 9.60223Z"
    fill="currentColor" />
</svg>