<svg width="24" height="24" viewBox="0 0 24 24" fill="none" xmlns="http://www.w3.org/2000/svg">
<path fill-rule="evenodd" clip-rule="evenodd" d="M4.14286 3.42857C3.74837 3.42857 3.42857 3.74837 3.42857 4.14286V19.8571C3.42857 20.2516 3.74837 20.5714 4.14286 20.5714H19.8571C20.2516 20.5714 20.5714 20.2516 20.5714 19.8571V4.14286C20.5714 3.74837 20.2516 3.42857 19.8571 3.42857H4.14286ZM2 4.14286C2 2.95939 2.95939 2 4.14286 2H19.8571C21.0406 2 22 2.95939 22 4.14286V19.8571C22 21.0406 21.0406 22 19.8571 22H4.14286C2.95939 22 2 21.0406 2 19.8571V4.14286Z" fill="currentColor"/>
<path fill-rule="evenodd" clip-rule="evenodd" d="M7.35429 7.71429L7.35643 7.71429C7.64059 7.71429 7.91383 7.82717 8.11476 8.0281C8.31569 8.22903 8.42857 8.50155 8.42857 8.78571C8.42857 8.9975 8.3658 9.20454 8.2482 9.38067C8.13059 9.55681 7.96343 9.69413 7.76782 9.77531C7.57221 9.85649 7.35692 9.87787 7.14917 9.83676C6.94141 9.79565 6.75049 9.69389 6.60054 9.54434C6.45058 9.39478 6.34831 9.20414 6.30665 8.99649C6.26499 8.78884 6.2858 8.5735 6.36645 8.37767C6.44711 8.18185 6.58399 8.01432 6.75981 7.89624C6.93563 7.77817 7.1425 7.71485 7.35429 7.71429Z" fill="currentColor"/>
<path fill-rule="evenodd" clip-rule="evenodd" d="M15.6808 11.034C15.9423 10.8877 16.2367 10.8108 16.5378 10.8134C16.8388 10.816 17.1318 10.8981 17.3907 11.0487C17.6376 11.1923 17.8446 11.3929 17.9991 11.6303L21.6138 16.3303C21.8543 16.643 21.7958 17.0914 21.4831 17.3319C21.1704 17.5724 20.7219 17.5139 20.4814 17.2012L16.8475 12.4762C16.8329 12.4573 16.8193 12.4376 16.8067 12.4174C16.7689 12.3564 16.7214 12.3121 16.6725 12.2836C16.6239 12.2553 16.5736 12.2423 16.5253 12.2419C16.4771 12.2415 16.4268 12.2536 16.3781 12.2808C16.3291 12.3082 16.2813 12.3514 16.2428 12.4114L16.241 12.4141L13.3858 16.8144C13.2735 16.9876 13.0918 17.1036 12.8875 17.1328C12.6832 17.1619 12.4763 17.1013 12.3201 16.9665L10.55 15.4398C10.51 15.4053 10.4671 15.383 10.4252 15.371C10.3836 15.3591 10.3411 15.3568 10.2996 15.3638C10.258 15.3707 10.215 15.3874 10.1739 15.4158C10.1325 15.4444 10.0931 15.4846 10.0609 15.5367L6.41697 21.4272C6.20944 21.7627 5.76923 21.8664 5.43375 21.6589C5.09826 21.4513 4.99454 21.0111 5.20207 20.6757L8.84575 14.7856C8.97855 14.5708 9.15391 14.3838 9.36308 14.2396C9.57252 14.0953 9.81075 13.9973 10.063 13.9549C10.3154 13.9125 10.5731 13.9273 10.8189 13.9977C11.0645 14.0681 11.2901 14.1918 11.4824 14.3575L12.6331 15.35L15.0409 11.6392L15.0419 11.6377C15.2022 11.3886 15.4202 11.1798 15.6808 11.034Z" fill="currentColor"/>
</svg>
