<svg xmlns="http://www.w3.org/2000/svg" width="20" height="20" viewBox="0 0 20 20" fill="none">
  <path fill-rule="evenodd" clip-rule="evenodd"
    d="M2.14286 1.42857C1.74837 1.42857 1.42857 1.74837 1.42857 2.14286V17.8571C1.42857 18.2516 1.74837 18.5714 2.14286 18.5714H17.8571C18.2516 18.5714 18.5714 18.2516 18.5714 17.8571V2.14286C18.5714 1.74837 18.2516 1.42857 17.8571 1.42857H2.14286ZM0 2.14286C0 0.95939 0.95939 0 2.14286 0H17.8571C19.0406 0 20 0.95939 20 2.14286V17.8571C20 19.0406 19.0406 20 17.8571 20H2.14286C0.95939 20 0 19.0406 0 17.8571V2.14286Z"
    fill="currentColor" />
  <path fill-rule="evenodd" clip-rule="evenodd"
    d="M5.35429 5.71429C5.355 5.71429 5.35571 5.71429 5.35643 5.71429C5.35619 5.71429 5.35667 5.71429 5.35643 5.71429C5.64059 5.71429 5.91383 5.82717 6.11476 6.0281C6.31569 6.22903 6.42857 6.50155 6.42857 6.78571C6.42857 6.9975 6.3658 7.20454 6.2482 7.38067C6.13059 7.55681 5.96343 7.69413 5.76782 7.77531C5.57221 7.85649 5.35692 7.87787 5.14917 7.83676C4.94141 7.79565 4.75049 7.69389 4.60054 7.54434C4.45058 7.39478 4.34831 7.20414 4.30665 6.99649C4.26499 6.78884 4.2858 6.5735 4.36645 6.37767C4.44711 6.18185 4.58399 6.01432 4.75981 5.89624C4.93563 5.77817 5.1425 5.71485 5.35429 5.71429Z"
    fill="currentColor" />
  <path fill-rule="evenodd" clip-rule="evenodd"
    d="M13.6808 9.03401C13.9423 8.88775 14.2367 8.81077 14.5378 8.8134C14.8388 8.81602 15.1318 8.8981 15.3907 9.0487C15.6376 9.1923 15.8446 9.39287 15.9991 9.63028L19.6138 14.3303C19.8543 14.643 19.7958 15.0914 19.4831 15.3319C19.1704 15.5724 18.7219 15.5139 18.4814 15.2012L14.8475 10.4762C14.8329 10.4573 14.8193 10.4376 14.8067 10.4174C14.7689 10.3564 14.7214 10.3121 14.6725 10.2836C14.6239 10.2553 14.5736 10.2423 14.5253 10.2419C14.4771 10.2415 14.4268 10.2536 14.3781 10.2808C14.3291 10.3082 14.2813 10.3514 14.2428 10.4114L14.241 10.4141L11.3858 14.8144C11.2735 14.9876 11.0918 15.1036 10.8875 15.1328C10.6832 15.1619 10.4763 15.1013 10.3201 14.9665L8.55002 13.4398C8.50995 13.4053 8.46711 13.383 8.42524 13.371C8.38355 13.3591 8.34112 13.3568 8.29961 13.3638C8.25798 13.3707 8.21504 13.3874 8.17386 13.4158C8.13247 13.4444 8.09313 13.4846 8.06094 13.5367L4.41697 19.4272C4.20944 19.7627 3.76923 19.8664 3.43375 19.6589C3.09826 19.4513 2.99454 19.0111 3.20207 18.6757L6.84575 12.7856C6.8457 12.7857 6.8458 12.7855 6.84575 12.7856C6.97855 12.5708 7.15391 12.3838 7.36308 12.2396C7.57252 12.0953 7.81075 11.9973 8.063 11.9549C8.31537 11.9125 8.57312 11.9273 8.81888 11.9977C9.06446 12.0681 9.29006 12.1918 9.48241 12.3575L10.6331 13.35L13.0409 9.6392C13.0412 9.6387 13.0415 9.6382 13.0419 9.6377C13.2022 9.38859 13.4202 9.17976 13.6808 9.03401Z"
    fill="currentColor" />
</svg>