<svg width="24" height="24" viewBox="0 0 24 24" fill="none" xmlns="http://www.w3.org/2000/svg">
<path fill-rule="evenodd" clip-rule="evenodd" d="M3.25 12C3.25 7.16751 7.16751 3.25 12 3.25C16.8325 3.25 20.75 7.16751 20.75 12C20.75 16.8325 16.8325 20.75 12 20.75C7.16751 20.75 3.25 16.8325 3.25 12ZM12 2C6.47715 2 2 6.47715 2 12C2 17.5228 6.47715 22 12 22C17.5228 22 22 17.5228 22 12C22 6.47715 17.5228 2 12 2ZM10.75 10.125C10.4048 10.125 10.125 10.4048 10.125 10.75C10.125 11.0952 10.4048 11.375 10.75 11.375H11.375V14.5C11.375 14.9973 11.5725 15.4742 11.9242 15.8258C12.2758 16.1775 12.7527 16.375 13.25 16.375H13.875C14.2202 16.375 14.5 16.0952 14.5 15.75C14.5 15.4048 14.2202 15.125 13.875 15.125H13.25C13.0842 15.125 12.9253 15.0592 12.8081 14.9419C12.6908 14.8247 12.625 14.6658 12.625 14.5V11.375C12.625 11.0435 12.4933 10.7255 12.2589 10.4911C12.0245 10.2567 11.7065 10.125 11.375 10.125H10.75ZM11.6458 8.875C12.1636 8.875 12.5833 8.45527 12.5833 7.9375C12.5833 7.41973 12.1636 7 11.6458 7C11.1281 7 10.7083 7.41973 10.7083 7.9375C10.7083 8.45527 11.1281 8.875 11.6458 8.875Z" fill="var(--cx-icon-color)"/>
</svg>
