<svg width="24" height="24" viewBox="0 0 24 24" fill="none" xmlns="http://www.w3.org/2000/svg">
<path d="M19.512 14.5023H4.50172C4.15981 14.5023 3.87629 14.2188 3.87629 13.8769V5.74628C3.87629 4.71224 4.71853 3.87 5.75257 3.87H18.2612C19.2952 3.87 20.1374 4.71224 20.1374 5.74628V13.8769C20.1374 14.2188 19.8539 14.5023 19.512 14.5023ZM5.12714 13.2514H18.8866V5.74628C18.8866 5.40438 18.6031 5.12085 18.2612 5.12085H5.75257C5.41067 5.12085 5.12714 5.40438 5.12714 5.74628V13.2514Z" fill="currentColor"/>
<path d="M20.1374 20.1311H3.87629C2.84224 20.1311 2 19.2889 2 18.2549C2 17.988 2.05003 17.7378 2.15844 17.496L3.92632 13.6183C4.02639 13.3932 4.25154 13.2514 4.49338 13.2514H19.5037C19.7455 13.2514 19.9707 13.3932 20.0707 13.6183L21.8386 17.4877C22.2556 18.43 21.8386 19.5474 20.888 19.9644C20.6461 20.0728 20.3876 20.1228 20.1291 20.1228L20.1374 20.1311ZM4.90199 14.5023L3.30089 18.0047C3.26754 18.0797 3.25086 18.1631 3.25086 18.2549C3.25086 18.5968 3.53439 18.8803 3.87629 18.8803H20.1374C20.2292 18.8803 20.3126 18.8636 20.3876 18.8303C20.5377 18.7635 20.6545 18.6385 20.7212 18.48C20.7795 18.3216 20.7795 18.1548 20.7128 18.0047L19.1117 14.5023H4.90199Z" fill="currentColor"/>
<path d="M13.2577 17.6294H10.756C10.4141 17.6294 10.1306 17.3459 10.1306 17.004C10.1306 16.6621 10.4141 16.3786 10.756 16.3786H13.2577C13.5996 16.3786 13.8831 16.6621 13.8831 17.004C13.8831 17.3459 13.5996 17.6294 13.2577 17.6294Z" fill="currentColor"/>
</svg>
