<svg width="24" height="24" viewBox="0 0 24 24" fill="none" xmlns="http://www.w3.org/2000/svg">
  <path fill-rule="evenodd" clip-rule="evenodd"
    d="M16.9023 2.1785C17.1489 2.42003 17.153 2.81574 16.9115 3.06233L8.1616 11.9957C8.16126 11.9965 8.16072 11.9983 8.16072 12C8.16072 12.0012 8.1609 12.0023 8.16113 12.0031C8.16121 12.0034 8.16131 12.0036 8.1614 12.0039L16.9115 20.9377C17.153 21.1843 17.1489 21.58 16.9023 21.8215C16.6557 22.063 16.26 22.0589 16.0185 21.8123L7.26893 12.8793C7.15456 12.7627 7.0645 12.625 7.00328 12.4742C6.94207 12.3235 6.91072 12.1624 6.91072 12C6.91072 11.8376 6.94207 11.6765 7.00328 11.5257C7.06444 11.3752 7.15439 11.2375 7.2686 11.121C7.26871 11.1209 7.26849 11.1211 7.2686 11.121L16.0185 2.18767C16.26 1.94107 16.6557 1.93697 16.9023 2.1785Z"
    fill="currentColor" />
</svg>