<svg width="24" height="24" viewBox="0 0 24 24" fill="none" xmlns="http://www.w3.org/2000/svg">
  <path fill-rule="evenodd" clip-rule="evenodd"
    d="M11.995 3.25C10.6689 3.25 9.39715 3.77678 8.45947 4.71447C7.52179 5.65215 6.995 6.92392 6.995 8.25C6.995 8.79395 7.21823 9.58308 7.62958 10.5405C8.03308 11.4796 8.58741 12.5134 9.18343 13.523C10.2184 15.2762 11.3577 16.921 11.995 17.813C12.6323 16.921 13.7716 15.2762 14.8066 13.523C15.4026 12.5134 15.9569 11.4796 16.3604 10.5405C16.7718 9.58308 16.995 8.79395 16.995 8.25C16.995 6.92392 16.4682 5.65215 15.5305 4.71447C14.5929 3.77678 13.3211 3.25 11.995 3.25ZM7.57559 3.83058C8.74769 2.65848 10.3374 2 11.995 2C13.6526 2 15.2423 2.65848 16.4144 3.83058C17.5865 5.00269 18.245 6.5924 18.245 8.25C18.245 9.06063 17.9337 10.0454 17.5089 11.0339C17.0763 12.0408 16.493 13.1251 15.883 14.1585C14.6623 16.2264 13.3061 18.1376 12.7541 18.898L12.7523 18.9005C12.6651 19.0194 12.5511 19.1161 12.4195 19.1828C12.2879 19.2495 12.1425 19.2842 11.995 19.2842C11.8475 19.2842 11.7021 19.2495 11.5705 19.1828C11.4389 19.1161 11.3249 19.0194 11.2377 18.9005L11.2359 18.898C10.6839 18.1376 9.32773 16.2264 8.10699 14.1585C7.49697 13.1251 6.9137 12.0408 6.4811 11.0339C6.05636 10.0454 5.745 9.06063 5.745 8.25C5.745 6.5924 6.40348 5.00269 7.57559 3.83058ZM11.995 6.375C10.9595 6.375 10.12 7.21447 10.12 8.25C10.12 9.28554 10.9595 10.125 11.995 10.125C13.0305 10.125 13.87 9.28554 13.87 8.25C13.87 7.21447 13.0305 6.375 11.995 6.375ZM8.87 8.25C8.87 6.52411 10.2691 5.125 11.995 5.125C13.7209 5.125 15.12 6.52411 15.12 8.25C15.12 9.97589 13.7209 11.375 11.995 11.375C10.2691 11.375 8.87 9.97589 8.87 8.25ZM16.3644 16.6986C16.4315 16.36 16.7603 16.1399 17.0989 16.2069C18.2672 16.4383 19.2759 16.7543 20.0094 17.1459C20.3757 17.3415 20.7021 17.571 20.9437 17.8429C21.1888 18.1187 21.37 18.467 21.37 18.875C21.37 19.5373 20.9053 20.0296 20.4074 20.366C19.8877 20.7172 19.1767 21.0088 18.3542 21.2438C16.7008 21.7162 14.4528 22 11.995 22C9.53724 22 7.28923 21.7162 5.6358 21.2438C4.81333 21.0088 4.10234 20.7172 3.58261 20.366C3.08466 20.0296 2.62 19.5373 2.62 18.875C2.62 18.4679 2.80037 18.1203 3.04453 17.8447C3.28521 17.5731 3.61036 17.3438 3.97523 17.1484C4.70564 16.7572 5.70997 16.4414 6.87282 16.2096C7.21134 16.1421 7.54046 16.3618 7.60794 16.7003C7.67542 17.0388 7.4557 17.368 7.11719 17.4354C6.01421 17.6553 5.14354 17.9407 4.5654 18.2503C4.276 18.4053 4.08849 18.5514 3.98008 18.6737C3.87516 18.7921 3.87 18.8571 3.87 18.875C3.87 18.9031 3.89493 19.0685 4.28239 19.3303C4.64808 19.5773 5.21834 19.8245 5.97921 20.0419C7.49244 20.4742 9.61943 20.75 11.995 20.75C14.3706 20.75 16.4976 20.4742 18.0108 20.0419C18.7717 19.8245 19.3419 19.5773 19.7076 19.3303C20.0951 19.0685 20.12 18.9031 20.12 18.875C20.12 18.8572 20.1149 18.792 20.0093 18.6731C19.9002 18.5503 19.7116 18.4039 19.4206 18.2485C18.8395 17.9382 17.9644 17.6526 16.8561 17.4331C16.5175 17.366 16.2974 17.0372 16.3644 16.6986Z"
    fill="currentColor" />
</svg>