<svg width="24" height="24" viewBox="0 0 24 24" fill="none" xmlns="http://www.w3.org/2000/svg">
<path fill-rule="evenodd" clip-rule="evenodd" d="M3.72876 2.00089C3.73986 2.0003 3.75097 2 3.76209 2H13.9896C14.0007 2 14.0118 2.0003 14.0229 2.00089C14.5183 2.02735 14.9732 2.26262 15.2925 2.63883C15.6075 3.00998 15.7682 3.4904 15.7513 3.9762V7.98214C15.7513 8.32732 15.4714 8.60714 15.1263 8.60714C14.7811 8.60714 14.5013 8.32732 14.5013 7.98214V3.96429C14.5013 3.95552 14.5014 3.94675 14.5018 3.93798C14.5097 3.75089 14.4474 3.57484 14.3394 3.44768C14.2361 3.32598 14.1023 3.26072 13.9695 3.25H3.78216C3.64954 3.26071 3.51584 3.32592 3.41268 3.44756C3.30489 3.57466 3.24268 3.75062 3.25068 3.93756C3.25106 3.94646 3.25125 3.95537 3.25125 3.96429V20.0357C3.25125 20.0445 3.25107 20.0533 3.2507 20.062C3.24282 20.249 3.30509 20.425 3.41293 20.5522C3.5161 20.6738 3.64979 20.7391 3.78244 20.75H13.9695C14.1023 20.7393 14.2361 20.674 14.3394 20.5523C14.4474 20.4252 14.5097 20.2491 14.5018 20.062C14.5014 20.0533 14.5013 20.0445 14.5013 20.0357V16.0179C14.5013 15.6727 14.7811 15.3929 15.1263 15.3929C15.4714 15.3929 15.7513 15.6727 15.7513 16.0179V20.0238C15.7682 20.5096 15.6075 20.99 15.2925 21.3612C14.9732 21.7374 14.5183 21.9727 14.0229 21.9991C14.0118 21.9997 14.0007 22 13.9896 22H3.76209C3.75082 22 3.73955 21.9997 3.72829 21.9991C3.23316 21.9723 2.77863 21.7369 2.45961 21.3607C2.14489 20.9896 1.98429 20.5094 2.00125 20.0238V3.9764C1.98403 3.4907 2.14454 3.01026 2.45936 2.63906C2.77852 2.26273 3.23337 2.02735 3.72876 2.00089ZM17.8248 8.19845C18.0772 7.96292 18.4726 7.97656 18.7082 8.22891L21.8332 11.5771C22.0573 11.8173 22.0573 12.1899 21.8332 12.43L18.7082 15.7782C18.4726 16.0306 18.0772 16.0442 17.8248 15.8087C17.5725 15.5732 17.5588 15.1777 17.7943 14.9253L19.938 12.6286H8.25125C7.90608 12.6286 7.62625 12.3487 7.62625 12.0036C7.62625 11.6584 7.90608 11.3786 8.25125 11.3786H19.938L17.7943 9.0818C17.5588 8.82946 17.5725 8.43397 17.8248 8.19845Z" fill="var(--cx-icon-color)"/>
</svg>
