<svg xmlns="http://www.w3.org/2000/svg" width="20" height="6" viewBox="0 0 20 6" fill="none">
  <path fill-rule="evenodd" clip-rule="evenodd"
    d="M2.8125 1.44C1.94956 1.44 1.25 2.13956 1.25 3.0025C1.25 3.86545 1.94956 4.565 2.8125 4.565C3.67544 4.565 4.375 3.86545 4.375 3.0025C4.375 2.13956 3.67544 1.44 2.8125 1.44ZM0 3.0025C0 1.4492 1.2592 0.190002 2.8125 0.190002C4.3658 0.190002 5.625 1.4492 5.625 3.0025C5.625 4.5558 4.3658 5.815 2.8125 5.815C1.2592 5.815 0 4.5558 0 3.0025Z"
    fill="currentColor" />
  <path fill-rule="evenodd" clip-rule="evenodd"
    d="M17.1875 1.44C16.3246 1.44 15.625 2.13956 15.625 3.0025C15.625 3.86545 16.3246 4.565 17.1875 4.565C18.0504 4.565 18.75 3.86545 18.75 3.0025C18.75 2.13956 18.0504 1.44 17.1875 1.44ZM14.375 3.0025C14.375 1.4492 15.6342 0.190002 17.1875 0.190002C18.7408 0.190002 20 1.4492 20 3.0025C20 4.5558 18.7408 5.815 17.1875 5.815C15.6342 5.815 14.375 4.5558 14.375 3.0025Z"
    fill="currentColor" />
  <path fill-rule="evenodd" clip-rule="evenodd"
    d="M10 1.44C9.13705 1.44 8.4375 2.13956 8.4375 3.0025C8.4375 3.86545 9.13705 4.565 10 4.565C10.8629 4.565 11.5625 3.86545 11.5625 3.0025C11.5625 2.13956 10.8629 1.44 10 1.44ZM7.1875 3.0025C7.1875 1.4492 8.4467 0.190002 10 0.190002C11.5533 0.190002 12.8125 1.4492 12.8125 3.0025C12.8125 4.5558 11.5533 5.815 10 5.815C8.4467 5.815 7.1875 4.5558 7.1875 3.0025Z"
    fill="currentColor" />
</svg>