<svg width="24" height="24" viewBox="0 0 24 24" fill="none" xmlns="http://www.w3.org/2000/svg">
<path fill-rule="evenodd" clip-rule="evenodd" d="M4.8125 10.44C3.94956 10.44 3.25 11.1396 3.25 12.0025C3.25 12.8654 3.94956 13.565 4.8125 13.565C5.67544 13.565 6.375 12.8654 6.375 12.0025C6.375 11.1396 5.67544 10.44 4.8125 10.44ZM2 12.0025C2 10.4492 3.2592 9.19 4.8125 9.19C6.3658 9.19 7.625 10.4492 7.625 12.0025C7.625 13.5558 6.3658 14.815 4.8125 14.815C3.2592 14.815 2 13.5558 2 12.0025Z" fill="currentColor"/>
<path fill-rule="evenodd" clip-rule="evenodd" d="M19.1875 10.44C18.3246 10.44 17.625 11.1396 17.625 12.0025C17.625 12.8654 18.3246 13.565 19.1875 13.565C20.0504 13.565 20.75 12.8654 20.75 12.0025C20.75 11.1396 20.0504 10.44 19.1875 10.44ZM16.375 12.0025C16.375 10.4492 17.6342 9.19 19.1875 9.19C20.7408 9.19 22 10.4492 22 12.0025C22 13.5558 20.7408 14.815 19.1875 14.815C17.6342 14.815 16.375 13.5558 16.375 12.0025Z" fill="currentColor"/>
<path fill-rule="evenodd" clip-rule="evenodd" d="M12 10.44C11.1371 10.44 10.4375 11.1396 10.4375 12.0025C10.4375 12.8654 11.1371 13.565 12 13.565C12.8629 13.565 13.5625 12.8654 13.5625 12.0025C13.5625 11.1396 12.8629 10.44 12 10.44ZM9.1875 12.0025C9.1875 10.4492 10.4467 9.19 12 9.19C13.5533 9.19 14.8125 10.4492 14.8125 12.0025C14.8125 13.5558 13.5533 14.815 12 14.815C10.4467 14.815 9.1875 13.5558 9.1875 12.0025Z" fill="currentColor"/>
</svg>
