<svg width="24" height="24" viewBox="0 0 24 24" fill="none" xmlns="http://www.w3.org/2000/svg">
  <path fill-rule="evenodd" clip-rule="evenodd"
    d="M3.43306 3.43306C3.55027 3.31585 3.70924 3.25 3.875 3.25H20.125C20.2908 3.25 20.4497 3.31585 20.5669 3.43306C20.6841 3.55027 20.75 3.70924 20.75 3.875V16.375C20.75 16.5408 20.6841 16.6997 20.5669 16.8169C20.4497 16.9341 20.2908 17 20.125 17H11.375C11.2398 17 11.1082 17.0439 11 17.125L7 20.125V17.625C7 17.2798 6.72018 17 6.375 17H3.875C3.70924 17 3.55027 16.9341 3.43306 16.8169C3.31585 16.6997 3.25 16.5408 3.25 16.375V3.875C3.25 3.70924 3.31585 3.55027 3.43306 3.43306ZM3.875 2C3.37772 2 2.90081 2.19754 2.54917 2.54917C2.19754 2.90081 2 3.37772 2 3.875V16.375C2 16.8723 2.19754 17.3492 2.54917 17.7008C2.9008 18.0525 3.37772 18.25 3.875 18.25H5.75V21.375C5.75 21.6117 5.88375 21.8281 6.09549 21.934C6.30723 22.0399 6.56061 22.017 6.75 21.875L11.5833 18.25H20.125C20.6223 18.25 21.0992 18.0525 21.4508 17.7008C21.8025 17.3492 22 16.8723 22 16.375V3.875C22 3.37772 21.8025 2.9008 21.4508 2.54917C21.0992 2.19754 20.6223 2 20.125 2H3.875ZM8.25 9.1875C8.06458 9.1875 7.88332 9.24248 7.72915 9.3455C7.57498 9.44851 7.45482 9.59493 7.38386 9.76623C7.31291 9.93754 7.29434 10.126 7.33051 10.3079C7.36669 10.4898 7.45598 10.6568 7.58709 10.7879C7.7182 10.919 7.88525 11.0083 8.0671 11.0445C8.24896 11.0807 8.43746 11.0621 8.60876 10.9911C8.78007 10.9202 8.92649 10.8 9.0295 10.6458C9.13251 10.4917 9.1875 10.3104 9.1875 10.125C9.1875 9.87636 9.08873 9.6379 8.91291 9.46209C8.7371 9.28627 8.49864 9.1875 8.25 9.1875ZM8.42361 10.3848C8.40668 10.3962 8.38859 10.4058 8.36959 10.4137C8.38841 10.4059 8.40651 10.3963 8.42361 10.3848ZM8.25 10.4375C8.22963 10.4375 8.20921 10.4355 8.18903 10.4315C8.20897 10.4355 8.22938 10.4375 8.25 10.4375ZM8.53871 10.2446C8.53092 10.2634 8.52126 10.2815 8.50983 10.2986C8.52115 10.2817 8.53084 10.2636 8.53871 10.2446ZM12 9.1875C11.8146 9.1875 11.6333 9.24248 11.4792 9.3455C11.325 9.44851 11.2048 9.59493 11.1339 9.76623C11.0629 9.93754 11.0443 10.126 11.0805 10.3079C11.1167 10.4897 11.206 10.6568 11.3371 10.7879C11.4682 10.919 11.6352 11.0083 11.8171 11.0445C11.999 11.0807 12.1875 11.0621 12.3588 10.9911C12.5301 10.9202 12.6765 10.8 12.7795 10.6458C12.8825 10.4917 12.9375 10.3104 12.9375 10.125C12.9375 9.87636 12.8387 9.6379 12.6629 9.46209C12.4871 9.28627 12.2486 9.1875 12 9.1875ZM12.1736 10.3848C12.1567 10.3962 12.1386 10.4058 12.1196 10.4137C12.1384 10.4059 12.1565 10.3963 12.1736 10.3848ZM12 10.4375C11.9796 10.4375 11.9592 10.4355 11.939 10.4315C11.959 10.4355 11.9794 10.4375 12 10.4375ZM15.75 9.1875C15.5646 9.1875 15.3833 9.24248 15.2291 9.3455C15.075 9.44851 14.9548 9.59493 14.8839 9.76623C14.8129 9.93754 14.7943 10.126 14.8305 10.3079C14.8667 10.4897 14.956 10.6568 15.0871 10.7879C15.2182 10.919 15.3853 11.0083 15.5671 11.0445C15.749 11.0807 15.9375 11.0621 16.1088 10.9911C16.2801 10.9202 16.4265 10.8 16.5295 10.6458C16.6325 10.4917 16.6875 10.3104 16.6875 10.125C16.6875 9.87636 16.5887 9.6379 16.4129 9.46209C16.2371 9.28627 15.9986 9.1875 15.75 9.1875ZM15.689 10.4315C15.7092 10.4355 15.7296 10.4375 15.75 10.4375C15.7294 10.4375 15.709 10.4355 15.689 10.4315ZM16.0098 10.2986C16.0213 10.2815 16.0309 10.2634 16.0387 10.2446C16.0308 10.2636 16.0212 10.2817 16.0098 10.2986Z"
    fill="currentColor" />
</svg>