<svg width="24" height="24" viewBox="0 0 24 24" fill="none" xmlns="http://www.w3.org/2000/svg">
<path d="M8.25 9.8125C8.18819 9.8125 8.12777 9.83083 8.07638 9.86516C8.02499 9.8995 7.98494 9.94831 7.96129 10.0054C7.93763 10.0625 7.93145 10.1253 7.9435 10.186C7.95556 10.2466 7.98532 10.3023 8.02903 10.346C8.07273 10.3897 8.12841 10.4194 8.18903 10.4315C8.24965 10.4436 8.31248 10.4374 8.36959 10.4137C8.42669 10.3901 8.47549 10.35 8.50983 10.2986C8.54417 10.2472 8.5625 10.1868 8.5625 10.125C8.5625 10.0421 8.52957 9.96263 8.47097 9.90403C8.41236 9.84542 8.33288 9.8125 8.25 9.8125Z" fill="var(--cx-icon-color)"/>
<path d="M12 9.8125C11.9382 9.8125 11.8778 9.83083 11.8264 9.86516C11.775 9.8995 11.7349 9.94831 11.7113 10.0054C11.6876 10.0625 11.6814 10.1253 11.6935 10.186C11.7056 10.2466 11.7353 10.3023 11.779 10.346C11.8227 10.3897 11.8784 10.4194 11.939 10.4315C11.9997 10.4436 12.0625 10.4374 12.1196 10.4137C12.1767 10.3901 12.2255 10.35 12.2598 10.2986C12.2942 10.2472 12.3125 10.1868 12.3125 10.125C12.3125 10.0421 12.2796 9.96263 12.221 9.90403C12.1624 9.84542 12.0829 9.8125 12 9.8125Z" fill="var(--cx-icon-color)"/>
<path d="M15.75 9.8125C15.6882 9.8125 15.6278 9.83083 15.5764 9.86516C15.525 9.8995 15.4849 9.94831 15.4613 10.0054C15.4376 10.0625 15.4314 10.1253 15.4435 10.186C15.4556 10.2466 15.4853 10.3023 15.529 10.346C15.5727 10.3897 15.6284 10.4194 15.689 10.4315C15.7497 10.4436 15.8125 10.4374 15.8696 10.4137C15.9267 10.3901 15.9755 10.35 16.0098 10.2986C16.0442 10.2472 16.0625 10.1868 16.0625 10.125C16.0625 10.0421 16.0296 9.96263 15.971 9.90403C15.9124 9.84542 15.8329 9.8125 15.75 9.8125Z" fill="var(--cx-icon-color)"/>
<path fill-rule="evenodd" clip-rule="evenodd" d="M3.875 3.25C3.70924 3.25 3.55027 3.31585 3.43306 3.43306C3.31585 3.55027 3.25 3.70924 3.25 3.875V16.375C3.25 16.5408 3.31585 16.6997 3.43306 16.8169C3.55027 16.9341 3.70924 17 3.875 17H6.375C6.72018 17 7 17.2798 7 17.625V20.125L11 17.125C11.1082 17.0439 11.2398 17 11.375 17H20.125C20.2908 17 20.4497 16.9341 20.5669 16.8169C20.6841 16.6997 20.75 16.5408 20.75 16.375V3.875C20.75 3.70924 20.6841 3.55027 20.5669 3.43306C20.4497 3.31585 20.2908 3.25 20.125 3.25H3.875ZM2.54917 2.54917C2.90081 2.19754 3.37772 2 3.875 2H20.125C20.6223 2 21.0992 2.19754 21.4508 2.54917C21.8025 2.9008 22 3.37772 22 3.875V16.375C22 16.8723 21.8025 17.3492 21.4508 17.7008C21.0992 18.0525 20.6223 18.25 20.125 18.25H11.5833L6.75 21.875C6.56061 22.017 6.30723 22.0399 6.09549 21.934C5.88375 21.8281 5.75 21.6117 5.75 21.375V18.25H3.875C3.37772 18.25 2.9008 18.0525 2.54917 17.7008C2.19754 17.3492 2 16.8723 2 16.375V3.875C2 3.37772 2.19754 2.90081 2.54917 2.54917ZM7.72915 9.3455C7.88332 9.24248 8.06458 9.1875 8.25 9.1875C8.49864 9.1875 8.7371 9.28627 8.91291 9.46209C9.08873 9.6379 9.1875 9.87636 9.1875 10.125C9.1875 10.3104 9.13251 10.4917 9.0295 10.6458C8.92649 10.8 8.78007 10.9202 8.60876 10.9911C8.43746 11.0621 8.24896 11.0807 8.0671 11.0445C7.88525 11.0083 7.7182 10.919 7.58709 10.7879C7.45598 10.6568 7.36669 10.4898 7.33051 10.3079C7.29434 10.126 7.31291 9.93754 7.38386 9.76623C7.45482 9.59493 7.57498 9.44851 7.72915 9.3455ZM8.36959 10.4137C8.38841 10.4059 8.40651 10.3963 8.42361 10.3848C8.4579 10.3619 8.48714 10.3326 8.50983 10.2986C8.52115 10.2817 8.53084 10.2636 8.53871 10.2446C8.55449 10.2065 8.5625 10.1658 8.5625 10.125C8.5625 10.1046 8.56051 10.0842 8.55649 10.064C8.54444 10.0034 8.51467 9.94773 8.47097 9.90403C8.42726 9.86032 8.37158 9.83056 8.31096 9.8185C8.29079 9.81449 8.27037 9.8125 8.25 9.8125C8.20916 9.8125 8.16851 9.8205 8.13041 9.83629C8.11141 9.84416 8.09332 9.85385 8.07638 9.86516C8.04243 9.88785 8.01307 9.9171 7.99016 9.95138C7.97874 9.96849 7.96908 9.98659 7.96129 10.0054C7.94566 10.0431 7.9375 10.0838 7.9375 10.125C7.9375 10.1456 7.93954 10.166 7.9435 10.186C7.95556 10.2466 7.98532 10.3023 8.02903 10.346C8.07273 10.3897 8.12841 10.4194 8.18903 10.4315C8.20897 10.4355 8.22938 10.4375 8.25 10.4375C8.29124 10.4375 8.33186 10.4293 8.36959 10.4137ZM11.4792 9.3455C11.6333 9.24248 11.8146 9.1875 12 9.1875C12.2486 9.1875 12.4871 9.28627 12.6629 9.46209C12.8387 9.6379 12.9375 9.87636 12.9375 10.125C12.9375 10.3104 12.8825 10.4917 12.7795 10.6458C12.6765 10.8 12.5301 10.9202 12.3588 10.9911C12.1875 11.0621 11.999 11.0807 11.8171 11.0445C11.6352 11.0083 11.4682 10.919 11.3371 10.7879C11.206 10.6568 11.1167 10.4897 11.0805 10.3079C11.0443 10.126 11.0629 9.93754 11.1339 9.76623C11.2048 9.59493 11.325 9.44851 11.4792 9.3455ZM12.1196 10.4137C12.1384 10.4059 12.1565 10.3963 12.1736 10.3848C12.2079 10.3619 12.2371 10.3326 12.2598 10.2986C12.2711 10.2817 12.2808 10.2636 12.2887 10.2446C12.3045 10.2065 12.3125 10.1658 12.3125 10.125C12.3125 10.1046 12.3105 10.0842 12.3065 10.064C12.2944 10.0034 12.2647 9.94773 12.221 9.90403C12.1773 9.86032 12.1216 9.83056 12.061 9.8185C12.0408 9.81449 12.0204 9.8125 12 9.8125C11.9592 9.8125 11.9185 9.8205 11.8804 9.83629C11.8614 9.84416 11.8433 9.85385 11.8264 9.86516C11.7924 9.88785 11.7631 9.9171 11.7402 9.95138C11.7287 9.96849 11.7191 9.98659 11.7113 10.0054C11.6957 10.0431 11.6875 10.0838 11.6875 10.125C11.6875 10.1456 11.6895 10.166 11.6935 10.186C11.7056 10.2466 11.7353 10.3023 11.779 10.346C11.8227 10.3897 11.8784 10.4194 11.939 10.4315C11.959 10.4355 11.9794 10.4375 12 10.4375C12.0412 10.4375 12.0819 10.4293 12.1196 10.4137ZM15.2291 9.3455C15.3833 9.24248 15.5646 9.1875 15.75 9.1875C15.9986 9.1875 16.2371 9.28627 16.4129 9.46209C16.5887 9.6379 16.6875 9.87636 16.6875 10.125C16.6875 10.3104 16.6325 10.4917 16.5295 10.6458C16.4265 10.8 16.2801 10.9202 16.1088 10.9911C15.9375 11.0621 15.749 11.0807 15.5671 11.0445C15.3853 11.0083 15.2182 10.919 15.0871 10.7879C14.956 10.6568 14.8667 10.4897 14.8305 10.3079C14.7943 10.126 14.8129 9.93754 14.8839 9.76623C14.9548 9.59493 15.075 9.44851 15.2291 9.3455ZM15.8696 10.4137C15.8884 10.4059 15.9065 10.3963 15.9236 10.3848C15.9579 10.3619 15.9871 10.3326 16.0098 10.2986C16.0211 10.2817 16.0308 10.2636 16.0387 10.2446C16.0545 10.2065 16.0625 10.1658 16.0625 10.125C16.0625 10.1046 16.0605 10.0842 16.0565 10.064C16.0444 10.0034 16.0147 9.94773 15.971 9.90403C15.9273 9.86032 15.8716 9.83056 15.811 9.8185C15.7908 9.81449 15.7704 9.8125 15.75 9.8125C15.7092 9.8125 15.6685 9.82051 15.6304 9.83629C15.6114 9.84416 15.5933 9.85385 15.5764 9.86516C15.5424 9.88785 15.5131 9.9171 15.4902 9.95138C15.4787 9.96849 15.4691 9.98659 15.4613 10.0054C15.4457 10.0431 15.4375 10.0838 15.4375 10.125C15.4375 10.1456 15.4395 10.166 15.4435 10.186C15.4556 10.2466 15.4853 10.3023 15.529 10.346C15.5727 10.3897 15.6284 10.4194 15.689 10.4315C15.709 10.4355 15.7294 10.4375 15.75 10.4375C15.7912 10.4375 15.8319 10.4293 15.8696 10.4137Z" fill="var(--cx-icon-color)"/>
</svg>
