<svg width="24" height="24" viewBox="0 0 24 24" fill="none" xmlns="http://www.w3.org/2000/svg">
<path fill-rule="evenodd" clip-rule="evenodd" d="M11.995 17.625C12.3402 17.625 12.62 17.9048 12.62 18.25V21.375C12.62 21.7202 12.3402 22 11.995 22C11.6498 22 11.37 21.7202 11.37 21.375V18.25C11.37 17.9048 11.6498 17.625 11.995 17.625Z" fill="var(--cx-icon-color)"/>
<path fill-rule="evenodd" clip-rule="evenodd" d="M10.745 3.25C9.70946 3.25 8.87 4.08947 8.87 5.125V13.25C8.87 14.2855 9.70946 15.125 10.745 15.125H13.245C14.2805 15.125 15.12 14.2855 15.12 13.25V5.125C15.12 4.08947 14.2805 3.25 13.245 3.25H10.745ZM7.62 5.125C7.62 3.39911 9.01911 2 10.745 2H13.245C14.9709 2 16.37 3.39911 16.37 5.125V13.25C16.37 14.9759 14.9709 16.375 13.245 16.375H10.745C9.01911 16.375 7.62 14.9759 7.62 13.25V5.125Z" fill="var(--cx-icon-color)"/>
<path fill-rule="evenodd" clip-rule="evenodd" d="M5.745 9.5C6.09017 9.5 6.37 9.77982 6.37 10.125V12C6.37 13.4918 6.96263 14.9226 8.01752 15.9775C9.07241 17.0324 10.5032 17.625 11.995 17.625C13.4868 17.625 14.9176 17.0324 15.9725 15.9775C17.0274 14.9226 17.62 13.4918 17.62 12V10.125C17.62 9.77982 17.8998 9.5 18.245 9.5C18.5902 9.5 18.87 9.77982 18.87 10.125V12C18.87 13.8234 18.1457 15.572 16.8564 16.8614C15.567 18.1507 13.8184 18.875 11.995 18.875C10.1716 18.875 8.42295 18.1507 7.13364 16.8614C5.84432 15.572 5.12 13.8234 5.12 12V10.125C5.12 9.77982 5.39982 9.5 5.745 9.5Z" fill="var(--cx-icon-color)"/>
</svg>
