<svg xmlns="http://www.w3.org/2000/svg" width="14" height="20" viewBox="0 0 14 20" fill="none">
  <path fill-rule="evenodd" clip-rule="evenodd"
    d="M6.995 15.625C7.34018 15.625 7.62 15.9048 7.62 16.25V19.375C7.62 19.7202 7.34018 20 6.995 20C6.64982 20 6.37 19.7202 6.37 19.375V16.25C6.37 15.9048 6.64982 15.625 6.995 15.625Z"
    fill="currentColor" />
  <path fill-rule="evenodd" clip-rule="evenodd"
    d="M5.745 1.25C4.70947 1.25 3.87 2.08947 3.87 3.125V11.25C3.87 12.2855 4.70947 13.125 5.745 13.125H8.245C9.28053 13.125 10.12 12.2855 10.12 11.25V3.125C10.12 2.08947 9.28053 1.25 8.245 1.25H5.745ZM2.62 3.125C2.62 1.39911 4.01911 0 5.745 0H8.245C9.97089 0 11.37 1.39911 11.37 3.125V11.25C11.37 12.9759 9.97089 14.375 8.245 14.375H5.745C4.01911 14.375 2.62 12.9759 2.62 11.25V3.125Z"
    fill="currentColor" />
  <path fill-rule="evenodd" clip-rule="evenodd"
    d="M0.745 7.5C1.09018 7.5 1.37 7.77982 1.37 8.125V10C1.37 11.4918 1.96263 12.9226 3.01752 13.9775C4.07242 15.0324 5.50316 15.625 6.995 15.625C8.48684 15.625 9.91758 15.0324 10.9725 13.9775C12.0274 12.9226 12.62 11.4918 12.62 10V8.125C12.62 7.77982 12.8998 7.5 13.245 7.5C13.5902 7.5 13.87 7.77982 13.87 8.125V10C13.87 11.8234 13.1457 13.572 11.8564 14.8614C10.567 16.1507 8.81836 16.875 6.995 16.875C5.17164 16.875 3.42295 16.1507 2.13364 14.8614C0.844328 13.572 0.12 11.8234 0.12 10V8.125C0.12 7.77982 0.399822 7.5 0.745 7.5Z"
    fill="currentColor" />
</svg>