<svg width="24" height="24" viewBox="0 0 24 24" fill="none" xmlns="http://www.w3.org/2000/svg">
  <path
    d="M17.0291 22.0025C16.0628 22.0025 15.0881 21.7276 14.2134 21.1778C14.2134 21.1778 14.1967 21.1694 14.1884 21.1611C9.6981 18.1287 5.88263 14.3049 2.84191 9.81465C1.50066 7.69864 1.79224 5.02447 3.54169 3.27502L4.18316 2.63356C5.02456 1.79215 6.39913 1.79215 7.24054 2.63356L9.95635 5.34937C9.95635 5.34937 9.96468 5.3577 9.97301 5.36603C10.3729 5.77424 10.5895 6.30741 10.5895 6.88223C10.5895 7.45705 10.3646 7.99855 9.95635 8.40675C9.59813 8.76497 9.59813 9.33979 9.95635 9.69801L14.305 14.0467C14.6632 14.4049 15.238 14.4049 15.5963 14.0467C16.4377 13.2053 17.8122 13.2053 18.6536 14.0467L21.3695 16.7625C22.2109 17.6039 22.2109 18.9784 21.3695 19.8199L20.728 20.4613C19.7116 21.4777 18.3787 22.0025 17.0375 22.0025H17.0291ZM14.8798 20.1198C16.496 21.1278 18.512 20.8945 19.8366 19.5783L20.4781 18.9368C20.8363 18.5786 20.8363 18.0038 20.4781 17.6455L17.7622 14.9297C17.404 14.5715 16.8292 14.5715 16.471 14.9297C15.6296 15.7711 14.2633 15.7711 13.4136 14.9297L9.06497 10.5811C8.22356 9.73967 8.22356 8.3651 9.06497 7.52369C9.23991 7.34875 9.33155 7.12382 9.33155 6.88223C9.33155 6.64064 9.23991 6.40738 9.06497 6.24076C9.06497 6.24076 9.05663 6.23243 9.0483 6.2241L6.34082 3.51661C5.9826 3.16672 5.40778 3.15839 5.04955 3.51661L4.40809 4.15808C3.07517 5.491 2.85024 7.52369 3.86659 9.11486C6.80734 13.4718 10.5145 17.179 14.8715 20.1198H14.8798Z"
    fill="currentColor" />
</svg>