<svg width="24" height="24" viewBox="0 0 24 24" fill="none" xmlns="http://www.w3.org/2000/svg">
<path fill-rule="evenodd" clip-rule="evenodd" d="M12 3.25C7.16751 3.25 3.25 7.16751 3.25 12C3.25 16.8325 7.16751 20.75 12 20.75C16.8325 20.75 20.75 16.8325 20.75 12C20.75 7.16751 16.8325 3.25 12 3.25ZM2 12C2 6.47715 6.47715 2 12 2C17.5228 2 22 6.47715 22 12C22 17.5228 17.5228 22 12 22C6.47715 22 2 17.5228 2 12Z" fill="currentColor"/>
<path fill-rule="evenodd" clip-rule="evenodd" d="M9.18628 8.12777C9.37897 8.01594 9.61661 8.01514 9.81005 8.12566L15.6434 11.4585C15.8381 11.5698 15.9583 11.7769 15.9583 12.0012C15.9583 12.2254 15.8382 12.4325 15.6435 12.5438L9.81012 15.8776C9.61668 15.9882 9.37902 15.9874 9.18631 15.8756C8.99361 15.7638 8.875 15.5578 8.875 15.335V8.66833C8.875 8.44555 8.99359 8.2396 9.18628 8.12777ZM10.125 9.74524V14.2579L14.0736 12.0013L10.125 9.74524Z" fill="currentColor"/>
</svg>
