<svg xmlns="http://www.w3.org/2000/svg" width="20" height="20" viewBox="0 0 20 20" fill="none">
  <path fill-rule="evenodd" clip-rule="evenodd"
    d="M10 1.25C5.16751 1.25 1.25 5.16751 1.25 10C1.25 14.8325 5.16751 18.75 10 18.75C14.8325 18.75 18.75 14.8325 18.75 10C18.75 5.16751 14.8325 1.25 10 1.25ZM0 10C0 4.47715 4.47715 0 10 0C15.5228 0 20 4.47715 20 10C20 15.5228 15.5228 20 10 20C4.47715 20 0 15.5228 0 10Z"
    fill="currentColor" />
  <path fill-rule="evenodd" clip-rule="evenodd"
    d="M7.18628 6.12777C7.37897 6.01594 7.61661 6.01514 7.81005 6.12566L13.6434 9.45852C13.8381 9.56978 13.9583 9.77687 13.9583 10.0012C13.9583 10.2254 13.8382 10.4325 13.6435 10.5438L7.81012 13.8776C7.61668 13.9882 7.37902 13.9874 7.18631 13.8756C6.99361 13.7638 6.875 13.5578 6.875 13.335V6.66833C6.875 6.44555 6.99359 6.2396 7.18628 6.12777ZM8.125 7.74524V12.2579L12.0736 10.0013L8.125 7.74524Z"
    fill="currentColor" />
</svg>