<svg width="24" height="24" viewBox="0 0 24 24" fill="none" xmlns="http://www.w3.org/2000/svg">
<path d="M15.75 5.1237C15.4083 5.1237 15.125 4.84048 15.125 4.49896V2.62474C15.125 2.28322 15.4083 2 15.75 2C16.0917 2 16.375 2.28322 16.375 2.62474V4.49896C16.375 4.84048 16.0917 5.1237 15.75 5.1237Z" fill="var(--cx-icon-color)"/>
<path d="M14.5 15.7443C14.1583 15.7443 13.875 15.4611 13.875 15.1195C13.875 14.778 14.1583 14.4948 14.5 14.4948H20.4167C20.6 14.4948 20.75 14.3449 20.75 14.1533V5.46522C20.75 5.28197 20.6 5.1237 20.4167 5.1237H12C11.6583 5.1237 11.375 4.84048 11.375 4.49896C11.375 4.15743 11.6583 3.87422 12 3.87422H20.4167C21.2917 3.87422 22 4.59059 22 5.46522V14.1533C22 15.0279 21.2917 15.7359 20.4167 15.7443H14.5Z" fill="var(--cx-icon-color)"/>
<path d="M15.75 20.1175C15.4083 20.1175 15.125 19.8342 15.125 19.4927V15.1195C15.125 14.778 15.4083 14.4948 15.75 14.4948C16.0917 14.4948 16.375 14.778 16.375 15.1195V19.4927C16.375 19.8342 16.0917 20.1175 15.75 20.1175Z" fill="var(--cx-icon-color)"/>
<path d="M13.25 21.9917C13.0583 21.9917 12.875 21.9084 12.75 21.7418C12.5417 21.4669 12.6 21.0754 12.875 20.8671L15.375 18.9929C15.65 18.7847 16.0417 18.843 16.25 19.1179C16.4583 19.3928 16.4 19.7843 16.125 19.9925L13.625 21.8667C13.5083 21.95 13.3833 21.9917 13.25 21.9917Z" fill="var(--cx-icon-color)"/>
<path d="M17.9917 21.9917C17.85 21.9917 17.7083 21.9417 17.5917 21.8501L15.35 19.9758C15.0833 19.7509 15.05 19.3594 15.275 19.0929C15.4917 18.8263 15.8917 18.793 16.1583 19.0179L18.4 20.8921C18.6667 21.117 18.7 21.5085 18.475 21.7751C18.35 21.925 18.175 22 17.9917 22V21.9917Z" fill="var(--cx-icon-color)"/>
<path d="M7 8.2474C5.275 8.2474 3.875 6.84798 3.875 5.1237C3.875 3.39942 5.275 2 7 2C8.725 2 10.125 3.39942 10.125 5.1237C10.125 6.84798 8.725 8.2474 7 8.2474ZM7 3.24948C5.96667 3.24948 5.125 4.0908 5.125 5.1237C5.125 6.1566 5.96667 6.99792 7 6.99792C8.03333 6.99792 8.875 6.1566 8.875 5.1237C8.875 4.0908 8.03333 3.24948 7 3.24948Z" fill="var(--cx-icon-color)"/>
<path d="M8.875 21.9917H5.125C4.8 21.9917 4.53333 21.7501 4.5 21.4336L3.93333 15.7526H2.625C2.28333 15.7526 2 15.4694 2 15.1279V13.2536C2 10.4965 4.24167 8.25573 7 8.25573C9.75833 8.25573 12 10.4965 12 13.2536V15.1279C12 15.4694 11.7167 15.7526 11.375 15.7526H10.0667L9.5 21.4336C9.46667 21.7501 9.2 21.9917 8.875 21.9917ZM5.69167 20.7422H8.30833L8.875 15.0612C8.90833 14.7447 9.175 14.4948 9.5 14.4948H10.75V13.2453C10.75 11.1795 9.06667 9.49688 7 9.49688C4.93333 9.49688 3.25 11.1795 3.25 13.2453V14.4948H4.5C4.825 14.4948 5.09167 14.7364 5.125 15.0612L5.69167 20.7422Z" fill="var(--cx-icon-color)"/>
</svg>
