<svg width="24" height="24" viewBox="0 0 24 24" fill="none" xmlns="http://www.w3.org/2000/svg">
  <path fill-rule="evenodd" clip-rule="evenodd"
    d="M3.875 3.25C3.70924 3.25 3.55027 3.31585 3.43306 3.43306C3.31585 3.55027 3.25 3.70924 3.25 3.875V5.75C3.25 6.09518 2.97018 6.375 2.625 6.375C2.27982 6.375 2 6.09518 2 5.75V3.875C2 3.37772 2.19754 2.90081 2.54917 2.54917C2.90081 2.19754 3.37772 2 3.875 2H5.75C6.09518 2 6.375 2.27982 6.375 2.625C6.375 2.97018 6.09518 3.25 5.75 3.25H3.875ZM17.625 2.625C17.625 2.27982 17.9048 2 18.25 2H20.125C20.6223 2 21.0992 2.19754 21.4508 2.54917C21.8025 2.9008 22 3.37772 22 3.875V5.75C22 6.09518 21.7202 6.375 21.375 6.375C21.0298 6.375 20.75 6.09518 20.75 5.75V3.875C20.75 3.70924 20.6842 3.55027 20.5669 3.43306C20.4497 3.31585 20.2908 3.25 20.125 3.25H18.25C17.9048 3.25 17.625 2.97018 17.625 2.625ZM6.5284 12C6.57319 12.0566 6.62356 12.1189 6.67936 12.1858C6.95566 12.5174 7.36109 12.9595 7.87549 13.4005C8.91416 14.2907 10.3362 15.125 12 15.125C13.6638 15.125 15.0858 14.2907 16.1245 13.4005C16.6389 12.9595 17.0443 12.5174 17.3206 12.1858C17.3764 12.1189 17.4268 12.0566 17.4716 12C17.4268 11.9434 17.3764 11.8811 17.3206 11.8142C17.0443 11.4826 16.6389 11.0405 16.1245 10.5995C15.0858 9.70925 13.6638 8.875 12 8.875C10.3362 8.875 8.91416 9.70925 7.87549 10.5995C7.36109 11.0405 6.95566 11.4826 6.67936 11.8142C6.62356 11.8811 6.57319 11.9434 6.5284 12ZM18.25 12C18.77 11.6533 18.7699 11.6531 18.7698 11.6529L18.7686 11.6512L18.7663 11.6478L18.7589 11.6368C18.7527 11.6278 18.7441 11.6152 18.733 11.5995C18.711 11.5679 18.6792 11.5234 18.6381 11.4677C18.5559 11.3564 18.4361 11.2001 18.2809 11.0139C17.9713 10.6424 17.5173 10.147 16.938 9.65046C15.7892 8.66575 14.0862 7.625 12 7.625C9.91381 7.625 8.21084 8.66575 7.06201 9.65046C6.48266 10.147 6.02872 10.6424 5.71908 11.0139C5.56392 11.2001 5.44405 11.3564 5.36189 11.4677C5.32078 11.5234 5.28904 11.5679 5.26697 11.5995C5.25593 11.6152 5.24731 11.6278 5.24113 11.6368L5.2337 11.6478L5.23137 11.6512L5.23055 11.6524C5.23042 11.6526 5.22997 11.6533 5.75 12L5.22997 11.6533C5.09001 11.8632 5.09001 12.1368 5.22997 12.3467L5.75 12C5.22997 12.3467 5.22983 12.3465 5.22997 12.3467L5.23137 12.3488L5.2337 12.3522L5.24113 12.3632C5.24731 12.3722 5.25593 12.3848 5.26697 12.4005C5.28904 12.4321 5.32078 12.4766 5.36189 12.5323C5.44405 12.6436 5.56392 12.7999 5.71908 12.9861C6.02872 13.3576 6.48266 13.853 7.06201 14.3495C8.21084 15.3343 9.91381 16.375 12 16.375C14.0862 16.375 15.7892 15.3343 16.938 14.3495C17.5173 13.853 17.9713 13.3576 18.2809 12.9861C18.4361 12.7999 18.5559 12.6436 18.6381 12.5323C18.6792 12.4766 18.711 12.4321 18.733 12.4005C18.7441 12.3848 18.7527 12.3722 18.7589 12.3632L18.7663 12.3522L18.7686 12.3488L18.7694 12.3476C18.7696 12.3474 18.77 12.3467 18.25 12ZM18.25 12L18.77 12.3467C18.91 12.1368 18.9097 11.8629 18.7698 11.6529L18.25 12ZM12 11.0625C11.4822 11.0625 11.0625 11.4822 11.0625 12C11.0625 12.5178 11.4822 12.9375 12 12.9375C12.5178 12.9375 12.9375 12.5178 12.9375 12C12.9375 11.4822 12.5178 11.0625 12 11.0625ZM9.8125 12C9.8125 10.7919 10.7919 9.8125 12 9.8125C13.2081 9.8125 14.1875 10.7919 14.1875 12C14.1875 13.2081 13.2081 14.1875 12 14.1875C10.7919 14.1875 9.8125 13.2081 9.8125 12ZM2.625 17.625C2.97018 17.625 3.25 17.9048 3.25 18.25V20.125C3.25 20.2908 3.31585 20.4497 3.43306 20.5669C3.55027 20.6842 3.70924 20.75 3.875 20.75H5.75C6.09518 20.75 6.375 21.0298 6.375 21.375C6.375 21.7202 6.09518 22 5.75 22H3.875C3.37772 22 2.9008 21.8025 2.54917 21.4508C2.19754 21.0992 2 20.6223 2 20.125V18.25C2 17.9048 2.27982 17.625 2.625 17.625ZM21.375 17.625C21.7202 17.625 22 17.9048 22 18.25V20.125C22 20.6223 21.8025 21.0992 21.4508 21.4508C21.0992 21.8025 20.6223 22 20.125 22H18.25C17.9048 22 17.625 21.7202 17.625 21.375C17.625 21.0298 17.9048 20.75 18.25 20.75H20.125C20.2908 20.75 20.4497 20.6842 20.5669 20.5669C20.6842 20.4497 20.75 20.2908 20.75 20.125V18.25C20.75 17.9048 21.0298 17.625 21.375 17.625Z"
    fill="currentColor" />
</svg>