<svg width="24" height="24" viewBox="0 0 24 24" fill="none" xmlns="http://www.w3.org/2000/svg">
<path d="M6.375 9.5C6.20924 9.5 6.05027 9.43415 5.93306 9.31694C5.81585 9.19973 5.75 9.04076 5.75 8.875V6.375C5.75 6.20924 5.81585 6.05027 5.93306 5.93306C6.05027 5.81585 6.20924 5.75 6.375 5.75H8.875C9.04076 5.75 9.19973 5.81585 9.31694 5.93306C9.43415 6.05027 9.5 6.20924 9.5 6.375V8.875C9.5 9.04076 9.43415 9.19973 9.31694 9.31694C9.19973 9.43415 9.04076 9.5 8.875 9.5H6.375ZM8.25 8.25V7H7V8.25H8.25Z" fill="var(--cx-icon-color)"/>
<path d="M6.375 18.25C6.20924 18.25 6.05027 18.1842 5.93306 18.0669C5.81585 17.9497 5.75 17.7908 5.75 17.625V15.125C5.75 14.9592 5.81585 14.8003 5.93306 14.6831C6.05027 14.5658 6.20924 14.5 6.375 14.5H8.875C9.04076 14.5 9.19973 14.5658 9.31694 14.6831C9.43415 14.8003 9.5 14.9592 9.5 15.125V17.625C9.5 17.7908 9.43415 17.9497 9.31694 18.0669C9.19973 18.1842 9.04076 18.25 8.875 18.25H6.375ZM8.25 17V15.75H7V17H8.25Z" fill="var(--cx-icon-color)"/>
<path d="M15.125 9.5C14.9592 9.5 14.8003 9.43415 14.6831 9.31694C14.5658 9.19973 14.5 9.04076 14.5 8.875V6.375C14.5 6.20924 14.5658 6.05027 14.6831 5.93306C14.8003 5.81585 14.9592 5.75 15.125 5.75H17.625C17.7908 5.75 17.9497 5.81585 18.0669 5.93306C18.1842 6.05027 18.25 6.20924 18.25 6.375V8.875C18.25 9.04076 18.1842 9.19973 18.0669 9.31694C17.9497 9.43415 17.7908 9.5 17.625 9.5H15.125ZM17 8.25V7H15.75V8.25H17Z" fill="var(--cx-icon-color)"/>
<path d="M11.375 14.5C11.2092 14.5 11.0503 14.4342 10.9331 14.3169C10.8158 14.1997 10.75 14.0408 10.75 13.875V13.25H6.375C6.20924 13.25 6.05027 13.1842 5.93306 13.0669C5.81585 12.9497 5.75 12.7908 5.75 12.625C5.75 12.4592 5.81585 12.3003 5.93306 12.1831C6.05027 12.0658 6.20924 12 6.375 12H11.375C11.5408 12 11.6997 12.0658 11.8169 12.1831C11.9342 12.3003 12 12.4592 12 12.625V13.875C12 14.0408 11.9342 14.1997 11.8169 14.3169C11.6997 14.4342 11.5408 14.5 11.375 14.5Z" fill="var(--cx-icon-color)"/>
<path d="M13.875 18.25C13.7092 18.25 13.5503 18.1842 13.4331 18.0669C13.3158 17.9497 13.25 17.7908 13.25 17.625V13.875C13.25 13.7092 13.3158 13.5503 13.4331 13.4331C13.5503 13.3158 13.7092 13.25 13.875 13.25C14.0408 13.25 14.1997 13.3158 14.3169 13.4331C14.4342 13.5503 14.5 13.7092 14.5 13.875V17H17V14.5H16.375C16.2092 14.5 16.0503 14.4342 15.9331 14.3169C15.8158 14.1997 15.75 14.0408 15.75 13.875C15.75 13.7092 15.8158 13.5503 15.9331 13.4331C16.0503 13.3158 16.2092 13.25 16.375 13.25H17.625C17.7908 13.25 17.9497 13.3158 18.0669 13.4331C18.1842 13.5503 18.25 13.7092 18.25 13.875V17.625C18.25 17.7908 18.1842 17.9497 18.0669 18.0669C17.9497 18.1842 17.7908 18.25 17.625 18.25H13.875Z" fill="var(--cx-icon-color)"/>
<path d="M11.375 18.25C11.2092 18.25 11.0503 18.1842 10.9331 18.0669C10.8158 17.9497 10.75 17.7908 10.75 17.625V16.375C10.75 16.2092 10.8158 16.0503 10.9331 15.9331C11.0503 15.8158 11.2092 15.75 11.375 15.75C11.5408 15.75 11.6997 15.8158 11.8169 15.9331C11.9342 16.0503 12 16.2092 12 16.375V17.625C12 17.7908 11.9342 17.9497 11.8169 18.0669C11.6997 18.1842 11.5408 18.25 11.375 18.25Z" fill="var(--cx-icon-color)"/>
<path d="M11.375 10.75C11.2092 10.75 11.0503 10.6842 10.9331 10.5669C10.8158 10.4497 10.75 10.2908 10.75 10.125V6.375C10.75 6.20924 10.8158 6.05027 10.9331 5.93306C11.0503 5.81585 11.2092 5.75 11.375 5.75C11.5408 5.75 11.6997 5.81585 11.8169 5.93306C11.9342 6.05027 12 6.20924 12 6.375V9.5H12.625C12.7908 9.5 12.9497 9.56585 13.0669 9.68306C13.1842 9.80027 13.25 9.95924 13.25 10.125C13.25 10.2908 13.1842 10.4497 13.0669 10.5669C12.9497 10.6842 12.7908 10.75 12.625 10.75H11.375Z" fill="var(--cx-icon-color)"/>
<path d="M15.125 12C14.9592 12 14.8003 11.9342 14.6831 11.8169C14.5658 11.6997 14.5 11.5408 14.5 11.375C14.5 11.2092 14.5658 11.0503 14.6831 10.9331C14.8003 10.8158 14.9592 10.75 15.125 10.75H17.625C17.7908 10.75 17.9497 10.8158 18.0669 10.9331C18.1842 11.0503 18.25 11.2092 18.25 11.375C18.25 11.5408 18.1842 11.6997 18.0669 11.8169C17.9497 11.9342 17.7908 12 17.625 12H15.125Z" fill="var(--cx-icon-color)"/>
<path d="M2.625 7.625C2.45924 7.625 2.30027 7.55915 2.18306 7.44194C2.06585 7.32473 2 7.16576 2 7V3.875C2.00044 3.37785 2.19813 2.9012 2.54966 2.54966C2.9012 2.19813 3.37785 2.00044 3.875 2H7C7.16576 2 7.32473 2.06585 7.44194 2.18306C7.55915 2.30027 7.625 2.45924 7.625 2.625C7.625 2.79076 7.55915 2.94973 7.44194 3.06694C7.32473 3.18415 7.16576 3.25 7 3.25H3.875C3.70924 3.25 3.55027 3.31585 3.43306 3.43306C3.31585 3.55027 3.25 3.70924 3.25 3.875V7C3.25 7.16576 3.18415 7.32473 3.06694 7.44194C2.94973 7.55915 2.79076 7.625 2.625 7.625Z" fill="var(--cx-icon-color)"/>
<path d="M21.375 7.625C21.2092 7.625 21.0503 7.55915 20.9331 7.44194C20.8158 7.32473 20.75 7.16576 20.75 7V3.875C20.75 3.70924 20.6842 3.55027 20.5669 3.43306C20.4497 3.31585 20.2908 3.25 20.125 3.25H17C16.8342 3.25 16.6753 3.18415 16.5581 3.06694C16.4408 2.94973 16.375 2.79076 16.375 2.625C16.375 2.45924 16.4408 2.30027 16.5581 2.18306C16.6753 2.06585 16.8342 2 17 2H20.125C20.6221 2.00044 21.0988 2.19813 21.4503 2.54966C21.8019 2.9012 21.9996 3.37785 22 3.875V7C22 7.16576 21.9342 7.32473 21.8169 7.44194C21.6997 7.55915 21.5408 7.625 21.375 7.625Z" fill="var(--cx-icon-color)"/>
<path d="M17 22C16.8342 22 16.6753 21.9342 16.5581 21.8169C16.4408 21.6997 16.375 21.5408 16.375 21.375C16.375 21.2092 16.4408 21.0503 16.5581 20.9331C16.6753 20.8158 16.8342 20.75 17 20.75H20.125C20.2908 20.75 20.4497 20.6842 20.5669 20.5669C20.6842 20.4497 20.75 20.2908 20.75 20.125V17C20.75 16.8342 20.8158 16.6753 20.9331 16.5581C21.0503 16.4408 21.2092 16.375 21.375 16.375C21.5408 16.375 21.6997 16.4408 21.8169 16.5581C21.9342 16.6753 22 16.8342 22 17V20.125C21.9996 20.6221 21.8019 21.0988 21.4503 21.4503C21.0988 21.8019 20.6221 21.9996 20.125 22H17Z" fill="var(--cx-icon-color)"/>
<path d="M3.875 22C3.37785 21.9996 2.9012 21.8019 2.54966 21.4503C2.19813 21.0988 2.00044 20.6221 2 20.125V17C2 16.8342 2.06585 16.6753 2.18306 16.5581C2.30027 16.4408 2.45924 16.375 2.625 16.375C2.79076 16.375 2.94973 16.4408 3.06694 16.5581C3.18415 16.6753 3.25 16.8342 3.25 17V20.125C3.25 20.47 3.53 20.75 3.875 20.75H7C7.16576 20.75 7.32473 20.8158 7.44194 20.9331C7.55915 21.0503 7.625 21.2092 7.625 21.375C7.625 21.5408 7.55915 21.6997 7.44194 21.8169C7.32473 21.9342 7.16576 22 7 22H3.875Z" fill="var(--cx-icon-color)"/>
</svg>
