<svg xmlns="http://www.w3.org/2000/svg" width="20" height="20" viewBox="0 0 20 20" fill="none">
  <path
    d="M4.375 7.5C4.20924 7.5 4.05027 7.43415 3.93306 7.31694C3.81585 7.19973 3.75 7.04076 3.75 6.875V4.375C3.75 4.20924 3.81585 4.05027 3.93306 3.93306C4.05027 3.81585 4.20924 3.75 4.375 3.75H6.875C7.04076 3.75 7.19973 3.81585 7.31694 3.93306C7.43415 4.05027 7.5 4.20924 7.5 4.375V6.875C7.5 7.04076 7.43415 7.19973 7.31694 7.31694C7.19973 7.43415 7.04076 7.5 6.875 7.5H4.375ZM6.25 6.25V5H5V6.25H6.25Z"
    fill="currentColor" />
  <path
    d="M4.375 16.25C4.20924 16.25 4.05027 16.1842 3.93306 16.0669C3.81585 15.9497 3.75 15.7908 3.75 15.625V13.125C3.75 12.9592 3.81585 12.8003 3.93306 12.6831C4.05027 12.5658 4.20924 12.5 4.375 12.5H6.875C7.04076 12.5 7.19973 12.5658 7.31694 12.6831C7.43415 12.8003 7.5 12.9592 7.5 13.125V15.625C7.5 15.7908 7.43415 15.9497 7.31694 16.0669C7.19973 16.1842 7.04076 16.25 6.875 16.25H4.375ZM6.25 15V13.75H5V15H6.25Z"
    fill="currentColor" />
  <path
    d="M13.125 7.5C12.9592 7.5 12.8003 7.43415 12.6831 7.31694C12.5658 7.19973 12.5 7.04076 12.5 6.875V4.375C12.5 4.20924 12.5658 4.05027 12.6831 3.93306C12.8003 3.81585 12.9592 3.75 13.125 3.75H15.625C15.7908 3.75 15.9497 3.81585 16.0669 3.93306C16.1842 4.05027 16.25 4.20924 16.25 4.375V6.875C16.25 7.04076 16.1842 7.19973 16.0669 7.31694C15.9497 7.43415 15.7908 7.5 15.625 7.5H13.125ZM15 6.25V5H13.75V6.25H15Z"
    fill="currentColor" />
  <path
    d="M9.375 12.5C9.20924 12.5 9.05027 12.4342 8.93306 12.3169C8.81585 12.1997 8.75 12.0408 8.75 11.875V11.25H4.375C4.20924 11.25 4.05027 11.1842 3.93306 11.0669C3.81585 10.9497 3.75 10.7908 3.75 10.625C3.75 10.4592 3.81585 10.3003 3.93306 10.1831C4.05027 10.0658 4.20924 10 4.375 10H9.375C9.54076 10 9.69973 10.0658 9.81694 10.1831C9.93415 10.3003 10 10.4592 10 10.625V11.875C10 12.0408 9.93415 12.1997 9.81694 12.3169C9.69973 12.4342 9.54076 12.5 9.375 12.5Z"
    fill="currentColor" />
  <path
    d="M11.875 16.25C11.7092 16.25 11.5503 16.1842 11.4331 16.0669C11.3158 15.9497 11.25 15.7908 11.25 15.625V11.875C11.25 11.7092 11.3158 11.5503 11.4331 11.4331C11.5503 11.3158 11.7092 11.25 11.875 11.25C12.0408 11.25 12.1997 11.3158 12.3169 11.4331C12.4342 11.5503 12.5 11.7092 12.5 11.875V15H15V12.5H14.375C14.2092 12.5 14.0503 12.4342 13.9331 12.3169C13.8158 12.1997 13.75 12.0408 13.75 11.875C13.75 11.7092 13.8158 11.5503 13.9331 11.4331C14.0503 11.3158 14.2092 11.25 14.375 11.25H15.625C15.7908 11.25 15.9497 11.3158 16.0669 11.4331C16.1842 11.5503 16.25 11.7092 16.25 11.875V15.625C16.25 15.7908 16.1842 15.9497 16.0669 16.0669C15.9497 16.1842 15.7908 16.25 15.625 16.25H11.875Z"
    fill="currentColor" />
  <path
    d="M9.375 16.25C9.20924 16.25 9.05027 16.1842 8.93306 16.0669C8.81585 15.9497 8.75 15.7908 8.75 15.625V14.375C8.75 14.2092 8.81585 14.0503 8.93306 13.9331C9.05027 13.8158 9.20924 13.75 9.375 13.75C9.54076 13.75 9.69973 13.8158 9.81694 13.9331C9.93415 14.0503 10 14.2092 10 14.375V15.625C10 15.7908 9.93415 15.9497 9.81694 16.0669C9.69973 16.1842 9.54076 16.25 9.375 16.25Z"
    fill="currentColor" />
  <path
    d="M9.375 8.75C9.20924 8.75 9.05027 8.68415 8.93306 8.56694C8.81585 8.44973 8.75 8.29076 8.75 8.125V4.375C8.75 4.20924 8.81585 4.05027 8.93306 3.93306C9.05027 3.81585 9.20924 3.75 9.375 3.75C9.54076 3.75 9.69973 3.81585 9.81694 3.93306C9.93415 4.05027 10 4.20924 10 4.375V7.5H10.625C10.7908 7.5 10.9497 7.56585 11.0669 7.68306C11.1842 7.80027 11.25 7.95924 11.25 8.125C11.25 8.29076 11.1842 8.44973 11.0669 8.56694C10.9497 8.68415 10.7908 8.75 10.625 8.75H9.375Z"
    fill="currentColor" />
  <path
    d="M13.125 10C12.9592 10 12.8003 9.93415 12.6831 9.81694C12.5658 9.69973 12.5 9.54076 12.5 9.375C12.5 9.20924 12.5658 9.05027 12.6831 8.93306C12.8003 8.81585 12.9592 8.75 13.125 8.75H15.625C15.7908 8.75 15.9497 8.81585 16.0669 8.93306C16.1842 9.05027 16.25 9.20924 16.25 9.375C16.25 9.54076 16.1842 9.69973 16.0669 9.81694C15.9497 9.93415 15.7908 10 15.625 10H13.125Z"
    fill="currentColor" />
  <path
    d="M0.625 5.625C0.45924 5.625 0.300269 5.55915 0.183058 5.44194C0.065848 5.32473 0 5.16576 0 5V1.875C0.000441319 1.37785 0.198127 0.901197 0.549662 0.549662C0.901197 0.198127 1.37785 0.000441319 1.875 0H5C5.16576 0 5.32473 0.065848 5.44194 0.183058C5.55915 0.300269 5.625 0.45924 5.625 0.625C5.625 0.79076 5.55915 0.949732 5.44194 1.06694C5.32473 1.18415 5.16576 1.25 5 1.25H1.875C1.70924 1.25 1.55027 1.31585 1.43306 1.43306C1.31585 1.55027 1.25 1.70924 1.25 1.875V5C1.25 5.16576 1.18415 5.32473 1.06694 5.44194C0.949732 5.55915 0.79076 5.625 0.625 5.625Z"
    fill="currentColor" />
  <path
    d="M19.375 5.625C19.2092 5.625 19.0503 5.55915 18.9331 5.44194C18.8158 5.32473 18.75 5.16576 18.75 5V1.875C18.75 1.70924 18.6842 1.55027 18.5669 1.43306C18.4497 1.31585 18.2908 1.25 18.125 1.25H15C14.8342 1.25 14.6753 1.18415 14.5581 1.06694C14.4408 0.949732 14.375 0.79076 14.375 0.625C14.375 0.45924 14.4408 0.300269 14.5581 0.183058C14.6753 0.065848 14.8342 0 15 0H18.125C18.6221 0.000441319 19.0988 0.198127 19.4503 0.549662C19.8019 0.901197 19.9996 1.37785 20 1.875V5C20 5.16576 19.9342 5.32473 19.8169 5.44194C19.6997 5.55915 19.5408 5.625 19.375 5.625Z"
    fill="currentColor" />
  <path
    d="M15 20C14.8342 20 14.6753 19.9342 14.5581 19.8169C14.4408 19.6997 14.375 19.5408 14.375 19.375C14.375 19.2092 14.4408 19.0503 14.5581 18.9331C14.6753 18.8158 14.8342 18.75 15 18.75H18.125C18.2908 18.75 18.4497 18.6842 18.5669 18.5669C18.6842 18.4497 18.75 18.2908 18.75 18.125V15C18.75 14.8342 18.8158 14.6753 18.9331 14.5581C19.0503 14.4408 19.2092 14.375 19.375 14.375C19.5408 14.375 19.6997 14.4408 19.8169 14.5581C19.9342 14.6753 20 14.8342 20 15V18.125C19.9996 18.6221 19.8019 19.0988 19.4503 19.4503C19.0988 19.8019 18.6221 19.9996 18.125 20H15Z"
    fill="currentColor" />
  <path
    d="M1.875 20C1.37785 19.9996 0.901197 19.8019 0.549662 19.4503C0.198127 19.0988 0.000441319 18.6221 0 18.125V15C0 14.8342 0.065848 14.6753 0.183058 14.5581C0.300269 14.4408 0.45924 14.375 0.625 14.375C0.79076 14.375 0.949732 14.4408 1.06694 14.5581C1.18415 14.6753 1.25 14.8342 1.25 15V18.125C1.25 18.47 1.53 18.75 1.875 18.75H5C5.16576 18.75 5.32473 18.8158 5.44194 18.9331C5.55915 19.0503 5.625 19.2092 5.625 19.375C5.625 19.5408 5.55915 19.6997 5.44194 19.8169C5.32473 19.9342 5.16576 20 5 20H1.875Z"
    fill="currentColor" />
</svg>