<svg width="24" height="24" viewBox="0 0 24 24" fill="none" xmlns="http://www.w3.org/2000/svg">
<path fill-rule="evenodd" clip-rule="evenodd" d="M15.7497 12L6.81741 3.06692C6.57334 2.82283 6.57336 2.4271 6.81745 2.18304C7.06154 1.93897 7.45727 1.93899 7.70133 2.18308L16.6335 11.1161C16.6335 11.1161 16.6336 11.1161 16.6336 11.1162C16.7497 11.2322 16.8419 11.3699 16.9047 11.5216C16.9676 11.6732 17 11.8358 17 12C17 12.1642 16.9676 12.3268 16.9047 12.4784C16.8419 12.6301 16.7497 12.7678 16.6336 12.8838C16.6336 12.8839 16.6335 12.8839 16.6335 12.8839L7.70133 21.8169C7.45727 22.061 7.06154 22.061 6.81745 21.817C6.57336 21.5729 6.57334 21.1772 6.81741 20.9331L15.7497 12Z" fill="currentColor"/>
</svg>
