<svg width="24" height="24" viewBox="0 0 24 24" fill="none" xmlns="http://www.w3.org/2000/svg">
<path fill-rule="evenodd" clip-rule="evenodd" d="M16.5534 7.46945C15.0571 3.94878 10.9901 2.30766 7.46945 3.80391C3.94878 5.30016 2.30766 9.36718 3.80391 12.8879C5.30016 16.4085 9.36718 18.0496 12.8879 16.5534C13.7148 16.202 14.438 15.7087 15.0412 15.114C15.0523 15.101 15.064 15.0883 15.0763 15.0759C15.0885 15.0638 15.1011 15.0522 15.114 15.0412C17.0233 13.1018 17.684 10.1297 16.5534 7.46945ZM16.3868 15.5026C18.3429 13.2181 18.9599 9.93622 17.7038 6.98054C15.9375 2.82451 11.1366 0.887229 6.98054 2.6535C2.82451 4.41977 0.887233 9.22074 2.6535 13.3768C4.41977 17.5328 9.22074 19.4701 13.3768 17.7038C14.1698 17.3668 14.882 16.9192 15.5032 16.3868L20.933 21.8174C21.1771 22.0615 21.5728 22.0615 21.8169 21.8175C22.061 21.5734 22.061 21.1777 21.817 20.9336L16.3868 15.5026Z" fill="currentColor"/>
</svg>
