<svg width="24" height="24" viewBox="0 0 24 24" fill="none" xmlns="http://www.w3.org/2000/svg">
<path fill-rule="evenodd" clip-rule="evenodd" d="M3.875 3.25C3.70924 3.25 3.55027 3.31585 3.43306 3.43306C3.31585 3.55027 3.25 3.70924 3.25 3.875V10.2808C3.24966 12.792 4.13875 15.2222 5.75956 17.1402C7.35761 19.0313 9.56514 20.3041 12 20.7406C14.4349 20.3041 16.6424 19.0313 18.2404 17.1402C19.8612 15.2222 20.7503 12.7921 20.75 10.2809V3.875C20.75 3.70924 20.6842 3.55027 20.5669 3.43306C20.4497 3.31585 20.2908 3.25 20.125 3.25H3.875ZM2.54917 2.54917C2.90081 2.19754 3.37772 2 3.875 2H20.125C20.6223 2 21.0992 2.19754 21.4508 2.54917C21.8025 2.9008 22 3.37772 22 3.875V10.2807C22 10.2807 22 10.2808 22 10.2807C22.0004 13.0873 21.0067 15.8034 19.1952 17.947C17.3837 20.0907 14.8715 21.5235 12.1042 21.9913C12.0352 22.0029 11.9648 22.0029 11.8958 21.9913C9.12851 21.5235 6.6163 20.0907 4.8048 17.947C2.99333 15.8034 1.99964 13.0874 2 10.2808C2 10.2808 2 10.2809 2 10.2808V3.875C2 3.37772 2.19754 2.90081 2.54917 2.54917ZM12 5.54167C12.3452 5.54167 12.625 5.82149 12.625 6.16667V17.8333C12.625 18.1785 12.3452 18.4583 12 18.4583C11.6548 18.4583 11.375 18.1785 11.375 17.8333V6.16667C11.375 5.82149 11.6548 5.54167 12 5.54167Z" fill="currentColor"/>
</svg>
