<svg width="24" height="24" viewBox="0 0 24 24" fill="none" xmlns="http://www.w3.org/2000/svg">
<path d="M14.593 22C14.3893 22 14.1855 21.9661 13.9903 21.8982C13.3875 21.7032 12.9291 21.2199 12.7593 20.6093L10.9341 13.054L3.40406 11.2478C3.40406 11.2478 3.38708 11.2478 3.37859 11.2478C2.88621 11.1121 2.48721 10.7899 2.24102 10.3489C1.99482 9.908 1.9354 9.39922 2.07123 8.9074C2.24102 8.30535 2.69944 7.82201 3.2937 7.62698L20.3318 2.06432C21.0025 1.84385 21.7241 2.20847 21.9363 2.87837C22.0212 3.13275 22.0212 3.4041 21.9363 3.65849L16.3843 20.6857C16.223 21.169 15.8834 21.5591 15.4335 21.788C15.1618 21.9237 14.8732 21.9915 14.5845 21.9915L14.593 22ZM3.71816 10.0182L11.6133 11.9092C11.8425 11.9686 12.0292 12.1466 12.0802 12.3756L13.9903 20.2871C14.0412 20.4652 14.194 20.6263 14.3893 20.6857C14.5506 20.7365 14.7204 20.7281 14.8647 20.6517C15.0175 20.5754 15.1279 20.4482 15.1788 20.2871L20.7308 3.27691L3.6927 8.83109C3.49744 8.89892 3.35312 9.05156 3.2937 9.25507C3.20031 9.58578 3.38708 9.92496 3.71816 10.0267V10.0182Z" fill="var(--cx-icon-color)"/>
<path d="M11.4689 13.1642C11.3077 13.1642 11.1464 13.1048 11.019 12.9776C10.7728 12.7317 10.7728 12.3247 11.019 12.0788L20.7308 2.37807C20.977 2.13216 21.3845 2.13216 21.6307 2.37807C21.8769 2.62398 21.8769 3.031 21.6307 3.27691L11.9189 12.9776C11.7915 13.1048 11.6302 13.1642 11.4689 13.1642Z" fill="var(--cx-icon-color)"/>
</svg>
