<svg width="24" height="24" viewBox="0 0 24 24" fill="none" xmlns="http://www.w3.org/2000/svg">
<path d="M8.7981 22C8.2562 22 7.71429 21.8082 7.28077 21.4164C6.78055 20.9662 6.51377 20.3159 6.54712 19.6406L6.60548 18.4735C6.63049 17.9149 6.2053 17.448 5.65506 17.4147C5.62171 17.4147 5.58836 17.4147 5.55502 17.4147L4.38784 17.473C3.14563 17.5314 2.07016 16.581 2.00346 15.3387C1.97011 14.6551 2.2369 14.0048 2.74545 13.5463L3.6125 12.7626C4.02101 12.3875 4.05436 11.7538 3.68753 11.337C3.66252 11.312 3.63751 11.287 3.6125 11.262L2.74545 10.4699C2.29525 10.0698 2.03681 9.51953 2.00346 8.91093C1.97011 8.31067 2.17854 7.72708 2.58705 7.28522C3.03725 6.785 3.69587 6.50154 4.37116 6.54323L5.53834 6.60159C6.08025 6.6266 6.57213 6.20141 6.59714 5.65117C6.59714 5.61782 6.59714 5.57614 6.59714 5.54279L6.53878 4.37561C6.48042 3.1334 7.44751 2.07461 8.68972 2.00791C9.35668 1.96622 10.007 2.24135 10.4655 2.74156L11.2492 3.60861C11.6243 4.01712 12.258 4.05047 12.6665 3.68364C12.6915 3.65863 12.7165 3.63362 12.7415 3.60861L13.5335 2.74156C14.3672 1.81616 15.7928 1.74946 16.7182 2.58316C17.2268 3.0417 17.4936 3.69198 17.4602 4.37561L17.4019 5.54279C17.3769 6.09303 17.802 6.56824 18.3606 6.60159C18.394 6.60159 18.4273 6.60159 18.4607 6.60159L19.6278 6.54323C20.2281 6.50988 20.8117 6.71831 21.2536 7.12682C21.7038 7.53533 21.9622 8.08557 21.9956 8.68583C22.0289 9.36947 21.7621 10.0198 21.2536 10.4699L20.3865 11.2536C19.978 11.6288 19.9447 12.2624 20.3115 12.6793C20.3365 12.7043 20.3615 12.7293 20.3865 12.7543L21.2536 13.538C21.7038 13.9465 21.9622 14.4967 21.9956 15.097C22.0289 15.6972 21.8205 16.2808 21.412 16.7227C20.9534 17.2312 20.3031 17.498 19.6195 17.4647L18.4523 17.4063C17.8938 17.373 17.4269 17.8065 17.3935 18.3567C17.3935 18.3901 17.3935 18.4234 17.3935 18.4568L17.4519 19.624C17.4769 20.2326 17.2685 20.8078 16.86 21.2497C16.4515 21.6915 15.8929 21.9583 15.2926 21.9833C14.6173 22.025 13.9754 21.7499 13.5252 21.2497L12.7415 20.3826C12.3663 19.9741 11.7327 19.9408 11.3159 20.3076C11.2909 20.3326 11.2659 20.3576 11.2408 20.3826L10.4488 21.2497C10.007 21.7416 9.39003 21.9917 8.77309 21.9917L8.7981 22ZM5.5967 16.1641C5.5967 16.1641 5.67173 16.1641 5.71342 16.1641C6.31368 16.1975 6.87226 16.4559 7.27244 16.9061C7.67261 17.3563 7.88104 17.9316 7.84769 18.5318L7.78933 19.699C7.77265 19.9991 7.89771 20.2826 8.11447 20.491C8.52298 20.8662 9.16493 20.8328 9.54009 20.4243L10.3238 19.5573C10.3738 19.4989 10.4322 19.4489 10.4822 19.3989C11.4076 18.5652 12.8415 18.6402 13.6752 19.5656L14.4589 20.4326C14.659 20.6494 14.9341 20.7745 15.2426 20.7578C15.5094 20.7495 15.7595 20.6327 15.9429 20.4326C16.1263 20.2326 16.218 19.9741 16.2097 19.7073L16.1513 18.5402C16.1513 18.4651 16.1513 18.3817 16.1513 18.3067C16.218 17.0645 17.2768 16.1058 18.519 16.1641L19.6862 16.2225C19.9947 16.2391 20.2781 16.1141 20.4866 15.889C20.8617 15.4805 20.8284 14.8385 20.4115 14.4634L19.5445 13.6797C19.4861 13.6297 19.4361 13.5713 19.3777 13.5129C18.9776 13.0628 18.7691 12.4875 18.8025 11.8872C18.8358 11.287 19.0943 10.7284 19.5445 10.3282L20.4115 9.54454C20.6366 9.34446 20.7533 9.05266 20.745 8.74419C20.7283 8.47741 20.6116 8.2273 20.4115 8.04389C20.2114 7.86047 19.953 7.76877 19.6862 7.78544L18.519 7.8438C18.444 7.8438 18.369 7.8438 18.2939 7.8438C17.0517 7.78544 16.093 6.71831 16.1513 5.4761L16.2097 4.30892C16.2264 4.00879 16.1013 3.71699 15.8762 3.50857C15.4677 3.1334 14.8257 3.16675 14.4506 3.5836L13.6586 4.45065C13.6085 4.50901 13.5502 4.56736 13.4918 4.61739C12.5664 5.45108 11.1408 5.37605 10.3071 4.45065L9.52342 3.5836C9.32333 3.3585 9.03154 3.24178 8.73141 3.25846C8.17283 3.28347 7.74764 3.75868 7.77265 4.30892L7.83101 5.4761C7.83101 5.55113 7.83101 5.6345 7.83101 5.70953C7.76432 6.95174 6.70552 7.9105 5.45497 7.8438L4.28779 7.78544C3.996 7.76877 3.69587 7.89382 3.49578 8.11892C3.12062 8.52743 3.15396 9.16938 3.56248 9.54454L4.42952 10.3366C4.48788 10.3866 4.5379 10.4366 4.58793 10.495C5.42162 11.4204 5.35493 12.8543 4.42952 13.688L3.56248 14.4717C3.33738 14.6718 3.22066 14.9636 3.23733 15.2721C3.25401 15.5388 3.37073 15.7889 3.57081 15.964C3.7709 16.1474 4.02101 16.2391 4.29613 16.2225L5.46331 16.1641C5.46331 16.1641 5.53834 16.1641 5.58003 16.1641H5.5967Z" fill="var(--cx-icon-color)"/>
<path d="M11.9995 16.3892C9.58178 16.3892 7.62259 14.43 7.62259 12.0123C7.62259 9.59457 9.58178 7.63538 11.9995 7.63538C14.4172 7.63538 16.3764 9.59457 16.3764 12.0123C16.3764 14.43 14.4172 16.3892 11.9995 16.3892ZM11.9995 8.88592C10.2737 8.88592 8.87314 10.2865 8.87314 12.0123C8.87314 13.738 10.2737 15.1387 11.9995 15.1387C13.7253 15.1387 15.1259 13.738 15.1259 12.0123C15.1259 10.2865 13.7253 8.88592 11.9995 8.88592Z" fill="var(--cx-icon-color)"/>
</svg>
