<svg width="24" height="24" viewBox="0 0 24 24" fill="none" xmlns="http://www.w3.org/2000/svg">
<path fill-rule="evenodd" clip-rule="evenodd" d="M2.02037 11.3565C2.00686 11.5693 2 11.7838 2 12C2 17.5228 6.47715 22 12 22C17.5228 22 22 17.5228 22 12C22 11.7838 21.9931 11.5693 21.9796 11.3565C21.9792 11.347 21.9786 11.3375 21.9778 11.328C21.6321 6.11849 17.297 2 12 2C6.70299 2 2.3679 6.11848 2.02222 11.328C2.02139 11.3375 2.02077 11.347 2.02037 11.3565ZM3.31061 10.9646L7.54542 12.5529C7.88502 12.2114 8.35532 12 8.875 12H15.125C15.6447 12 16.115 12.2114 16.4546 12.5529L20.6894 10.9646C20.1772 6.62013 16.4822 3.25 12 3.25C7.51782 3.25 3.82278 6.62013 3.31061 10.9646ZM20.7456 12.2786L16.9907 13.6869C16.9968 13.7488 17 13.8115 17 13.875V15.75H19.908C20.4104 14.6924 20.7069 13.5179 20.7456 12.2786ZM19.1816 17H17C17 18.0355 16.1605 18.875 15.125 18.875H8.875C7.83947 18.875 7 18.0355 7 17H4.81836C6.39954 19.2669 9.02657 20.75 12 20.75C14.9734 20.75 17.6005 19.2669 19.1816 17ZM4.09204 15.75H7V13.875C7 13.8115 7.00316 13.7488 7.00932 13.6869L3.25435 12.2786C3.29311 13.5179 3.58961 14.6924 4.09204 15.75ZM8.3111 13.6051C8.27194 13.6868 8.25 13.7784 8.25 13.875V17C8.25 17.3452 8.52982 17.625 8.875 17.625H15.125C15.4702 17.625 15.75 17.3452 15.75 17V13.875C15.75 13.7784 15.7281 13.6868 15.6889 13.6051C15.6832 13.5948 15.6777 13.5842 15.6726 13.5735C15.5662 13.3806 15.3608 13.25 15.125 13.25H8.875C8.63916 13.25 8.43383 13.3806 8.32741 13.5735C8.32225 13.5842 8.31681 13.5948 8.3111 13.6051ZM7.90869 7.37449C8.63616 7.02434 9.45822 6.92179 10.2494 7.08251C10.5877 7.15122 10.8062 7.48114 10.7375 7.81941C10.6688 8.15768 10.3389 8.3762 10.0006 8.30749C9.47674 8.20108 8.93247 8.26898 8.45082 8.50081C7.96917 8.73265 7.57659 9.11569 7.33299 9.59149C7.17569 9.89874 6.79909 10.0203 6.49184 9.86299C6.18459 9.70569 6.06303 9.32909 6.22034 9.02184C6.58827 8.30319 7.18122 7.72465 7.90869 7.37449ZM15.5492 8.50081C15.0675 8.26898 14.5233 8.20108 13.9994 8.30749C13.6611 8.3762 13.3312 8.15768 13.2625 7.81941C13.1938 7.48114 13.4123 7.15122 13.7506 7.08251C14.5418 6.92179 15.3638 7.02434 16.0913 7.37449C16.8188 7.72465 17.4117 8.30319 17.7797 9.02184C17.937 9.32909 17.8154 9.70569 17.5082 9.86299C17.2009 10.0203 16.8243 9.89874 16.667 9.59149C16.4234 9.11569 16.0308 8.73265 15.5492 8.50081Z" fill="currentColor"/>
</svg>
