<svg width="24" height="24" fill="none" xmlns="http://www.w3.org/2000/svg">
  <g clip-path="url(#a)">
    <mask id="b" fill="#fff">
      <path
        d="M11.348 18.323c0 1.032.005 2.063 0 3.095-.009 1.453-1.082 2.568-2.477 2.583-1.427.015-2.556-1.078-2.57-2.538a359.904 359.904 0 0 1 0-6.274c.013-1.45 1.16-2.569 2.568-2.552 1.379.016 2.467 1.153 2.48 2.592v3.094ZM18.33 12.633c1.032 0 2.062-.004 3.093 0 1.462.008 2.573 1.103 2.576 2.528.002 1.425-1.1 2.523-2.57 2.53-2.062.01-4.124.008-6.185 0-1.484-.004-2.618-1.121-2.609-2.547.01-1.401 1.149-2.5 2.605-2.511h3.091ZM12.634 5.697c0-1.03-.005-2.06.002-3.091.008-1.46 1.105-2.592 2.51-2.6 1.429-.01 2.539 1.116 2.546 2.605.01 2.046.008 4.093 0 6.14-.005 1.482-1.12 2.608-2.55 2.597-1.404-.01-2.5-1.145-2.506-2.602-.006-1.017-.002-2.033-.002-3.05ZM5.696 11.348c-1.03 0-2.06.005-3.09 0C1.158 11.34.018 10.262 0 8.889a2.538 2.538 0 0 1 2.526-2.592c2.116-.03 4.235-.03 6.351 0 1.416.021 2.491 1.19 2.47 2.596-.02 1.361-1.146 2.442-2.56 2.455H5.696ZM5.037 14.129c0 .353.009.705-.002 1.058-.04 1.41-1.155 2.514-2.518 2.505-1.377-.01-2.508-1.14-2.512-2.512-.004-1.394 1.108-2.52 2.524-2.543.733-.01 1.467.007 2.2-.007.244-.006.322.078.313.314-.015.394-.005.79-.005 1.185ZM11.347 3.526c.001.408-.004.818.003 1.227.002.179-.028.302-.248.295-.887-.028-1.78.077-2.662-.054-1.289-.19-2.278-1.428-2.142-2.633C6.46.941 7.581-.05 8.965.001c1.294.05 2.36 1.172 2.382 2.509.005.339 0 .677 0 1.016ZM14.205 18.967c.339.001.678-.005 1.017.002a2.519 2.519 0 0 1 2.47 2.465c.03 1.32-1.04 2.495-2.329 2.56-1.417.072-2.626-.922-2.714-2.289-.053-.816-.007-1.639-.02-2.458-.003-.232.096-.287.304-.282.424.009.848.002 1.272.002ZM18.966 9.821c.001-.34-.004-.678.002-1.017.025-1.39 1.148-2.509 2.516-2.508a2.537 2.537 0 0 1 2.517 2.507c.01 1.407-1.089 2.525-2.512 2.543-.72.01-1.44-.012-2.16.01-.312.01-.383-.11-.368-.391.02-.38.006-.763.006-1.144Z" />
    </mask>
    <path
      d="m11.348 21.418 1.5.009v-.002l-1.5-.007ZM8.87 24.001l.016 1.5-.016-1.5Zm-2.57-2.538-1.5.013v.001l1.5-.014Zm0-6.274 1.5.013-1.5-.013Zm2.568-2.552.017-1.5-.017 1.5Zm2.48 2.592h1.5v-.013l-1.5.013Zm10.074-2.595.008-1.5-.008 1.5ZM24 15.16l1.5-.003v-.001l-1.5.004Zm-2.57 2.53-.007-1.5.006 1.5Zm-6.185 0 .005-1.5-.005 1.5Zm-2.609-2.547-1.5-.01 1.5.01Zm2.605-2.511v-1.5h-.012l.012 1.5ZM12.636 2.606l1.5.01v-.001l-1.5-.01Zm2.51-2.6.01 1.5-.01-1.5Zm2.546 2.605-1.5.007 1.5-.007Zm0 6.14 1.5.005-1.5-.006Zm-2.55 2.597-.012 1.5.012-1.5Zm-2.506-2.602 1.5-.007v-.002l-1.5.009Zm-10.03 2.602-.009 1.5h.001l.007-1.5ZM0 8.889l-1.5.02L0 8.89Zm2.526-2.592-.021-1.5.02 1.5Zm6.351 0-.022 1.5.022-1.5Zm2.47 2.596-1.5-.023 1.5.023Zm-2.56 2.455v1.5h.015l-.015-1.5Zm-3.752 3.839 1.5.043-1.5-.043Zm-2.518 2.505-.011 1.5.01-1.5ZM.005 15.18l-1.5.005 1.5-.005Zm2.524-2.543-.023-1.5.023 1.5Zm2.2-.007.03 1.5h.001l-.03-1.5Zm.313.314 1.5.058v-.004l-1.5-.054Zm6.305-9.418h-1.5v.003l1.5-.003Zm.003 1.227 1.5-.022v-.003l-1.5.025Zm-.248.295-.047 1.499h.001l.046-1.5ZM8.44 4.994l.22-1.483-.22 1.483ZM6.298 2.361l-1.49-.169 1.49.17ZM8.965.001l.058-1.498L8.964.002Zm2.382 2.509 1.5-.023v-.001l-1.5.024Zm2.858 16.457.003-1.5h-.003v1.5Zm1.017.002-.03 1.5h.001l.03-1.5Zm2.47 2.465-1.5.033 1.5-.033Zm-2.329 2.56.075 1.499-.075-1.498Zm-2.714-2.289-1.497.097 1.497-.097Zm-.02-2.458-1.5.022v.001l1.5-.023Zm.304-.282-.037 1.5h.004l.033-1.5Zm6.034-9.144-1.5-.004v.004h1.5Zm.001-1.017-1.5-.026 1.5.026Zm2.516-2.508v1.5-1.5Zm2.517 2.507 1.5-.01-1.5.01Zm-2.512 2.543.02 1.5-.02-1.5Zm-2.16.01.045 1.5h.001l-.046-1.5Zm-.368-.391 1.498.081v-.001l-1.498-.08Zm-9.113 7.358c0 1.04.005 2.06 0 3.088l3 .014c.005-1.036 0-2.079 0-3.102h-3Zm0 3.086c-.004.685-.467 1.086-.993 1.092l.033 3c2.263-.025 3.947-1.854 3.96-4.074l-3-.018Zm-.993 1.092c-.595.006-1.047-.419-1.053-1.052l-3 .028c.021 2.287 1.827 4.048 4.085 4.024l-.032-3ZM7.802 21.45a358.38 358.38 0 0 1 0-6.248l-3-.026c-.018 2.1-.019 4.2 0 6.3l3-.026Zm0-6.249c.005-.63.484-1.071 1.05-1.065l.034-3c-2.25-.025-4.066 1.773-4.084 4.04l3 .025Zm1.05-1.065c.504.006.99.425.996 1.106l3-.027c-.02-2.196-1.709-4.052-3.962-4.078l-.035 3Zm.996 1.093V15.314h3V15.228h-3Zm0 .085V18.323h3V15.314h-3Zm8.483-1.181c1.04 0 2.059-.004 3.085 0l.015-3c-1.036-.004-2.078 0-3.1 0v3Zm3.085 0c.666.004 1.081.46 1.083 1.031l3-.007c-.006-2.277-1.812-4.012-4.068-4.023l-.015 3Zm1.083 1.03c0 .572-.408 1.025-1.077 1.028l.013 3c2.27-.01 4.068-1.755 4.064-4.033l-3 .005Zm-1.078 1.028c-2.056.01-4.113.008-6.172 0l-.01 3c2.064.008 4.13.01 6.197 0l-.015-3Zm-6.172 0c-.698-.002-1.117-.485-1.114-1.037l-3-.02c-.015 2.3 1.834 4.05 4.104 4.058l.01-3Zm-1.114-1.037c.004-.53.428-1.016 1.116-1.021l-.023-3c-2.223.017-4.078 1.728-4.093 4.001l3 .02Zm1.105-1.021H15.325v-3H15.24v3Zm.084 0H18.331v-3H15.324v3Zm-1.19-8.436c0-1.04-.005-2.057.002-3.081l-3-.02c-.007 1.037-.002 2.08-.002 3.1h3Zm.002-3.082c.004-.688.483-1.107 1.02-1.11l-.019-3c-2.274.014-3.988 1.859-4.001 4.092l3 .018Zm1.02-1.11c.555-.004 1.033.408 1.036 1.113l3-.014c-.01-2.273-1.753-4.114-4.056-4.099l.02 3Zm1.036 1.113c.01 2.041.008 4.084 0 6.127l3 .01c.008-2.049.01-4.1 0-6.15l-3 .013Zm0 6.126c-.002.691-.479 1.109-1.039 1.104l-.023 3c2.3.018 4.053-1.819 4.063-4.092l-3-.012Zm-1.038 1.104c-.536-.004-1.015-.426-1.018-1.109l-3 .014c.01 2.23 1.723 4.078 3.994 4.095l.024-3Zm-1.018-1.11c-.006-1.012-.002-2.017-.002-3.041h-3c0 1.007-.004 2.035.002 3.058l3-.018Zm-8.44 1.11c-1.038 0-2.058.005-3.083 0l-.015 3c1.035.005 2.077 0 3.098 0v-3Zm-3.083 0c-.699-.004-1.106-.491-1.113-.98l-3 .042c.031 2.258 1.903 3.926 4.097 3.938l.016-3ZM1.5 8.869a1.039 1.039 0 0 1 1.047-1.072l-.042-3A4.038 4.038 0 0 0-1.5 8.91l3-.04Zm1.047-1.072c2.103-.03 4.207-.03 6.308 0L8.9 4.799c-2.132-.032-4.265-.03-6.395 0l.042 2.999Zm6.309 0c.544.009 1 .453.991 1.073l3 .045c.033-2.191-1.661-4.084-3.948-4.117l-.043 3Zm.991 1.073c-.007.499-.424.972-1.074.978l.029 3c2.177-.02 4.011-1.708 4.045-3.933l-3-.045Zm-1.06.978H8.702v3H8.788v-3Zm-.084 0H5.696v3H8.703v-3Zm-5.166 4.28c0 .403.008.69-.001 1.016l2.999.086c.01-.38.002-.798.002-1.101h-3Zm-.001 1.016c-.018.635-.502 1.051-1.009 1.048l-.02 3c2.22.015 3.965-1.778 4.028-3.962l-2.999-.086Zm-1.008 1.048a1.038 1.038 0 0 1-1.023-1.016l-3 .009c.007 2.2 1.807 3.99 4 4.007l.023-3Zm-1.023-1.016c-.002-.56.44-1.03 1.047-1.039l-.047-3c-2.223.035-4.007 1.82-4 4.048l3-.01Zm1.046-1.039c.35-.005.702-.004 1.073-.002.365 0 .748.002 1.135-.006l-.06-3c-.346.008-.697.007-1.065.006-.363-.002-.744-.003-1.128.002l.045 3Zm2.21-.008c-.014 0-.115.003-.258-.034a1.296 1.296 0 0 1-.594-.35 1.298 1.298 0 0 1-.336-.599c-.034-.142-.03-.243-.03-.256l2.998.108c.007-.195.018-.833-.489-1.35-.508-.52-1.148-.522-1.354-.518l.062 3Zm-1.218-1.243c-.016.433-.006.9-.006 1.243h3c0-.447-.01-.77.004-1.127l-2.998-.116ZM9.847 3.53c.001.378-.004.827.003 1.249l3-.05c-.007-.396-.002-.766-.003-1.205l-3 .006Zm.003 1.245v-.002a.508.508 0 0 1 0-.03 1.267 1.267 0 0 1 .21-.603c.157-.235.378-.407.621-.504a1.18 1.18 0 0 1 .468-.087l-.093 2.999c.382.012 1.066-.091 1.502-.746.319-.479.293-.993.292-1.07l-3 .043Zm1.3-1.225c-.49-.016-1.016.005-1.402.01a6.792 6.792 0 0 1-1.088-.048l-.44 2.967a9.686 9.686 0 0 0 1.571.081c.503-.007.866-.025 1.264-.012l.095-2.998ZM8.66 3.51c-.558-.083-.91-.647-.871-.98l-2.981-.338C4.573 4.269 6.2 6.179 8.22 6.478l.439-2.967Zm-.871-.98c.077-.68.559-1.052 1.12-1.03l.113-2.998c-2.207-.084-3.969 1.53-4.214 3.69l2.98.338ZM8.907 1.5c.46.017.93.452.94 1.033l3-.048c-.034-2.094-1.694-3.901-3.824-3.983L8.907 1.5Zm.94 1.031c.005.325 0 .63 0 .994h3c0-.313.005-.685 0-1.039l-3 .045ZM14.2 20.467c.383.001.666-.005.991.002l.06-3c-.353-.007-.748-.001-1.044-.002l-.007 3Zm.992.002c.548.01.988.45 1 .998l3-.066a4.019 4.019 0 0 0-3.942-3.932l-.058 3Zm1 .999c.012.537-.457 1.006-.906 1.029l.152 2.996c2.13-.108 3.8-1.991 3.753-4.093l-3 .068Zm-.905 1.029c-.687.034-1.113-.426-1.143-.888l-2.993.193c.146 2.272 2.14 3.799 4.286 3.69l-.15-2.995Zm-1.143-.888c-.05-.79 0-1.4-.016-2.385l-3 .046c.01.654-.032 1.69.023 2.532l2.993-.193Zm-.016-2.384c0 .037.01.545-.464.942-.214.179-.43.248-.56.275a.926.926 0 0 1-.21.022l.074-2.999c-.145-.003-.726-.021-1.23.402-.575.48-.614 1.133-.61 1.402l3-.044Zm-1.23 1.24c.446.01.914.002 1.306.002v-3c-.457 0-.837.007-1.24-.002l-.065 3Zm7.568-10.64c0-.378-.005-.667.001-.994l-3-.053c-.006.35 0 .738-.002 1.04l3 .007Zm0-.994c.011-.593.488-1.035 1.016-1.035l.002-3c-2.207-.001-3.978 1.794-4.017 3.982l3 .053Zm1.016-1.035c.544 0 1.014.462 1.018 1.019l3-.023c-.016-2.195-1.816-3.995-4.016-3.996l-.002 3Zm1.018 1.018c.004.573-.424 1.025-1.031 1.033l.039 3c2.238-.03 4.008-1.813 3.992-4.054l-3 .021ZM21.47 9.847c-.599.007-1.484-.012-2.186.01l.091 2.998c.736-.022 1.293.002 2.134-.009l-.04-3Zm-2.185.01c.004 0 .109-.005.26.038.174.049.412.161.614.395.194.225.26.455.284.582.022.116.015.19.016.174l-2.995-.162c-.01.161-.052.814.423 1.365.521.605 1.232.614 1.487.606l-.09-2.998Zm1.174 1.188c.023-.432.008-.925.008-1.224h-3c0 .463.014.735-.003 1.064l2.995.16Z"
      fill="var(--cx-icon-color)" mask="url(#b)" />
  </g>
  <defs>
    <clipPath id="a">
      <path fill="#fff" d="M0 0h24v24H0z" />
    </clipPath>
  </defs>
</svg>