<svg width="24" height="24" viewBox="0 0 24 24" fill="none" xmlns="http://www.w3.org/2000/svg">
<path d="M12.625 7.625C11.0742 7.625 9.8125 6.36333 9.8125 4.8125C9.8125 3.26167 11.0742 2 12.625 2C14.1758 2 15.4375 3.26167 15.4375 4.8125C15.4375 6.36333 14.1758 7.625 12.625 7.625ZM12.625 3.25C11.7633 3.25 11.0625 3.95083 11.0625 4.8125C11.0625 5.67417 11.7633 6.375 12.625 6.375C13.4867 6.375 14.1875 5.67417 14.1875 4.8125C14.1875 3.95083 13.4867 3.25 12.625 3.25Z" fill="currentColor"/>
<path d="M13.2483 21.9958C12.3142 21.9958 11.5167 21.2967 11.3917 20.3708L11.0267 17.5908L9.275 16.685L8.66583 17.8625C8.34167 18.4867 7.70333 18.875 7 18.875H3.875C2.84083 18.875 2 18.0342 2 17C2 15.9658 2.84083 15.125 3.875 15.125H5.86L8.04583 10.9058C7.975 10.9033 7.90333 10.9017 7.83333 10.9017C6.78 10.9017 5.745 11.1892 4.84083 11.7325C4.55167 11.9017 4.225 11.9908 3.89167 11.9908C3.24 11.9908 2.62583 11.6492 2.28833 11.1C2.02667 10.6733 1.94667 10.1708 2.06333 9.6825C2.18 9.195 2.47917 8.7825 2.905 8.52083C4.40333 7.61417 6.10833 7.13583 7.83667 7.13583C8.9875 7.13583 10.1242 7.34417 11.2142 7.75583L13.685 8.67833C14.035 8.80917 14.4017 8.87583 14.7758 8.87583H17C18.0342 8.87583 18.875 9.71667 18.875 10.7508C18.875 11.785 18.0342 12.6258 17 12.6258H14.7775C13.9525 12.625 13.1433 12.4775 12.3725 12.1875L11.7267 11.9467L10.9975 13.355L13.0367 14.41C13.9475 14.8792 14.57 15.7667 14.7025 16.7833L15.1117 19.8775C15.1767 20.3742 15.045 20.8667 14.7392 21.2633C14.4342 21.6608 13.9933 21.915 13.4967 21.98C13.4175 21.9908 13.335 21.9967 13.2533 21.9967L13.2483 21.9958ZM9.00667 15.2175C9.10583 15.2175 9.20583 15.2417 9.29417 15.2875L11.8908 16.6308C12.0725 16.725 12.1967 16.9017 12.2233 17.1042L12.6308 20.2058C12.6725 20.5133 12.9383 20.745 13.25 20.7458H13.2508C13.2833 20.7458 13.3067 20.7442 13.3308 20.7408C13.5 20.7183 13.6475 20.6333 13.7492 20.5017C13.8508 20.3692 13.895 20.2058 13.8733 20.04L13.4642 16.945C13.385 16.3342 13.0108 15.8017 12.4642 15.5192L9.86833 14.1775C9.72 14.1008 9.61083 13.9708 9.56 13.8125C9.50917 13.6533 9.52417 13.4833 9.60083 13.3358L10.8717 10.88C10.98 10.6717 11.1925 10.5425 11.4267 10.5425C11.5017 10.5425 11.575 10.5558 11.6458 10.5825L12.8117 11.0175C13.4433 11.255 14.105 11.3758 14.7783 11.3767H17C17.345 11.3767 17.625 11.0967 17.625 10.7517C17.625 10.4067 17.345 10.125 17 10.125H14.7775C14.2508 10.125 13.7375 10.0317 13.2467 9.84833L10.775 8.92583C9.82583 8.5675 8.8375 8.38667 7.8375 8.38667C6.33667 8.38667 4.85583 8.8025 3.55583 9.58917C3.41583 9.67333 3.31667 9.81083 3.27833 9.97333C3.23917 10.1358 3.26583 10.3042 3.35333 10.4458C3.46583 10.6283 3.67083 10.7425 3.89 10.7425C4 10.7425 4.10833 10.7133 4.2025 10.6583C5.29667 10 6.5525 9.65167 7.8325 9.65167C8.2675 9.65167 8.705 9.6925 9.13333 9.7725C9.32667 9.80833 9.49417 9.93583 9.58 10.1125C9.66667 10.2892 9.66417 10.4992 9.57333 10.6742L6.795 16.0375C6.68667 16.2458 6.47417 16.375 6.24 16.375H3.875C3.53 16.375 3.25 16.655 3.25 17C3.25 17.345 3.53 17.625 3.875 17.625H7C7.23417 17.625 7.4475 17.4958 7.555 17.2875L8.45167 15.555C8.55917 15.3467 8.77167 15.2175 9.00667 15.2175Z" fill="currentColor"/>
<path d="M19.5 22C18.1217 22 17 20.8783 17 19.5C17 18.1217 18.1217 17 19.5 17C20.8783 17 22 18.1217 22 19.5C22 20.8783 20.8783 22 19.5 22ZM19.5 18.25C18.8108 18.25 18.25 18.8108 18.25 19.5C18.25 20.1892 18.8108 20.75 19.5 20.75C20.1892 20.75 20.75 20.1892 20.75 19.5C20.75 18.8108 20.1892 18.25 19.5 18.25Z" fill="currentColor"/>
</svg>
