<svg width="24" height="24" viewBox="0 0 24 24" fill="none" xmlns="http://www.w3.org/2000/svg">
<path fill-rule="evenodd" clip-rule="evenodd" d="M7 3.40002C6.13706 3.40002 5.4375 4.09958 5.4375 4.96252C5.4375 5.82547 6.13706 6.52502 7 6.52502C7.86295 6.52502 8.5625 5.82547 8.5625 4.96252C8.5625 4.09958 7.86295 3.40002 7 3.40002ZM4.1875 4.96252C4.1875 3.40922 5.4467 2.15002 7 2.15002C8.5533 2.15002 9.8125 3.40922 9.8125 4.96252C9.8125 6.51582 8.5533 7.77502 7 7.77502C5.4467 7.77502 4.1875 6.51582 4.1875 4.96252ZM18.25 3.40002C17.3871 3.40002 16.6875 4.09958 16.6875 4.96252C16.6875 5.82547 17.3871 6.52502 18.25 6.52502C19.1129 6.52502 19.8125 5.82547 19.8125 4.96252C19.8125 4.09958 19.1129 3.40002 18.25 3.40002ZM15.4375 4.96252C15.4375 3.40922 16.6967 2.15002 18.25 2.15002C19.8033 2.15002 21.0625 3.40922 21.0625 4.96252C21.0625 6.51582 19.8033 7.77502 18.25 7.77502C16.6967 7.77502 15.4375 6.51582 15.4375 4.96252ZM10.2005 2.75312C10.4446 2.50902 10.8403 2.50899 11.0844 2.75305C11.3746 3.04324 11.6049 3.38776 11.762 3.76693C11.919 4.14611 11.9999 4.55252 11.9999 4.96294C11.9999 5.37337 11.919 5.77977 11.762 6.15895C11.6049 6.53812 11.3746 6.88265 11.0844 7.17284C10.8403 7.41689 10.4446 7.41686 10.2005 7.17276C9.95647 6.92866 9.9565 6.53293 10.2006 6.28888C10.3747 6.11476 10.5129 5.90805 10.6071 5.68054C10.7014 5.45304 10.7499 5.2092 10.7499 4.96294C10.7499 4.71669 10.7014 4.47284 10.6071 4.24534C10.5129 4.01783 10.3747 3.81112 10.2006 3.637C9.9565 3.39295 9.95647 2.99722 10.2005 2.75312ZM15.0495 2.75312C15.2935 2.99722 15.2935 3.39295 15.0494 3.637C14.8753 3.81112 14.7371 4.01783 14.6429 4.24534C14.5486 4.47284 14.5001 4.71669 14.5001 4.96294C14.5001 5.2092 14.5486 5.45304 14.6429 5.68054C14.7371 5.90805 14.8753 6.11476 15.0494 6.28888C15.2935 6.53293 15.2935 6.92866 15.0495 7.17276C14.8054 7.41686 14.4097 7.41689 14.1656 7.17284C13.8754 6.88265 13.6451 6.53812 13.488 6.15895C13.331 5.77977 13.2501 5.37337 13.2501 4.96294C13.2501 4.55252 13.331 4.14611 13.488 3.76693C13.6451 3.38776 13.8754 3.04324 14.1656 2.75305C14.4097 2.50899 14.8054 2.50902 15.0495 2.75312ZM4.1653 9.00365C4.75135 8.4176 5.5462 8.08836 6.375 8.08836H7.625C8.4538 8.08836 9.24866 8.4176 9.83471 9.00365C10.4208 9.5897 10.75 10.3846 10.75 11.2134V12.3619L11.9679 16.0157C12.0315 16.2063 11.9995 16.4158 11.882 16.5788C11.7646 16.7418 11.5759 16.8384 11.375 16.8384H9.5V19.3384C9.5 20.0014 9.23661 20.6373 8.76777 21.1061C8.29893 21.575 7.66304 21.8384 7 21.8384C6.33696 21.8384 5.70108 21.575 5.23224 21.1061C4.7634 20.6373 4.5 20.0014 4.5 19.3384V16.8384H2.625C2.4241 16.8384 2.23545 16.7418 2.11798 16.5788C2.00051 16.4158 1.96855 16.2063 2.03208 16.0157L3.25 12.3619V11.2134C3.25 10.3846 3.57924 9.5897 4.1653 9.00365ZM6.375 9.33836C5.87772 9.33836 5.40081 9.5359 5.04918 9.88753C4.69755 10.2392 4.5 10.7161 4.5 11.2134V12.4634C4.5 12.5305 4.48917 12.5973 4.46793 12.661L3.49215 15.5884H5.125C5.47018 15.5884 5.75 15.8682 5.75 16.2134V19.3384C5.75 19.6699 5.8817 19.9878 6.11612 20.2222C6.35054 20.4567 6.66848 20.5884 7 20.5884C7.33152 20.5884 7.64947 20.4567 7.88389 20.2222C8.11831 19.9878 8.25 19.6699 8.25 19.3384V16.2134C8.25 15.8682 8.52983 15.5884 8.875 15.5884H10.5079L9.53208 12.661C9.51083 12.5973 9.5 12.5305 9.5 12.4634V11.2134C9.5 10.7161 9.30246 10.2392 8.95083 9.88753C8.5992 9.5359 8.12228 9.33836 7.625 9.33836H6.375ZM15.4153 9.00365C16.0013 8.4176 16.7962 8.08836 17.625 8.08836H18.875C19.7038 8.08836 20.4987 8.4176 21.0847 9.00365C21.6708 9.5897 22 10.3846 22 11.2134V14.9634C22 15.4606 21.8025 15.9375 21.4508 16.2892C21.2512 16.4888 21.0112 16.6388 20.75 16.7311V19.3384C20.75 20.0014 20.4866 20.6373 20.0178 21.1061C19.5489 21.575 18.913 21.8384 18.25 21.8384C17.587 21.8384 16.9511 21.575 16.4822 21.1061C16.0134 20.6373 15.75 20.0014 15.75 19.3384V16.7311C15.4888 16.6388 15.2488 16.4888 15.0492 16.2892C14.6975 15.9375 14.5 15.4606 14.5 14.9634V11.2134C14.5 10.3846 14.8292 9.5897 15.4153 9.00365ZM17.625 9.33836C17.1277 9.33836 16.6508 9.5359 16.2992 9.88753C15.9475 10.2392 15.75 10.7161 15.75 11.2134V14.9634C15.75 15.1291 15.8158 15.2881 15.9331 15.4053C16.0503 15.5225 16.2092 15.5884 16.375 15.5884C16.7202 15.5884 17 15.8682 17 16.2134V19.3384C17 19.6699 17.1317 19.9878 17.3661 20.2222C17.6005 20.4567 17.9185 20.5884 18.25 20.5884C18.5815 20.5884 18.8995 20.4567 19.1339 20.2222C19.3683 19.9878 19.5 19.6699 19.5 19.3384V16.2134C19.5 15.8682 19.7798 15.5884 20.125 15.5884C20.2908 15.5884 20.4497 15.5225 20.5669 15.4053C20.6842 15.2881 20.75 15.1291 20.75 14.9634V11.2134C20.75 10.7161 20.5525 10.2392 20.2008 9.88753C19.8492 9.5359 19.3723 9.33836 18.875 9.33836H17.625Z" fill="currentColor"/>
</svg>
