<svg width="24" height="24" viewBox="0 0 24 24" fill="none" xmlns="http://www.w3.org/2000/svg">
<path fill-rule="evenodd" clip-rule="evenodd" d="M12 2C12.3452 2 12.625 2.27982 12.625 2.625V21.375C12.625 21.7202 12.3452 22 12 22C11.6548 22 11.375 21.7202 11.375 21.375V2.625C11.375 2.27982 11.6548 2 12 2Z" fill="currentColor"/>
<path fill-rule="evenodd" clip-rule="evenodd" d="M12 2C12.1658 2 12.3247 2.06585 12.4419 2.18306L15.5669 5.30806C15.811 5.55214 15.811 5.94786 15.5669 6.19194C15.3229 6.43602 14.9271 6.43602 14.6831 6.19194L12 3.50888L9.31694 6.19194C9.07286 6.43602 8.67714 6.43602 8.43306 6.19194C8.18898 5.94786 8.18898 5.55214 8.43306 5.30806L11.5581 2.18306C11.6753 2.06585 11.8342 2 12 2Z" fill="currentColor"/>
</svg>
