<svg xmlns="http://www.w3.org/2000/svg" width="8" height="20" viewBox="0 0 8 20" fill="none">
  <path fill-rule="evenodd" clip-rule="evenodd"
    d="M4 0C4.34518 0 4.625 0.279822 4.625 0.625V19.375C4.625 19.7202 4.34518 20 4 20C3.65482 20 3.375 19.7202 3.375 19.375V0.625C3.375 0.279822 3.65482 0 4 0Z"
    fill="currentColor" />
  <path fill-rule="evenodd" clip-rule="evenodd"
    d="M0.433058 15.8081C0.677136 15.564 1.07286 15.564 1.31694 15.8081L4 18.4911L6.68306 15.8081C6.92714 15.564 7.32286 15.564 7.56694 15.8081C7.81102 16.0521 7.81102 16.4479 7.56694 16.6919L4.44194 19.8169C4.19786 20.061 3.80214 20.061 3.55806 19.8169L0.433058 16.6919C0.188981 16.4479 0.188981 16.0521 0.433058 15.8081Z"
    fill="currentColor" />
</svg>