<svg xmlns="http://www.w3.org/2000/svg" width="8" height="20" viewBox="0 0 8 20" fill="none">
  <path fill-rule="evenodd" clip-rule="evenodd"
    d="M4 0C4.34518 0 4.625 0.279822 4.625 0.625V19.375C4.625 19.7202 4.34518 20 4 20C3.65482 20 3.375 19.7202 3.375 19.375V0.625C3.375 0.279822 3.65482 0 4 0Z"
    fill="currentColor" />
  <path fill-rule="evenodd" clip-rule="evenodd"
    d="M4 0C4.16576 0 4.32473 0.065848 4.44194 0.183058L7.56694 3.30806C7.81102 3.55214 7.81102 3.94786 7.56694 4.19194C7.32286 4.43602 6.92714 4.43602 6.68306 4.19194L4 1.50888L1.31694 4.19194C1.07286 4.43602 0.677136 4.43602 0.433058 4.19194C0.188981 3.94786 0.188981 3.55214 0.433058 3.30806L3.55806 0.183058C3.67527 0.065848 3.83424 0 4 0Z"
    fill="currentColor" />
</svg>