<svg width="24" height="24" viewBox="0 0 24 24" fill="none" xmlns="http://www.w3.org/2000/svg">
<path fill-rule="evenodd" clip-rule="evenodd" d="M12 2C12.3452 2 12.625 2.27982 12.625 2.625V21.375C12.625 21.7202 12.3452 22 12 22C11.6548 22 11.375 21.7202 11.375 21.375V2.625C11.375 2.27982 11.6548 2 12 2Z" fill="currentColor"/>
<path fill-rule="evenodd" clip-rule="evenodd" d="M8.43306 17.8081C8.67714 17.564 9.07286 17.564 9.31694 17.8081L12 20.4911L14.6831 17.8081C14.9271 17.564 15.3229 17.564 15.5669 17.8081C15.811 18.0521 15.811 18.4479 15.5669 18.6919L12.4419 21.8169C12.1979 22.061 11.8021 22.061 11.5581 21.8169L8.43306 18.6919C8.18898 18.4479 8.18898 18.0521 8.43306 17.8081Z" fill="currentColor"/>
</svg>
