<svg xmlns="http://www.w3.org/2000/svg" width="20" height="20" viewBox="0 0 20 20" fill="none">
  <path fill-rule="evenodd" clip-rule="evenodd"
    d="M3.75 0C4.09518 0 4.375 0.279822 4.375 0.625V19.375C4.375 19.7202 4.09518 20 3.75 20C3.40482 20 3.125 19.7202 3.125 19.375V0.625C3.125 0.279822 3.40482 0 3.75 0Z"
    fill="currentColor" />
  <path fill-rule="evenodd" clip-rule="evenodd"
    d="M0.183058 15.8081C0.427136 15.564 0.822864 15.564 1.06694 15.8081L3.75 18.4911L6.43306 15.8081C6.67714 15.564 7.07286 15.564 7.31694 15.8081C7.56102 16.0521 7.56102 16.4479 7.31694 16.6919L4.19194 19.8169C3.94786 20.061 3.55214 20.061 3.30806 19.8169L0.183058 16.6919C-0.0610194 16.4479 -0.0610194 16.0521 0.183058 15.8081Z"
    fill="currentColor" />
  <path fill-rule="evenodd" clip-rule="evenodd"
    d="M16.25 0C16.5952 0 16.875 0.279822 16.875 0.625V19.375C16.875 19.7202 16.5952 20 16.25 20C15.9048 20 15.625 19.7202 15.625 19.375V0.625C15.625 0.279822 15.9048 0 16.25 0Z"
    fill="currentColor" />
  <path fill-rule="evenodd" clip-rule="evenodd"
    d="M16.25 0C16.4158 0 16.5747 0.065848 16.6919 0.183058L19.8169 3.30806C20.061 3.55214 20.061 3.94786 19.8169 4.19194C19.5729 4.43602 19.1771 4.43602 18.9331 4.19194L16.25 1.50888L13.5669 4.19194C13.3229 4.43602 12.9271 4.43602 12.6831 4.19194C12.439 3.94786 12.439 3.55214 12.6831 3.30806L15.8081 0.183058C15.9253 0.065848 16.0842 0 16.25 0Z"
    fill="currentColor" />
</svg>