<svg width="24" height="24" viewBox="0 0 24 24" fill="none" xmlns="http://www.w3.org/2000/svg">
<path fill-rule="evenodd" clip-rule="evenodd" d="M5.75 2C6.09518 2 6.375 2.27982 6.375 2.625V21.375C6.375 21.7202 6.09518 22 5.75 22C5.40482 22 5.125 21.7202 5.125 21.375V2.625C5.125 2.27982 5.40482 2 5.75 2Z" fill="var(--cx-icon-color)"/>
<path fill-rule="evenodd" clip-rule="evenodd" d="M2.18306 17.8081C2.42714 17.564 2.82286 17.564 3.06694 17.8081L5.75 20.4911L8.43306 17.8081C8.67714 17.564 9.07286 17.564 9.31694 17.8081C9.56102 18.0521 9.56102 18.4479 9.31694 18.6919L6.19194 21.8169C5.94786 22.061 5.55214 22.061 5.30806 21.8169L2.18306 18.6919C1.93898 18.4479 1.93898 18.0521 2.18306 17.8081Z" fill="var(--cx-icon-color)"/>
<path fill-rule="evenodd" clip-rule="evenodd" d="M18.25 2C18.5952 2 18.875 2.27982 18.875 2.625V21.375C18.875 21.7202 18.5952 22 18.25 22C17.9048 22 17.625 21.7202 17.625 21.375V2.625C17.625 2.27982 17.9048 2 18.25 2Z" fill="var(--cx-icon-color)"/>
<path fill-rule="evenodd" clip-rule="evenodd" d="M18.25 2C18.4158 2 18.5747 2.06585 18.6919 2.18306L21.8169 5.30806C22.061 5.55214 22.061 5.94786 21.8169 6.19194C21.5729 6.43602 21.1771 6.43602 20.9331 6.19194L18.25 3.50888L15.5669 6.19194C15.3229 6.43602 14.9271 6.43602 14.6831 6.19194C14.439 5.94786 14.439 5.55214 14.6831 5.30806L17.8081 2.18306C17.9253 2.06585 18.0842 2 18.25 2Z" fill="var(--cx-icon-color)"/>
</svg>
