<svg width="24" height="24" viewBox="0 0 24 24" fill="none" xmlns="http://www.w3.org/2000/svg">
<path fill-rule="evenodd" clip-rule="evenodd" d="M11.9979 3.25C11.9874 3.25 11.977 3.25292 11.968 3.25843C11.9592 3.2638 11.952 3.27142 11.9472 3.2805C11.9471 3.28076 11.9469 3.28102 11.9468 3.28128L9.16457 8.79885C9.06826 8.98983 8.88098 9.11831 8.66812 9.1394L3.292 9.67206C3.2833 9.67278 3.27497 9.67591 3.26801 9.68122C3.26106 9.68653 3.25577 9.69373 3.25277 9.70197C3.24977 9.71022 3.24919 9.71915 3.25111 9.72771C3.25302 9.73621 3.2573 9.74399 3.26346 9.75014C3.26342 9.7501 3.2635 9.75018 3.26346 9.75014L7.68309 14.1277C7.84358 14.2867 7.9058 14.5199 7.84586 14.7376L6.20966 20.6819C6.20739 20.6913 6.20777 20.7012 6.21078 20.7104C6.21391 20.72 6.21976 20.7286 6.2276 20.7349C6.23545 20.7413 6.24496 20.7453 6.25499 20.7464C6.26503 20.7474 6.27517 20.7456 6.28419 20.7411L6.28758 20.7394L11.7205 18.0485C11.8953 17.9619 12.1005 17.9619 12.2753 18.0485L17.7191 20.7444C17.7282 20.749 17.7383 20.7508 17.7483 20.7497C17.7584 20.7486 17.7679 20.7446 17.7757 20.7383C17.7836 20.7319 17.7894 20.7234 17.7926 20.7137C17.7956 20.7045 17.7959 20.6946 17.7937 20.6852L16.1575 14.741C16.0976 14.5233 16.1597 14.2902 16.3201 14.1312L20.7364 9.7536C20.7426 9.74744 20.747 9.7396 20.7489 9.73104C20.7508 9.72248 20.7502 9.71355 20.7472 9.70531C20.7442 9.69706 20.7389 9.68986 20.732 9.68455C20.725 9.67924 20.7167 9.67603 20.708 9.67531L20.6981 9.67449L15.3319 9.14273C15.1191 9.12165 14.9319 8.99326 14.8355 8.80238L12.049 3.28128C12.0489 3.28104 12.0492 3.28152 12.049 3.28128C12.0442 3.27216 12.0367 3.26381 12.0279 3.25843C12.0188 3.25292 12.0085 3.25 11.9979 3.25ZM11.3159 2.19202C11.5212 2.06645 11.7572 2 11.9979 2C12.2386 2 12.4746 2.06645 12.68 2.19202C12.8853 2.31759 13.052 2.4974 13.1617 2.71164L13.1633 2.71485L15.7968 7.93267L20.8173 8.43009C21.062 8.45152 21.2956 8.54208 21.4909 8.69126C21.6876 8.8416 21.8372 9.04518 21.9219 9.27789C22.0066 9.5106 22.0228 9.76269 21.9686 10.0043C21.9145 10.246 21.7923 10.467 21.6164 10.6414C21.6164 10.6414 21.6164 10.6414 21.6164 10.6414L17.4597 14.7617L19.0015 20.3632C19.0659 20.6057 19.0589 20.8617 18.9813 21.1004C18.9036 21.3391 18.7587 21.5502 18.5639 21.7084C18.3691 21.8667 18.1328 21.9653 17.8833 21.9924C17.6345 22.0194 17.3833 21.9742 17.1596 21.8622C17.1589 21.8618 17.1582 21.8615 17.1575 21.8612L11.9979 19.306L6.84578 21.8578C6.84515 21.8581 6.84453 21.8585 6.8439 21.8588C6.62016 21.9708 6.36886 22.0161 6.12005 21.9891C5.87055 21.962 5.63419 21.8634 5.43941 21.7051C5.24462 21.5469 5.09971 21.3357 5.02208 21.0971C4.94446 20.8584 4.93742 20.6024 5.00182 20.3599L5.00328 20.3544L6.54363 14.7585L2.38377 10.6382C2.20789 10.4639 2.08549 10.2426 2.03135 10.001C1.97721 9.75936 1.99344 9.50726 2.07811 9.27456C2.16279 9.04185 2.31236 8.83827 2.50915 8.68793C2.70441 8.53875 2.93803 8.44819 3.18274 8.42676L8.20308 7.92935L10.8324 2.71506L10.8341 2.71164C10.9438 2.4974 11.1105 2.31759 11.3159 2.19202Z" fill="var(--cx-icon-color)"/>
</svg>
