<svg width="24" height="24" viewBox="0 0 24 24" fill="none" xmlns="http://www.w3.org/2000/svg">
  <path
    d="M11.9979 2C11.7572 2 11.5212 2.06645 11.3159 2.19202C11.1105 2.31759 10.9438 2.4974 10.8341 2.71164L10.8324 2.71506L8.20308 7.92935L3.18274 8.42676C2.93803 8.44819 2.70441 8.53875 2.50915 8.68793C2.31236 8.83827 2.16279 9.04185 2.07811 9.27456C1.99344 9.50726 1.97721 9.75936 2.03135 10.001C2.08549 10.2426 2.20789 10.4639 2.38377 10.6382L6.54363 14.7585L5.00328 20.3544L5.00182 20.3599C4.93742 20.6024 4.94446 20.8584 5.02208 21.0971C5.09971 21.3357 5.24462 21.5469 5.43941 21.7051C5.63419 21.8634 5.87055 21.962 6.12005 21.9891C6.36888 22.0161 6.62021 21.9708 6.84397 21.8587L6.84579 21.8578L11.9979 19.306L17.1575 21.8612L17.1596 21.8622C17.3833 21.9742 17.6345 22.0194 17.8833 21.9924C18.1328 21.9653 18.3691 21.8667 18.5639 21.7084C18.7587 21.5502 18.9036 21.339 18.9813 21.1004C19.0589 20.8618 19.0659 20.6058 19.0015 20.3632L17.4597 14.7617L21.6164 10.6414C21.7923 10.467 21.9145 10.246 21.9686 10.0043C22.0228 9.76269 22.0066 9.51059 21.9219 9.27789C21.8372 9.04518 21.6876 8.8416 21.4909 8.69126C21.2956 8.54209 21.062 8.45152 20.8173 8.43009L15.7968 7.93267L13.1633 2.71485L13.1617 2.71165C13.052 2.4974 12.8853 2.31759 12.68 2.19202C12.4746 2.06645 12.2386 2 11.9979 2Z"
    fill="currentColor" />
</svg>