<svg width="24" height="24" viewBox="0 0 24 24" fill="none" xmlns="http://www.w3.org/2000/svg">
<path fill-rule="evenodd" clip-rule="evenodd" d="M2 12C2 6.47715 6.47715 2 12 2C17.5228 2 22 6.47715 22 12C22 17.5228 17.5228 22 12 22C6.47715 22 2 17.5228 2 12ZM12 3.25C7.16751 3.25 3.25 7.16751 3.25 12C3.25 16.8325 7.16751 20.75 12 20.75C16.8325 20.75 20.75 16.8325 20.75 12C20.75 7.16751 16.8325 3.25 12 3.25ZM12.0012 7.11364C12.3464 7.11364 12.6262 7.39346 12.6262 7.73864V13.0795H17.9672C18.3123 13.0795 18.5922 13.3594 18.5922 13.7045C18.5922 14.0497 18.3123 14.3295 17.9672 14.3295H12.0012C11.6561 14.3295 11.3762 14.0497 11.3762 13.7045V7.73864C11.3762 7.39346 11.6561 7.11364 12.0012 7.11364Z" fill="var(--cx-icon-color)"/>
</svg>
