<svg width="24" height="24" viewBox="0 0 24 24" fill="none" xmlns="http://www.w3.org/2000/svg">
  <path fill-rule="evenodd" clip-rule="evenodd"
    d="M9.505 2.625C9.505 2.27982 9.78482 2 10.13 2H13.88C14.2252 2 14.505 2.27982 14.505 2.625C14.505 2.97018 14.2252 3.25 13.88 3.25H12.63V5.77368C14.2472 5.8967 15.7321 6.49316 16.9463 7.42477L17.7029 6.66824C17.5773 6.43198 17.614 6.1321 17.8131 5.93306C18.0571 5.68898 18.4529 5.68898 18.6969 5.93306L19.3219 6.55806C19.566 6.80214 19.566 7.19786 19.3219 7.44194C19.1229 7.64098 18.823 7.67771 18.5868 7.55212L17.8782 8.26065C19.2732 9.7195 20.13 11.6972 20.13 13.875C20.13 18.3623 16.4923 22 12.005 22C7.51768 22 3.88 18.3623 3.88 13.875C3.88 9.59798 7.18472 6.09282 11.38 5.77368V3.25H10.13C9.78482 3.25 9.505 2.97018 9.505 2.625ZM12.005 7C8.20804 7 5.13 10.078 5.13 13.875C5.13 17.672 8.20804 20.75 12.005 20.75C15.802 20.75 18.88 17.672 18.88 13.875C18.88 10.078 15.802 7 12.005 7ZM8.46102 10.5771C8.71716 10.3457 9.11238 10.3657 9.34377 10.6219L12.4688 14.081C12.7002 14.3372 12.6801 14.7324 12.424 14.9638C12.1678 15.1952 11.7726 15.1751 11.5412 14.919L8.41622 11.4598C8.18483 11.2037 8.20489 10.8084 8.46102 10.5771Z"
    fill="currentColor" />
</svg>