<svg width="24" height="24" viewBox="0 0 24 24" fill="none" xmlns="http://www.w3.org/2000/svg">
<path fill-rule="evenodd" clip-rule="evenodd" d="M12 8.25035L3.06692 17.1826C2.82283 17.4267 2.4271 17.4266 2.18304 17.1825C1.93897 16.9385 1.93899 16.5427 2.18308 16.2987L11.1161 7.3665C11.1161 7.36647 11.1161 7.36644 11.1162 7.36641C11.2322 7.25027 11.3699 7.15813 11.5216 7.09526C11.6732 7.03237 11.8358 7 12 7C12.1642 7 12.3268 7.03237 12.4784 7.09526C12.6301 7.15813 12.7678 7.25027 12.8838 7.36641C12.8839 7.36644 12.8839 7.36647 12.8839 7.3665L21.8169 16.2987C22.061 16.5427 22.061 16.9385 21.817 17.1825C21.5729 17.4266 21.1772 17.4267 20.9331 17.1826L12 8.25035Z" fill="var(--cx-icon-color)"/>
</svg>
