<svg width="24" height="24" viewBox="0 0 24 24" fill="none" xmlns="http://www.w3.org/2000/svg">
<path fill-rule="evenodd" clip-rule="evenodd" d="M11.5684 5.17876C11.8068 4.94041 12.1932 4.94041 12.4316 5.17876L16.1874 8.93463C16.4258 9.17298 16.4258 9.55942 16.1874 9.79777C15.9491 10.0361 15.5626 10.0361 15.3243 9.79777L12.6103 7.08379V15.626C12.6103 15.9631 12.3371 16.2363 12 16.2363C11.6629 16.2363 11.3897 15.9631 11.3897 15.626V7.08379L8.6757 9.79777C8.43735 10.0361 8.05091 10.0361 7.81256 9.79777C7.57422 9.55942 7.57422 9.17298 7.81256 8.93463L11.5684 5.17876ZM2.61033 15.0156C2.9474 15.0156 3.22066 15.2889 3.22066 15.626V16.8779C3.22066 17.3801 3.42016 17.8618 3.77528 18.2169C4.13039 18.572 4.61203 18.7715 5.11424 18.7715H18.8858C19.388 18.7715 19.8696 18.572 20.2247 18.2169C20.5798 17.8618 20.7793 17.3801 20.7793 16.8779V15.626C20.7793 15.2889 21.0526 15.0156 21.3897 15.0156C21.7267 15.0156 22 15.2889 22 15.626V16.8779C22 17.7039 21.6719 18.496 21.0879 19.08C20.5038 19.6641 19.7117 19.9922 18.8858 19.9922H5.11424C4.28829 19.9922 3.49617 19.6641 2.91214 19.08C2.32811 18.496 2 17.7039 2 16.8779V15.626C2 15.2889 2.27325 15.0156 2.61033 15.0156Z" fill="var(--cx-icon-color)"/>
</svg>
