<svg width="24" height="24" viewBox="0 0 24 24" fill="none" xmlns="http://www.w3.org/2000/svg">
<path fill-rule="evenodd" clip-rule="evenodd" d="M19.8879 2.47042C20.0692 2.55844 20.2254 2.68903 20.3445 2.84944C20.465 3.01174 20.5445 3.20018 20.5777 3.39828C20.6109 3.59635 20.5972 3.79985 20.5375 3.99183C20.4781 4.18249 20.3746 4.35756 20.2339 4.50142L18.5752 6.22513C19.2605 6.48118 19.8746 6.9085 20.3613 7.46982C20.9545 8.15391 21.3309 9.00504 21.4445 9.91016C21.4811 10.1157 21.4671 10.3277 21.4033 10.527C21.3365 10.7356 21.2169 10.9248 21.0542 11.0744C20.8913 11.2241 20.691 11.3285 20.4727 11.3748C20.2551 11.4209 20.0296 11.4069 19.8195 11.3347C19.8188 11.3345 19.8181 11.3342 19.8174 11.334L15.5305 9.88332L15.035 15.516C16.541 15.7561 18.0127 16.2084 19.408 16.864C19.4198 16.8696 19.4313 16.8754 19.4426 16.8815C19.4555 16.8882 19.4683 16.8952 19.4809 16.9028C20.5007 17.5141 21.2952 18.5412 21.6967 19.4503C21.8948 19.8986 22.0293 20.3897 21.9945 20.8307C21.9767 21.0576 21.9105 21.311 21.7433 21.5306C21.5671 21.7621 21.3184 21.9034 21.0392 21.9549C21.0275 21.9571 21.0157 21.9589 21.0039 21.9604C20.2567 22.056 19.4986 21.9778 18.7852 21.732C18.274 21.5558 17.7955 21.2969 17.3672 20.9668C17.0734 21.2153 16.7475 21.4233 16.3975 21.5841C15.8505 21.8354 15.2577 21.9656 14.6575 21.9656C14.0574 21.9656 13.4645 21.8354 12.9176 21.5841C12.5775 21.4278 12.2602 21.2271 11.973 20.9879C11.6858 21.2271 11.3684 21.4278 11.0284 21.5841C10.4815 21.8354 9.88862 21.9656 9.28845 21.9656C8.68829 21.9656 8.09545 21.8354 7.54849 21.5841C7.19852 21.4233 6.8726 21.2153 6.57881 20.9668C6.15042 21.2969 5.67199 21.5558 5.16072 21.732C4.44738 21.9778 3.68924 22.056 2.94212 21.9604L2.94209 21.9604C2.30321 21.8787 2.0701 21.3171 2.01753 20.9296C1.9623 20.5225 2.04109 20.0497 2.20423 19.5914C2.52502 18.6902 3.23783 17.6593 4.38845 16.9614C4.4326 16.9231 4.4827 16.8901 4.5382 16.864C5.96546 16.1934 7.47261 15.7355 9.0146 15.4998L12.1666 9.52612L7.63029 10.799C7.62975 10.7991 7.62921 10.7993 7.62867 10.7994C7.42058 10.8584 7.20089 10.8614 6.99122 10.808C6.7811 10.7545 6.59006 10.6467 6.43548 10.4974C6.28105 10.3481 6.16812 10.1624 6.1053 9.95892C6.04563 9.76563 6.03256 9.56094 6.06673 9.36202C6.17191 8.44483 6.54558 7.57984 7.14128 6.88344C7.71863 6.2085 8.4782 5.72297 9.32539 5.49033L8.5855 4.66113C8.43738 4.49695 8.33571 4.29719 8.28857 4.08293C8.24123 3.86775 8.25007 3.64355 8.31445 3.43266C8.37886 3.22169 8.49717 3.02971 8.65968 2.87762C8.82234 2.72539 9.02343 2.61875 9.24309 2.57123L9.25322 2.56903L9.25324 2.56911C9.95316 2.42933 10.6645 2.35929 11.3776 2.36C11.3978 2.36002 11.4181 2.36099 11.4383 2.3629C12.1993 2.43512 12.9305 2.69736 13.5691 3.12542C13.8683 3.32605 14.1431 3.56025 14.3886 3.82269C14.5925 3.5033 14.845 3.21576 15.1393 2.97219L15.1507 2.96296C15.8169 2.43655 16.6138 2.11035 17.4528 2.02343C18.29 1.93669 19.1331 2.09195 19.8879 2.47042ZM10.6796 6.61407C11.0842 6.61212 11.4886 6.66815 11.8813 6.78188C12.2257 6.88164 12.5859 6.68327 12.6856 6.3388C12.7854 5.99433 12.587 5.63421 12.2426 5.53444C11.8077 5.40848 11.3615 5.33673 10.9134 5.31943L9.58264 3.82799C10.164 3.71673 10.7538 3.66008 11.345 3.65872C11.8785 3.71422 12.3931 3.9006 12.8459 4.20415C13.3073 4.51344 13.6915 4.93556 13.963 5.43535C14.0915 5.6719 14.3527 5.80463 14.6195 5.76899C14.8864 5.73336 15.1036 5.53676 15.1655 5.27477C15.2873 4.75983 15.5687 4.30468 15.9617 3.97733C16.4359 3.60446 16.9984 3.37616 17.5866 3.31521C18.1668 3.25511 18.7523 3.35976 19.2808 3.61895L17.0488 5.93843C16.6771 5.92287 16.3041 5.94251 15.9344 5.99753C15.5797 6.05032 15.335 6.38068 15.3878 6.7354C15.4406 7.09012 15.7709 7.33488 16.1256 7.28208C16.471 7.23067 16.8202 7.21887 17.1669 7.24646C17.2154 7.25676 17.2648 7.26145 17.3141 7.26056C17.474 7.27848 17.6331 7.30481 17.7909 7.33953C18.4014 7.49102 18.9563 7.83182 19.3801 8.3206C19.8036 8.80904 20.0755 9.42164 20.1567 10.0778L13.6547 7.87745C13.5307 7.83551 13.397 7.83199 13.2711 7.86733L7.35503 9.52737C7.35503 9.52733 7.35504 9.52728 7.35504 9.52723C7.42845 8.85683 7.69954 8.22873 8.12817 7.72763C8.55563 7.22792 9.11846 6.87915 9.73868 6.7245C10.0175 6.65962 10.3007 6.62336 10.5843 6.6156C10.616 6.61741 10.6479 6.61691 10.6796 6.61407ZM13.7622 9.2849L14.2645 9.45488L13.7448 15.363C13.1567 15.317 12.5654 15.3032 11.9731 15.3218C11.5038 15.307 11.0351 15.3127 10.5681 15.3385L13.7622 9.2849ZM5.19544 17.9906C5.17922 18.002 5.16234 18.0128 5.14481 18.0229C4.22278 18.5524 3.66475 19.3611 3.42773 20.027C3.32388 20.3187 3.29404 20.5479 3.29926 20.6916C3.78501 20.7274 4.2737 20.664 4.73759 20.5042C5.26285 20.3232 5.74418 20.0225 6.14573 19.6227C6.27299 19.496 6.44704 19.4276 6.62653 19.4339C6.80601 19.4401 6.97489 19.5204 7.09302 19.6557C7.37259 19.9758 7.71275 20.2303 8.0907 20.404C8.46858 20.5776 8.87655 20.6669 9.28845 20.6669C9.70035 20.6669 10.1083 20.5776 10.4862 20.404C10.8642 20.2303 11.2043 19.9758 11.4839 19.6557C11.6072 19.5145 11.7855 19.4335 11.973 19.4335C12.1605 19.4335 12.3388 19.5145 12.4621 19.6557C12.7417 19.9759 13.0818 20.2303 13.4598 20.404C13.8376 20.5776 14.2456 20.6669 14.6575 20.6669C15.0694 20.6669 15.4774 20.5776 15.8553 20.404C16.2332 20.2303 16.5734 19.9758 16.853 19.6557C16.9711 19.5204 17.14 19.4401 17.3194 19.4339C17.4989 19.4276 17.673 19.496 17.8002 19.6227C18.2018 20.0225 18.6831 20.3232 19.2084 20.5042C19.6897 20.67 20.1976 20.732 20.7013 20.6872C20.7012 20.5439 20.6519 20.2991 20.5087 19.975C20.2007 19.2776 19.5793 18.4837 18.8338 18.0292C16.6873 17.0248 14.3477 16.5432 11.9944 16.6205C11.9802 16.621 11.966 16.621 11.9518 16.6205C9.62882 16.5442 7.31912 17.0125 5.19544 17.9906ZM20.6929 20.7726C20.6929 20.7726 20.693 20.7723 20.6932 20.7717L20.6929 20.7726Z" fill="var(--cx-icon-color)"/>
</svg>
