<svg width="24" height="24" viewBox="0 0 24 24" fill="none" xmlns="http://www.w3.org/2000/svg">
  <path
    d="M20.128 21.3719H3.87579C3.55908 21.3719 3.2507 21.2886 2.96733 21.1386C2.52561 20.8969 2.2089 20.4968 2.07555 20.0134C1.94219 19.53 1.9922 19.0216 2.2339 18.5882L10.36 3.59457C10.535 3.27786 10.785 3.02782 11.0934 2.8528C12.0019 2.35273 13.1437 2.68611 13.6438 3.58623L21.7698 18.5882C21.9199 18.8633 22.0032 19.1716 22.0032 19.4884C22.0032 19.9884 21.8115 20.4635 21.4531 20.8135C21.0947 21.1636 20.628 21.3636 20.128 21.3636V21.3719ZM12.0019 3.8696C11.9019 3.8696 11.7935 3.89461 11.7018 3.94461C11.6018 4.00295 11.5101 4.0863 11.4601 4.18631L3.33405 19.1883C3.2507 19.3383 3.23403 19.505 3.27571 19.6717C3.32571 19.8301 3.42573 19.9634 3.57575 20.0468C3.66742 20.0968 3.77577 20.1218 3.87579 20.1218H20.128C20.2946 20.1218 20.453 20.0551 20.5697 19.9384C20.6864 19.8217 20.753 19.6634 20.753 19.4967C20.753 19.3883 20.728 19.2883 20.678 19.1966L12.5519 4.18631C12.4353 3.97795 12.2269 3.86127 12.0019 3.86127V3.8696Z"
    fill="currentColor" />
  <path
    d="M12.0019 15.1211C11.6602 15.1211 11.3768 14.8377 11.3768 14.496V8.87027C11.3768 8.52856 11.6602 8.24519 12.0019 8.24519C12.3436 8.24519 12.627 8.52856 12.627 8.87027V14.496C12.627 14.8377 12.3436 15.1211 12.0019 15.1211Z"
    fill="currentColor" />
  <path
    d="M12.0019 18.2465C11.4851 18.2465 11.0684 17.8298 11.0684 17.3131C11.0684 16.7963 11.4851 16.3796 12.0019 16.3796V18.2549V18.2465Z"
    fill="currentColor" />
  <path
    d="M12.0019 18.2465V16.3713C12.5186 16.3713 12.9353 16.788 12.9353 17.3047C12.9353 17.8215 12.5186 18.2382 12.0019 18.2382V18.2465Z"
    fill="currentColor" />
</svg>