<svg width="24" height="24" viewBox="0 0 24 24" fill="none" xmlns="http://www.w3.org/2000/svg">
<path d="M5.7489 13.4228C5.53647 13.4228 5.34152 13.3186 5.22572 13.1438C4.87333 12.6129 4.64506 12.0098 4.55675 11.3846H2.62482C2.27992 11.3846 2 11.1089 2 10.7692C2 10.4295 2.27992 10.1538 2.62482 10.1538H4.56342C4.57591 10.0661 4.59008 9.984 4.60757 9.90359C4.73837 9.28821 5.00662 8.70646 5.38734 8.20595L4.01358 6.85292C3.89528 6.73723 3.8303 6.58215 3.8303 6.41805C3.8303 6.25395 3.89528 6.09887 4.01358 5.98318C4.13104 5.86667 4.2885 5.80267 4.45512 5.80267C4.62173 5.80267 4.77919 5.86667 4.89665 5.98318L6.27209 7.33785C6.34873 7.28041 6.42204 7.22954 6.49535 7.18195C7.02603 6.84062 7.62669 6.61662 8.24818 6.52554V4.61538C8.24818 4.27569 8.52809 4 8.87299 4C9.21789 4 9.49781 4.27569 9.49781 4.61538V6.52472C9.59945 6.53785 9.69359 6.55344 9.78523 6.57231C10.4017 6.69949 10.9849 6.95795 11.4881 7.3239L12.8493 5.98318C12.9676 5.86667 13.1243 5.80267 13.2909 5.80267C13.4575 5.80267 13.6149 5.86667 13.7324 5.98318C13.8507 6.09887 13.9157 6.25395 13.9157 6.41805C13.9157 6.58215 13.8507 6.73723 13.7324 6.85292L12.3745 8.19036C12.4395 8.27241 12.4961 8.352 12.5494 8.43159C12.5877 8.48985 12.6252 8.54892 12.6611 8.60964C12.7452 8.75159 12.7685 8.91733 12.726 9.07651C12.6835 9.23569 12.5811 9.36862 12.437 9.45149C12.342 9.50646 12.2328 9.536 12.122 9.536C11.9004 9.536 11.6938 9.41949 11.5822 9.23159C11.5564 9.18892 11.5306 9.14626 11.5022 9.10441C11.0457 8.416 10.3451 7.94421 9.5278 7.776C9.31453 7.73251 9.09709 7.71036 8.88049 7.71036C8.27733 7.71036 7.68917 7.88349 7.17849 8.21251C6.47953 8.66215 6.0005 9.3522 5.82971 10.1571C5.6581 10.9612 5.81555 11.7834 6.27209 12.4718C6.36289 12.6096 6.39455 12.7737 6.36039 12.9346C6.32624 13.0954 6.23043 13.2332 6.09047 13.3235C5.98883 13.3883 5.87054 13.4228 5.7489 13.4228Z" fill="currentColor"/>
<path d="M10.1226 20C9.56112 20 9.00129 19.8745 8.49893 19.6373C6.63698 18.7577 5.84804 16.5514 6.74112 14.7167C7.3601 13.4449 8.68805 12.6228 10.1226 12.6228C10.4309 12.6228 10.7358 12.6597 11.0332 12.7344C11.7846 10.4747 13.9373 8.92226 16.3766 8.92226C17.8854 8.9239 19.2966 9.50154 20.358 10.5493C21.4185 11.5971 22.0025 12.9879 22 14.4673C21.9967 17.5179 19.4741 19.9992 16.3766 19.9992L10.1226 20ZM16.3858 18.7692C18.7851 18.7692 20.7479 16.8386 20.7504 14.4665C20.752 13.3161 20.298 12.2338 19.4732 11.4191C18.6485 10.6043 17.5505 10.1555 16.3816 10.1538C14.2789 10.1538 12.4719 11.6267 12.0796 13.6558C12.0796 13.6558 12.0771 13.6689 12.0754 13.6738C12.0246 13.9241 11.9971 14.1941 11.9962 14.4624C11.9962 14.6379 12.0079 14.8176 12.0296 14.9932C12.0337 15.0261 12.0354 15.0515 12.0354 15.0769C12.0354 15.3863 11.8005 15.6488 11.4889 15.6874C11.4622 15.6907 11.4364 15.6923 11.4106 15.6923C11.0965 15.6923 10.8308 15.4609 10.7908 15.1541C10.7624 14.9251 10.7474 14.6921 10.7474 14.4615C10.7483 14.2884 10.7574 14.1153 10.7749 13.9438C10.5592 13.8847 10.3409 13.8544 10.1226 13.8544C9.16541 13.8544 8.28067 14.4016 7.86829 15.2492C7.27346 16.471 7.79914 17.9413 9.03961 18.528C9.35702 18.6782 9.73357 18.761 10.1293 18.7692C10.1293 18.7692 16.3708 18.7692 16.3733 18.7692C16.3766 18.7692 16.3825 18.7692 16.3858 18.7692Z" fill="currentColor"/>
</svg>
