<svg width="48" height="48" viewBox="0 0 48 48" fill="none" xmlns="http://www.w3.org/2000/svg">
  <circle cx="24" cy="24" r="24" fill="white" />
  <g clip-path="url(#clip0_3238_32012)">
    <path
      d="M41.2889 13.9464C38.8792 9.79641 35.0596 6.64953 30.5252 5.07844C25.9909 3.50735 21.0431 3.61647 16.5825 5.38593C12.1218 7.15539 8.44464 10.4676 6.22023 14.7197C3.99583 18.9719 3.37202 23.8813 4.46233 28.5547C5.55263 33.228 8.28459 37.3545 12.161 40.1833C16.0374 43.0121 20.8006 44.3551 25.5838 43.9679C30.367 43.5808 34.8522 41.4891 38.2232 38.0737C41.5942 34.6582 43.6268 30.146 43.9513 25.3582C43.9806 24.9087 44.0001 24.4593 44.0001 24.0001C44.0001 23.4578 44.0001 22.9156 43.9318 22.3831C43.6955 19.4081 42.7921 16.5245 41.2889 13.9464ZM41.0348 26.0714C40.5098 30.3836 38.3631 34.3343 35.0308 37.1211C31.6984 39.9079 27.4303 41.3218 23.0932 41.0757C18.7561 40.8296 14.6754 38.9418 11.6797 35.7959C8.68403 32.6501 6.99808 28.4819 6.9643 24.1379C6.93051 19.794 8.55141 15.6001 11.4978 12.408C14.4442 9.21587 18.4951 7.26492 22.8278 6.95136C27.1605 6.6378 31.4501 7.98515 34.8254 10.7198C38.2007 13.4544 40.4086 17.3712 41.0006 21.6747C41.0125 21.7638 41.0051 21.8543 40.9791 21.9403C40.9531 22.0263 40.909 22.1057 40.8498 22.1732C40.7906 22.2408 40.7176 22.2949 40.6358 22.3319C40.554 22.3689 40.4652 22.3881 40.3753 22.388L33.0573 22.388C32.9154 22.3872 32.7779 22.3385 32.667 22.2499C32.5562 22.1612 32.4786 22.0378 32.4467 21.8995C31.9309 19.8463 30.6787 18.0543 28.9281 16.864C27.1775 15.6737 25.0506 15.1682 22.9517 15.4436C20.8527 15.719 18.9282 16.7561 17.5439 18.3576C16.1596 19.9592 15.412 22.0136 15.4434 24.1303C15.4748 26.247 16.2828 28.2784 17.714 29.8382C19.1451 31.3981 21.0995 32.3777 23.2057 32.5907C25.3119 32.8038 27.4229 32.2355 29.1375 30.9939C30.852 29.7523 32.0506 27.924 32.5053 25.8565C32.5365 25.7169 32.6147 25.5923 32.7267 25.5034C32.8387 25.4145 32.9778 25.3667 33.1208 25.3679L40.4242 25.3679C40.5118 25.3701 40.5981 25.3905 40.6774 25.4278C40.7567 25.4651 40.8274 25.5186 40.8848 25.5848C40.9423 25.6511 40.9853 25.7285 41.0112 25.8123C41.037 25.8961 41.045 25.9843 41.0348 26.0714Z"
      fill="#003459" />
  </g>
  <defs>
    <clipPath id="clip0_3238_32012">
      <rect width="40" height="40" fill="white" transform="translate(4 4)" />
    </clipPath>
  </defs>
</svg>